<mxfile host="app.diagrams.net" agent="Mozilla/5.0 (Windows NT 10.0; Win64; x64) AppleWebKit/537.36 (KHTML, like Gecko) Chrome/127.0.0.0 Safari/537.36" version="24.7.7">
  <diagram name="Page-1" id="YTjqWtmAT8ei4AsVek5I">
    <mxGraphModel dx="3160" dy="1178" grid="1" gridSize="10" guides="1" tooltips="1" connect="1" arrows="1" fold="1" page="1" pageScale="1" pageWidth="827" pageHeight="1169" math="0" shadow="0">
      <root>
        <mxCell id="0" />
        <mxCell id="1" parent="0" />
        <mxCell id="HGULL_6P600kTCqMz5Pa-2" value="" style="group" parent="1" vertex="1" connectable="0">
          <mxGeometry x="402.23" y="750" width="317.77" height="129.11" as="geometry" />
        </mxCell>
        <mxCell id="HGULL_6P600kTCqMz5Pa-3" value="" style="shape=image;verticalLabelPosition=bottom;labelBackgroundColor=default;verticalAlign=top;aspect=fixed;imageAspect=0;image=data:image/png,iVBORw0KGgoAAAANSUhEUgAAALMAAACjCAIAAABOoLg/AAAgAElEQVR4AeS9h3sT17Y3/P4X9yaALUujLvduY0wHmxIgkAAhoQdCOCcJCTnpBU46LYSQhDRC7+BeJdly7xjTi40b7t2qU/b3rLVnxjIBkvt9znu4+XgGeSSNZvbe67dX32v/H/K3+CcQwj/kEAjxPn7fXZ4QlggePFgicIQX4GYcHMLvDvE5gkDggHt73/1h56OfKl81+uPH693/ebya8/+hNfJwP+LkgbenqEIgABx4RJIIJxEAFAbyq3gbwft2j3gq/crrYvlar88eu9O/DzL+Xw8tpZPMckboLRPwEScSQxp5+iMvppfJl4z86vE7+zshQx5w8eT+OQ6jf/818MmDPvuTlPKWYiOQeshz4EHSP/pM6d3j+PdvgwxBIJxAPNLBCoTlvQ7UG2S+QE+QrAI/olfI34/QTRQnPBHk33gDiQMdBdQUKobwGkGgGsgD8fE4YuDBbfrbIIMXCCsQFz9yuCWUeARKPqpUiroEVSeQygAqUeP0VjQI6Jg8T3iO8Cy+cr/DB9VUKTgQHwIn8PwINHDQZSg9mASP6ad/G2RQvs4SQToeQG0gERUxvCBIhyRhRhgGvQwwQQ9uBBbCiECQQCWZMRRUAnIXfMVHPKZk/xPN+rsgA4AhjDrEmeqlbMineCGH4odDCxUGCr4F3PBouEpoAIZBD15WE+idJSQBY/EymKUvgXlwAj+CJJkYYsPk94/pyd8JGV708ZIVBGYx0hyRIUv/35NTIhnlK78HmkRC6TrR6wFvvUCHV8mXPAoZD/hOesRj8PfvggxKcG9APIg4yBdAjHiJCY4VuNEKJv2ljBzKR5DP0G8k+QOUFY0Tyq7wruJzKRrvt3uA4g9q2GOAhPub8PdChjzoVPjLxAWZgdokxxHWAwfHEs6Dh5twbnzLEQ4PliUeD/G48dVDPCweHPFQW4cKIS9bh5pBHE84nrDUgyoQjgf4jYaBhCuvT+8nx2P0/u+EDB65Os5/QAALh9tDnC4ybCd9/aSzm9xrJ3ebye0GcuM2uXqD1F0jtZdJzSVSdRGPGlJZQyqqSXkVqaiC86qL8O2lK+TKdXLjFrnTQBqbyb020tVN+vvhti43cXqIm5dww4PtDLhExuSFARm0ogx5vEUJIeRvgwwBTVO3wDpYx4C7t9PR2jR8+9ZgXV1/ReVAYVF/trk/Ob3n5Lmug0c7vv+l/esf2r/ad++zPS3bvmr68LP697bXv/tx/Tsf3Xn7w/q3Pmh464PGtz9ofu/j1g+2t277tO2zr9p27Gn7Zn/7jz93HjrcfepUX0ryUG62ozB/uLKir+5K/+1GR0s719VHhhzEzaFVhFzqIch47FEBrOsvRYY8T+BJI7xUlrSjvkdGOvoTUYiLsQxJy+N5YPseD3G7iNNBhoZIbw9pv0caG8jNa+RilduW15t0ofHnXy5/uaP87Xdtm/5pWbXOunyV5enlOXMXZUyfkxY3IyVqcnL4xPPB0ecCws8YQ0/pAk9qA06o/Y8zpuMq40nGeEptOqsLOG8MvhAQmhQSkRwRkzwxPnXq9LTZCRnz5ucsWWxd8ZxtzWrbpk2l775fu/Prxl8ODZxLIXlF5OIVcuMOaWgm9zpIL+UrLmgtiz4R0FVxLMQBAVOIdkz6AHUh+NDrn/TG6688Uvhrr2vh1OtL+o30TKos33f1g9/+BcgYaYUs56GfknZIFTp0IIHmJxkU0B8cNZYDgY03YXmOeifcPMeCZoB6gMcDgBjoJ/29pKuDXLtCsjL7vv/u2htvFC5dmj5zVnJcfFpsfGpYdIp/aLo+KFMTkKU0mlWmPKV/vspkU5lsjDFfbcxXG/I0BqvGkKc22tSmQsa/YOQwFahNhRpTocZYoDHmqfV5GkOe1mDRGHLUumy1NlutzVJrM9WaFI32gsGUFByaFh6dGTUpY+LU7OlzS5auuvWvD4Z+/I3k5pHb9aSri/QPkOFh4nKJMo5lwdmB5jELbjSW41m0lwXCcxzrcXMekeAykhAwHB0XcTil4aXQkulLx1/WtBBNIk3AwsZDgpj8o9+fjD0yRoBBrTrq+5EAAC5C+By1ATgFqSxwAguCGS8ChzPPezjC8zyPn1Im4faQITtpbeOuXB2w5becOH7xs0/zNr2UufjpjJkzcibG5YVF2IwB+VqjTW0sUhuLlfoSX125r67KR1c1XlvxpLpinKZ8vKZ0gqbIR23zUVl9VWZfVY5ClatQ5/qozRM0Zh9Nrnioc3yYXB9Vro8yd4Kf2cfP4qO0+ijzfJS2CX6FPsoShapMwZQpmBJfValKXcyoS5SaEqWuSGUoUPvb9CGWkJjcidMyZ85Ne/pZy8v/qP78y8YTp+zFpeTmbdLeSYaGgYtwHsK7UQhyAs/yoBqzgtvNcZS98Dy1b3CICI4TC7NHNqSo4xbfUgBR8j4IGXRo4ddUGf+/jwxB8jKLj4aoBDqKgOyACJYQN6AWJwz1VxIeAh48OLeBWaBe7+FQyfdwxMmSrn5yrZ7kFQ8eP9O8c+/lrW+Xrl6bv2BR5qQpyUGhF3TGFEaXodLlMnqrSm9l9GZGn6PSZyr1qX7aZKUuRW1KM4ZmhsZkRU3OjZ9pnTkvf+4i24JnbIuXFz77fNGyVYUrVheuXFuwel0hHkWr1xWtWlu0cnXx86uKV6wsWf588bPLixcvLVqwuCBxgXV6Ym78jKzo+NTQ6POm0LMaU5Jan6pSZ6m0FpXexhhsKr1NpbOodNlKbYpSc16lSwsKz42fUfjUkorVG6+9/VHTnu/6Tp7jC4qBnfQPEKcTUMJTy4jnPBwyEOJBLzsigc5ymGGsNJOIAKOFuu5ocSRKKpEFyByZhnXg0/8Uz+AJ8RDiRnygpBBQBGDP0YzzEOLAEBS+uHnByYFRSFyEOAXiwhkEdxCAc5C2bmdF3dDZjO4dB+5sfqt24XPlE6fbjMF5vkz+OEXJeGXlBKbSR1vpqyv10RZM0FgnaCxKvc0YXBIZVzplZknCvJJFz5Y+v7p84+aL/3q39sPtVz7feWPvd/U/Hmw8dKL5+Pl7p1Paz2W0Jmc2Z2bfzc1qysluzsluzcm+l515LzOjLS2tIzm180Jyx6mzHUdPtf96tPX7Xxt3f3fr092X3/+kcsu7hRu3FD6/vnjR0tKEuaWTp5dExhaagvL8mMIJijIfRZWPonq8b+14v8vjVTVPMuX/zdjG6wqM0UVxiZWLV17f8nbbvh8HUrKclZdAI3F7KNHBqOIxMIgUR2SgXsXDXPGAwx6YqiCw1CUDSKBMQuLVVIywSAgPvmJYB6Yl/JMuo+8e8TrG0kTmGVSrQHBgx4BnwH/3CG44QfB4OCcL2jx0VHALMEDDw2AT3m0i1Zf6jpwu/8ebWQlPp4dPTtEGp6uMZpUhnzEUMoYC0BUCzJqgTH1oemB0RuSUlJipF+KmZyQ8Vbpy7e13Pujeu891/ATJyiYlJaSmhty4QerrSVMzaWuH+/f2k/5hMuAggy5id4Nl63aPHC4XTGW7A+TXwDDpGyQ9A6Srj7T1kJZOcvceud1Ert4hNddISRXJyHEdPdG+55sr/3o3//mVSbNmn4+blBITkxERmRUUYjEF5WlAsylCFcfK+GcypiS16bwpKClmcnLCwurX3+s/dpZU15I7d0l7Nxl0gBkMw4GKB49Ty+PhObeHeFBPEZ0zMGjIhkfoLakUMjgoJlicqBIXH81VHg6NMUaG/CBZ5URwwMe0uRAApRKH5dxuFzUzBB5dT24nGeojN666zp2r2/r26ejJp9T+6X4Gs9JQoNIXqQ15fppcBZPhq07z06eZIlIjp52fNCd10Qslb3zQ+tNRLscGRkFbJ+noAvL39ZGhATI8QOyDxG0nHgdhnXi4YITdeAACXOCTcHMgzEYOdGp5ePjcjT4uD564WCCbkyVwwhK7hww74RgYIgODpH+Q9PaR7m5y65bTbL7z/Q9Fr2+9sHDx+WmzLkRPvOAffE6lSVOprVp9vkabp1SZlZocxj9VHXxCF3xh8sxb735EsszQhZ5+4mbBV8aC1EWAAAvwYOvBK8fzNPrvRunMPYjWshyhGsYoWIhvZFo9+OQvQAbyK2QeqFwgB5N5iZhOJ0auML7NuYnbQXo6+Ory9qMHq7e+apk/Pyc0yswYy/z01ePVlQpNqR9j9vXLVKltkdGViU9deX59w5sfDR84StLySWkduXqXNHeSnkFwJzjcwHhYUPV5zuPmXG4BhtlNWDe6P9HCgdQNFGce4NBg9QiQ/ymFzqg/U5ybVJ2XBDRYFDIlaE9RbRpJ1OBZ3u0i/f1C6z1y/SYpr3KlZ3b9+NPN996vXLmyMGF2blhIJqMy+/iUMtoyhb50giFfYbBoAnJCY7JnJta98VbX8VPc5SuANqcHdQmOcG6Oc1KeAYIZGitKbc/vwUHbJ5F/pLWyKJG+ejAipE/HGhkjzRIk61NkeRQTnAgNnAqshzjsMLOrq7p++vnq1q1FTy/KiopM15vMKn2+ypCvMuQoNCk6Y3p0TP7TT196/fXGPXt6T5x05Fj4ihpS3wRMfshJHNQLOZKGAYm9IIcFmHgCj2m+NFaChq/g4QQPL3gEAQcWrgbLyDvwJiMAJh/G0yEoJ6ECorJ4d9CiwOBkwdzENA6WxynNoVfUyQJH6ewhd+r5qip7Tk7X0WMNO3dVv/q6edGzSVGTTqtNaSqDhTEVgqDUpTLa3OjYwiVL6956p/vwcXL5BunsI3YXON058LdjtwRwvIvKJzXzxFeJMaDBK2ua3jiQObn3hxIU7vv71yADgs886lJogaPSAS8CTFFg2tBultiHhDu3BrOz7ny0rTxhXkFgmE2lKfbxK/NRVfpqihlDQUBo+azE6rXrrm7fdu/EMXtFuauxgRvoQwtPcBHeDTfiYNLzAhg4OIEgrwulAR0cnlp5QFb8j2jheA/Pg08bRYik5I8aZ2DDtKGCIJnUwATxoDYXx2IIxkV4F0Gpgw55oJ8oQyW7En/EAzPr6WMbmgZKqhqOJ1Vv+6Jk3Qbb7ISC4IhKpb5aoanw9Sv29bWqNdaQ8OKnFjf+e4c9JZfcbARNiApjuCEGgLz8HJQX0JYBdmGUMYgjMj2RxQEYZBnzH0CGxLKwdZRjozYtDSn00MOTYQfp6CA11a0HDqQveeZ0YHim0mT2M1oZo1XnnxMQmh010TJnfuWmzQMHD0EIo61dDFIAzxHchDgJbyesC/P5YD0Az3I88FhOIjUMAlXfEZfoWJInPXyJVOeoRwUsQIDWqEP8NXwOHERECZx43Qcggs4qaABLw7YjNADbHHgNJJwBhjHLzCUQh0AGOdLeRy5d7jxwoGrjy3mz5pmjJmWbgnK0erPOYNbqzzO6o7rAkufWdf7wG6m6TDoHiBNHkiLDezyxgyMDL/uKaOcQBBRXwBXoD/8jyMBRhwHDHDoa0sRQAlWUQULypLWNpKaVv7jhqMn/glpjUQeUqULzlMHnlP7nwyaalz1/46sdQkEBeA/tdmDIdg8oBiiJ0DCm2gGoiGDwCk5ACwgFid//iZ4DhUf+8YgMiUkgbqgLCRN55GUnGBKhGjQOsjcIZG486uH4GLwfCgBqTSK0iYMjdicZHCBNLZyl4PL2L7IXLz8VEnlWq8/RaPLUWqtKl+GrS42YXPXSG550C+kdAocPRa+HooQySdH2EEUiHXmUptBD/JI+FhpGYTSqiXLDR52MsTSR2RVCk+M5t6jigW4v4MF5btxu/P5A8ZKl6QHBFo22lNEWKk1W36As08Sq5S/e2/ktl5tHGhpIXy/ndrqoqiUAs6aTFzk0jyqkhwgu6XCjvJfdPjjJRaSM6vDIG6mtFCKUQ0i5GNRxC8IDHwcuOTwZhQzRKKD3oaDEu3sNO95PdPV6ZZtKk0TwIL9xusCbd72B5Je07PymaOlzqcGBaQpFsR9TqdDkMQHZwXE5S15oPHyCNLcQp5u4PAARaBxySCqgwWsMXaEpqwAB0bCBOUWdTCNpASOj8NCzMUYGgFJKxoZVXzQcACoHZjwMDpKqizd37MlfvDQ3MDRbpS3QGC2MPiM4uuDpFc1f7PWkW8mV26B2OUUTgyoJME+w25SrY7fxG1AiRnH3EbbxwC57MxWZISPzkN/J7Pb3n8i/HnVv6VMJaZS1QUPgvwQu8VMv3UcQeFbg3BxLwNUrgGeld5Bcu9GfnHT5049zFi9ICgrMUWstakMeY0rzDzcvWtq87wfIChgeJh4Xz3vcsIqOchEeI3bAEEDdBkiLUPXmGaKza1TrH/pmrJGBXm+CrA60MlTsUSFyk6FuT1XZtW3brTMSc4xBZUptmZ+2WG2qip12ZfOrHcdPQtrEkEuUGhg9QaqjUxhUC9mhRzV0adBlSnpN1ZHuSmQbQYxMQJnyCC2ZJXjfT/w1vbP3rbx+i42EKygG6ASlFtgoZIj3RZUDsOBCK1SwC+DdhM65kEHxHBnqG75xqenEb9WvvmydHJenN9RAjEaTozKWzHrq7o5d7toa4hp0E+cg5BdRM4w619HIAhtrVP6pDA7K5B44TiMjJp2NNTLwvjD4yOfgFUQjR4YGuIuVF7d/fDw8IoXRZTI6q9qQExhmnjWn9ZMvSEkp2K4uF3Ej3MV5JvILgs5iyW5HJiETRpoblGryx/St2Edviv4eFvQOSNf7fj5qBO+7yai39Kay6BG5Azzd+zJ4PyIA0InGguYsshbwdXKch+PdhHOBX26gh1ysuvrxh7mJieaA4DyNKU9pTFfo06bNvPL5J6T+BnEPOsHj4ZakFA1R0fHx4qMyRfDxVMqKI/PIP2OMDHnkYZxoBJ0QECW3brXs3/9rcEiaTl+k1mRrDWnB4blLlg2cPUeaGoljmLAOiD3SoaTIAIOAFQRwQ7KgtSIvpA+QnSJS37wCdFRbhKtF0srkkSkvn8hf/Z6I0p3hr3zZyAmOMNUu4VHQVkljlZ8rXSNeAMmA1LeKJgpEWTFxmSCvgMARxpScgAyXmzic4KFvbGz/7ZB16XNnDcEWpalUYUxR6TLi4xr3fEU67xGPnech8EQdBKDiUnv19x2UxoK2ybtzDzsfe2SgPx9xTN0LLE96elqPHLMuWHKW0eUxmgKFX7IpoPj5VcRsJW1trMuJQXfWI7DA7ujo09FGFYuj7kvQAqWpLSEDr8XorOhooqoigGMEGQ8mrUTvhw0M/XwECvL1I+2TWkMBQvUdmSYi36MqLEaR5TVzom0MP6c3A4jYWU8/IXa0x1lR0RUIhHIam4bOJ5euXJ+qDizzNRYweotBnz0nsf/8eTDmWRdGmzzo4cVOe8vF+9oPoyv78B7d87HO6ULagVoI8wQi7oQMODrSs4s2bE73D8vVmHLVenNAcO1LLzvS0iAx0+EG1gJalEhOOKFOPokW4mB7d5KSHeeBPFnl7x/ZY/kqaRLhUx75k/u+pHeQGwUQlMKYEpOgLjUvRoLMHe9Dfy11baQHPCeAR19SeVi4Aq7lObDbm5r55IzSZWtyAqKz1KY8tTY5MLR84xYup4R09hLOyUEciLXTlCfqqMchohqG1NWH8Nv7+ie9HWOeQf2c4Gqmc2aYIzcaa9//JHPi9AJfXTFjytEHXX5ulfPceTLQB/oHhteoIx2HWEAzhpNjRdTHJM4tqYvSwELvJZUXOyTSS/pevB6+QqKJ3q37PFqIYmk8/vgv5RAjNgadovA7+emIFEogyjehITJdqFfGSzsQfQ7yXKcOQlHl5sHD6/aQjp6hI6eLlqzMCIgoUGpzmaC00Fm9n/1CLt4kbocAkSfPIIhtVP6lICyHcxNUGRgAmY3RifUHXR17ZIDdxHlA6hJC+uzupEzb4hVpxtASP3024581NdH+6zFS3wgigl4kLwoD6lHXrriAmKPdkYWI2BfveQ90GunoqG9G9VyazqN8WbJbc9Slf/RGuhWFiIgH+JH30xEnMq1HkEHRg/yAzgRAiGw8SN9SmLl5SO4Sf2v3kHvdTXt/sCYuMDM6qybgvF9g3fKXuQuZZGCA8BA1HMbiMGKD4Gfi9PRS0EQNDtv6B/0ca2QAsVnCQxqjhxDS2Xt72+fmiLhMpb5UqU8PjLz4r49I7Q3QqYGiaMHwbnRdy63FPsnNHj3c8sfeJ/QS708efu59O/n84Zf/0Tf338KrKfJXI/2RPxpBEfUUj7ynQoRaoh7OwwtgvDhFJZVnKy5e2fp2bkAQJKVq/c1hsa1f7IKFDi434TgHspkHPg4f4M3TRq56WBf/AmTAwh7gBx6BkDuNKXMWWDX+eYyhROtvmTmPy7aRHjvxQKwTvHWCE5K5eA64hDxwDzx5WA/+F38+wgyBUFKvkYOIiQC8wLtRL3WDiUdI78Dg4aOVc+al+amsjCZbo7v26hZSVgXxWA9cSXNfRLLTG4ocFZixJPD+GBZ/waoCaACLxgRLhhxCUdmx0BiLQm9Wm2xBkVXrNpGbd4kT0mSAFxOB49AfxkOGhDg0/4sp/T9uukw7iXxIO9Q7wBOEC+XcggBzjEYiHW6SV1j/z9cv6ExWjSHDR1m8/IX+5HQy7CJu4C4ov3BovaAGAwvAk6BH3/9RY8eaZ1BNh2OBv7V32c8kn/GPyPfRZaiM1pipTZ/vIh1d3qtIwUGMkVJMdMDG/1GL/07fy1op2iJUfUeHFbBQ1o2ZZ6zAYrIZgZVwDje5crNn17engyKtusCc8X7ZifMbfv4NklRcHOhQACHJLvVCAj2lAPmTAzjmyADfLLTNxZK7za3f/5ISFFXso0tTaAunzRKOnyLd3dBKCAtSHAiYTUVjLf+/QwadxhLZ8C/1OIDhD5YbC84xjIzQpBaXmzS12g+fOBEabdH523yYlEnTL365G7NHWVDF4Z+kx9L7igwDPoV/0sPou0e8jj0yYKEvR4iTdV29efGjT5INIRU+2iyVrjxxLklNgfVkuNrGzUIWLAoUloeFwtijR7T0b/mVTDzRBYLEpa4gDmgsOqZkYcOzpLNz4NTpw+HROWpDqUJzLiym4O0PINXZgf4xMGWoSeQVa0Q8yPf4c8JkrD1dQD5YEADIsF+6mvfKGyn6oGpfjUWtK5s5kz10kHS2Ed7Dw4QQrU0eHFuSEPxbkv8RnZJ1UKAoihB5ANEfzEPuIOaRw8QRIIvtXkvP0aNHwyMtan2FQn0qICz3la2kbxgylsFTMtppIXEI+hyROn9KAf0rkAEmFk+cHvflGyVb300xBFX6MnlKpjQ6qvPzT0hbC2ZNAixgRsBCLHR9PIhnjMwoiQv+uU49ghSP2VfePUSmSU00nNZATfBbUVuFpZ5lN7l5o3fPN2dNQUWMvkqhPhMQahWRgXwXxpVmf4g8gnKIxwEZ2AbOQ5xu4VrDlW1fpJiCyn38Cv38ygL8L7+0gTTcBnsW1QzgFGJG3ohw9Cad97h5n3tf87c5p8STPKdg0kMyJ/wFWvOgRfCQcFpU1Pzq1gy1sUKprfZlkoIjit54B9bOOPFKkEqjkYEDREcPTkfO/mDkxlzP4MHFxTogTnjr7p2de5MCQkp9/UqVqjKttihxDjHnwXoKFwftBxkicALHYqqdyA+82AL2AiWw1CMZH3/Qrf89X9MeUY7p9SrmSvKcGwQv/YLzkP6ewSNHa+cuzFfpqhWaSl8mNSKm/N2PABkOzCIG1Y1G7CSegUMxgoc/PYJjjQxwjTsIO0xcDnK74fbub84FhZYomTIlU+7rZw6JvPH2NlJ9nQx5IOkCVtRAwW83Jv2KjBQ4iQQSiK7RIooi1uV+eeHnfw8KKJEw+ZQ2mnaH8gmqN2K/MBYEA8PCkmhYT0AFtNNTU33znfeKAsPLFJpLCnW5ryotJq562yewkM6FnBisfxaNGa9xlOYVDCIFzJ8Yvr8AGbyLuIcg5aK+oWHvt6f9gwoVqkqVplqhylUb82Yv9hy6QG63EIeLQLI1izn5vAvC6ISjwgXHDpfBioAAlztqYnK//kTXHlPE0M5h6i70juPBT+HG7gNroJm9qILBZx4Xpq3wwIN7++4e+Mk2b2GRUlOrUNcpmDJfVWpMXOW2T8jgMHG7IctZQgb1asijJPKM/ygyMBXB7SYOB7lT37h33wX/oJIJflVKdY2KKWD0mYawKy9sYi+kQs4S5yAC5KuxAmqicoo/9AOX+sAL/sOF4d6pMXKfH1P6P6RZMiwoMkDug2EqcIKHFejaOgxT08xGnCu4hM5Nurvsp8+VPrfGHBReoVBenOBbp4BiDSmxcRXbJWRgKAoXgIkLCuRRGkEGPZO/eEg7/wLvuJyW4XCTO7eb93yd5h9UMV5R5aeqYlTlKk2hr67AP/rSli19hVnE3gW5BcAn0Aj3oIikNrxoycNIUnmCcBfzpsR+PrxXj+033sgATOBqFNAZBQcnwMJLF6ypwpxQORHB4yG9HW6LuXzleltAVLFSe9lPUecz4ZJCUeSnSpoYV/7vT6Agh9tNc6YfhYz/pAZK+RWUPWDJnVt3d+9O9Q+qnKCq8GNKlapSlbZCZbL6GlIjY8pf20wKrKSlGTJTILkeXRqYJA4cVlxfNUrnkHiG6Ah5bMn/iIZ5I4MXBA+LSx0hLO0gqJa7BR7iH7RkgIfAWpumZntWVtWrb5w3hNl8jBV+ukt+TJ1SVatQIjImVfz7U5QmNLoCWVDS8I1wBkoWaNifnlVjrGdQDxy4W9wcuXOrYfeuC4aACl91uUpbzGjLNcZypaHcz5SrMmQFhpQuX0FS06BywfAw8Ewa9BFXlQjEw7FuD7hHcTg5UMREnoHuvUeM/+P7lTcyqOXO8W4BA86ADFhQicEPmkrucJPmlu7jp/KfX31MHWD2C6zxDaj00ZdNUFUrmBoFU+THJE+Mr/z3Z2TQTlwsEl1cZYB3QWRIL/9h77jo2IUERpbU37y7e1eyMah8grrIT1cRHNmx8Nl8bWCeylTEGEuU2gydybZwccvefeRirVjDSs6i9eYZ2DexTDiIUkJXjjQAACAASURBVDhGpsPjC4MHtMwbGbCCmQc7Au0zaZkdL61wHHSQq9ev7d2bvXhpakB4jjqwQBloG6e/HBZfP21uqTagUqktVjApsZMrt39OBuyQ8gKDIlqtkhGCTOLB3qIHNM/7ozHmGeKteQKUvnO9adeuTFNY5TitxddYOTmRfLan+R9vpMZPT9WZipSMxU+ZaTTlz5x99c137BcyyL1uMuyWiljQNcvIR6gOCt37W/EMXHKBgQFYcYeeLahhiksa6xvtp8/VvbYlb9as7IDgfKXewpiSNQHW+Fldr77V/8729MCIQsZQgsiokpFxX0TNS3bIuVzetH/0+VgjAwQaphY47eT2teadu7INYdVPGDJ9AotnLyUn00imtfbfnxbMmVOm05T6jC/z9S3yU+WHx1Uv39j8za8dtrKe1nbO7gSbHJfjoeLO8xxN/Ps7IEM0toB7oEaAxRWo35KzOwebmntyzQ07d1UsW2YLCqz09a2Z4Ht5nBJKDCbMbf7yK5KeM/jbqSMR8Watf6kvkxo7WUSGA3JAKdvA+SSFoijHRRVftvkfjQn67V+ADFpiy+kit2817/g6XRdW+aQhwzegZPYzJDmXtHWTusvNe78pXrQoMzA4T2soVulzlKYkVeCp0Hjbxi31Px3xFJZBbYzuXuJyos3G8jwLnnSsYyEFWqgqJXcW3noNBv0WPpFymagyK/6KxjCl6718j6KGRn/4ULeQJMvEp+CTqYijqh79OZV62CqxIeDcQ+cdbGOAjB9Cj5Bd0dVHbt7mSkruHDhgXbXmbEhEkkprY3QlfkyeRm8NCc9bsLBp/z5y4xppaXOcSTkSGW/W+Jf5MGkx8VXbPif9dinWSmv00IYhibGt2CxxXnl99yiEjDUyKAfDKDy51dC089tUQ0T5eFOGIqBk1tMkOZt09wPDvNvUf/pcwQtrUwIi8v1MRX6mMj9jntL/nI8xLWJa+ZqX2/b/SEpLSWc7cQ0RDyxIocjgeJ6D4CzmX8M6BHG7GcwKoauAMWVYdKlD6IGDa/AyWmEFqh6wHBygw0sxa2kNMsYrscTDyIomjPiNDCKOLOJMxI8gQNUeWggWmiTxArGCKUATG0IfK3hYWIxGPVouN9TWaWwS8m139+wuXr3yXHhoslJd5KutVBpLFPo8pSEtMsa2dk3n6ROktxPqMXV09J06fyRykkVtKp/ApEXHV338GSKD1i7GMBx2X4Kv2HI6Ln9eS/sLkEFzR5wsuXW3aee3KcaIEh9jmp+pePYCkpJF+gYh8cDugoJ2xRVt27+0TJyerDRYFdoCX32RwlTIBGcGRCXHT89YvsLyzlvduZnkXjN4VO3DwEJGivHS/TJl3QNUVlgNDuUTseIS1hJFGiP5af15WIENV0or/cSAhIQPcQ9OJC0mz4jaLlUcRZ/byJwDfoR3oChCvELVPdj8QAwVihyL1mDx4PoAlwcS3lxOyPlubh5MSqp8973URYuTJ8VnBgfl6XQ2P3XROHW+rz7FV18wbU7zZ1+R8lLS3cG7hiHQ3t3Td+rCkYg4i9pUgcio3PZQZHiBg4p5yceMUmcE7A86G3tkAIsWeOj8zfrmnd8km0ILfXVJKn1+4nySlgHhNEhp5MA73ttL6mrtSeeuvP9+xpx55wLDsrQBFoU+lzHlGoIyg8LSImMKFiys2vjS7e2f2E+dIVU1pKERpIzDCXdAu52HcCTMdHCk0tIA8p4BMLHpAifk3eh3pHSliBA5C44LDCL9Dl5l0SOrbrIDzssswuuhnC26X3B1hMhzwOVC+RE8SQBAuxzEPkS6OsmdelJa7jxx+taH2yrWrC2a/5Q5ZlKWISRHG2DWGLNV+hRdYFJITOrMedff324/l0wuX4dKhG4WS78Q0tk/fCrlaNhEyjNSY+Irtn2GtokUeAOwQgdErUNmGTDuogOR6iMPwsPIZ2OMDGwQ1j5xOcjNWy079yT5B9n81OfUWvO8OSQ9HZABlATXJsbRhoi7a/BS2fVffqx87bWyOfNKTEFFCnXFeGXNeNXFcX5VT/gWKdQlIRGXFj1ze+tbzd/s77qQ0l9aOXyzwdXV73FwkByJefeQNg3YQDIBRwfagHWPYWnZ3UyHR5I2onGHLmoYThEcFDhwN1ghQSBFV6zMimAbQQ7UwedANrFQxwOWs3tw+OGp1FvlEsiQg2tvH7p5daiksO/s6bbduxpfe/36gmdKgsPzfP1Kx/vUjFNdfVJ7cZy+YJyuMCC66KmlFVvfv/nLEfslrONGVy7hDhlw9/Yh58nU46ETrYyp1IdJiYkv3/4ZZPu5cHUndAEggbzUmzNQBYh2jPZzBAQPPBtjZODQ4pITl5PcutW0a3eSf2CBQnWBUefNSSRpqVAXkZINfHUs1tZywHr/tntCcXHb/v01L71knpWYHhSRyZhsIGsNRX6GPIU+xVdzThuQETe98NkXare8Xb/jm74T592WIlJVB5USm+8B5gaHoYqNwy2W36CiBzVXNG9oEUWR/DJfoLAQHSg43UaYB8wxXMsvFU/Dt3IVFmqI0X1SsEaXywNPH3CSjj5Sf49cvklKKtlsS++xE3d27Kp+7XXbM0vTY+OTDIHpSp1ZqS+EFe5as9Jg0YXkhsVlTU2o3byl7cBBrriK9AyBckr9HYh2N8V4Z8/QqXPHwqMtGkOZjyolNr4cfKDg6cJmY5wWWkl1MW+iy8D3EjLe348+H3Nk4NByHMjR27cadu1K8g8o8vVLUakKE2dDHmhPrzwvpcQDHGiWg9Kc/b2ktrrj6LHyV7eejJ56RhuS6RdgUwWVq4LK/PxL/Iy2CdrscZpMH0O2McISOyM/8emKNS/d2fbp0OETJK+Y3GggLe2krYN0dJK+XuDebgdU84JSb7QWDcp9WusPKpuP5DKIrEXar1Fe/gKtFVkIrXGDDALr+YFiy3lgUfKwA4qBdveR9i7S2ELqrpJsc++PP9949/3SF9YUzFtkjpuW4R+apNCm+2jyoCS+yaaCeim56oAUdeAJY9iZKbNLXnm95+RpcuUqKOkOHtgD1OIQQHsWW40aXE9H/9kThyPDLFpdma8qJXZS2b8/hYq2bgkZ2CdaclB0cIwSlKPp//B3Y40MOo6sALP29u0G5BlFvspUpao4AZHR2wuNQS86sDwcbY4TwGEB3NtNnAOkswPYgKXI/u3B8mfWpoVNSdeGZSpMZh99kcJQ5meq8DOVKmFrgVy1f7ohKDUkMiVu6tnpc07NeTpp+ar81968uueb9jNn7LZ8UldLGu6Q1hbSQUsH9wEJh+ygAjtozVcswgAFenETJDcLQ0wLxMrlYO0eMuSGLNy+IdI3AHve9PWS7k7IXGyo5y9eGjTntxw7Xbdzb/6WN5OWrbgwb0HyzNkpkyYnh0ZkBYRkq015jKlEHVCs8s9XGq0qUyZjTNOZ0kIik6Imlz3/Yu/+n0hJBWyr09VJhgehAdT2ojWgcKpDngoRoIBCd9vA+ROHIsPMiIzUiZOAZ0BEDdYEojUOPPlRyPhTLGPM80ApMjyE2Flys6Fx594kU3ChL5OiUhclJGDueC/LcZCLQSeipKYB2yYCyzkJ74RZ7nCAdLjVKNgqe49fuP353tKNW7LnP5M+aUZSYEQSY0j10+YwUH/eyugtjC5HY0zXByUbw1ICIjPDJpnjZ+UnLMh/arHtmedKVq6t3vTKjbfer//4k5avdnV+98PAocP2U2dcF5LZ1DQuPYPNzOQtuUK+heTnkfx8Yisg+YUkr4A329icPC7TwiZnsWfTnMfPDfx6tHP/j80799za/smlf71dvmlz0co1BYuXF8xbbJv9lHXKrKzIuGRTSIouIFMfmKMPyFWbLIzJqjLlKE0ZCuMFlSk5JDp18vSsRU+XbH65fs/untNnPYUlgAkoTe8CxzGUO0DlCPwdEr+iZWwF1GQ7OwfPnjkUHm7R6iFzJ3YkovZQZHiLkT+lY8Dk/Qt4BlW+hgVyvan5q31JplCbQpOs0hQmJJLUVNLX64F4gcQfafEiSU/E6t8uD66GBo0SWQvf7xi61dieX1J/7PSVHXsqX3u9ZOmyopmziiMii7W6Yh9F5RPjq5/0rR7P1EzQXRyvq31CW/Pf2qr/1pT+l6rwv1UF47UlTEClf0RV2MTquKk1MxNq5z9Vu2RJ7bKldc8tv7JiRd2q5y+tX1W7cc3lDWuvv7j++osbrr740uX1L11a+9LFNS9dWrmhbtnaK8+svrzoudq5i6umzymPm1YSEVvsH1rIGAvHM2X/7VfzX34Xn1BefFJ5cZzq4jimZpy6ery6cpy69El14ThNiTq4LDS+ctr8qmdX1m1588aOHY3HD3fZcpz11/ihHo53Y6l5SS+HTHpJLwbrC/PdBJSGLAfKREfP0OkLh8KirBpDBSKjcjuNtbpRkONS4ft4xuOCDBpVs/PkeiMiI9ym0CaptEUJcyCy2ttPrVrqCADOgVkmlHdgwSpQCmA8MKkL4gosMnyHi/T0kVu3ueLi/vPnW77bf/W990pXr7HOX2CeMiM3Nj49NCLVPyhd45+jNFlVATYmwKbyz1P5W1Umi8po9jNYlAbY3YLRpjKaJEZ9jmHOq1RJKtV5hjnDqE+rNWfV2nOM9hyjO8voTqt0p1X60yrDWaUhSWlM8TOkKvSpCl2anzZdqcti9Ga1MU9tLGCMRUpjqcpUwBhzVbp0lS5N558eEJoZFp0dOzl3WkL+/MXlK9ffePuDzv0HXBdSSHEJuX2L9HSiB89OOCfElLEmE9VsIA4gmZtoGoFgA4sHykdgZdvO/qEzKYfCYq1qY4WPKj1mUhVFhssj2apg+9GVbqPiq974eLh6IX8z1jyD3pgnoENdb2z6cl+Sf4RNoU9S6otmzyUp6M/AMQBIiNwSMqShKDN1AYg1ooGBAivBXEisCYuV5D346rSDrtrZQe7UC0WlXcfPXP1yR/bGDacXzjsWN+lkSGRScFRGcFSGf3iaPjhNG5Cp8c9Vm/LVJhvQUm9T6/I1unyNpkCtKWY0xVB2UlfEmIoZUwkoBKYixlCo0hcxhmI1fFKmNpUoDQW+2nxfjU1lsDIGq8Zk1phyNKZcbUAmY8o1hmYER54NjTgcFn5o0qTTCxda/7H56s4dPadPk4oKcuMmudcKDXYME7cTF/3SMuioGoNJDDXc5BLXopyFT3isoI57BYLXBG3irqGhsxmHQiZaVMbK8ar06ElVNA+U7nBA/byPQIZM+T86GWNkiFJMwNWLN+42fgXIKFKaUlXG4lnzSFI6FL7Euh+iPAHDFTQmWJsEPkZUQ9EZgadYMhoWvkql49GzyQkc7KPFojNxyA4aSVs7aaont66QijKSnsX9drR3597bW9+pWP1i/uJlBU8tLp6zwDZ5pjUm3ho50RwelRkUkh4QmGEwZWkN2RpjjiYg1Vef7KNNUehTlfpUlS5VqU1VAnvIVBuztKYcQ6A5ICw/LKYwdkp+3LS8KTPzZiTkJ84vXPhM3dqXGt/8oGfXN55jJ0huLrlYTW5dJ431pL2F9HbB7gvOYfBqAx+E7b+wkyhMqb8E96IAAUK9U/AhSBNcHcDTfRXcwDZBK4X/HQO9J1MOhcVZ1f6VE9SZsZNr/k2j8Lj8FRYNw7Woz8PMg38yt/gjNHh/P+bIwGURhIXJcfvO3d37kkzhpQpjhtJYOnM+Sc4k3QPQbdwVAMWKZHgL1KcsaqbU2UBDaNAxKnpHORYxQAD7brqxKKALDFSnHVzOHV2wPcrNW+RSnVBewRYUenItjgupjlPn+g4dbfv+x8a9+27v2nPt8y+ufLz9yrsfXHrznZo33qra8q/yLW+WvLa16JUtZa9vLX/9jaqtb156652rH3x47ePtNz/9vH7Hrua9+9p/+KnntyPDZ8570rM4i5WzFZGyGqgIcrOBNLaSzi7Y8c85TFzDxD1MOCcc1GYGKNNNX6XuQL9oNEMiHp0ZGIZFdyHnxqWtKEjA6w6Tqquv70zS4cg4qzagfAKTHju56pPPMXcc15vADWnsBmwZQIYMC4SJOHW9IfCQ8zFHBo+WuJOww3zD7cZ9+5NNYeUT9JkKQ/mM+RBR6x2CxtEKmDhT0F9HFVJ06ICvWRw74Cs0dEWRQX0O1BkuYoXH3chc6KaEWBZ1VeKFMELgqufRU9I3QLr7+PZOZ3PLUH3DwO07vddvwIaa1Zd6K6q7yyq6yyvay8uby0uby0ruVZS1lZd2VJT1Vlf21V7svVLXd+PqwO2bQw13HE1NbDtuqmh3EI9bwLrItPIpbN0iuV5RiYaSe1iVEF0poCWgY5TWuJACPiLlxO7Q1FAx9If7a4CDFfULVECgHF5v//kLByOizVpTyQQmNXZK1adfgnfcRdeoicigoAOiPybIQJJiHqPHwTfWN33/Q5J/WOkEXYZCXzp9LjmTQrr7ZTxgoylDQNzSOQTzBk1YxATVxgD89EJZUx1BDRRGxQAsrDzwQFgW+aksuSG8QgsuYoRVHGqslQg1r9GBAfvZwLo6dJ6ywIScTmRFuFESLEmXDvFWuB8CWBXAuCmtAc8YNBIwrIcJ/lRRoPWPcWzk9svBXdpDsZ+Q3wWLbOidUD8H9RQ3Y4ARcPOkvdtx4syhoIhcjanQV5MSP73yi13gHcfG4Fygz8C2eCMDfo9D/hAmcd/HY8wz8NGYvsY6+ea7TT/8eCEwvMRXn6k0Fk6eNXjgV9LRCSvS6CjBCFIGKrIJTPQUp7rcDZEBitin6odIJwCFtFoPhh+nLMQ5MHjA8zzrYaGEFQQdwJcGui5N18apBRF6Gjvz0JroqOJBui7uV0UzKKR6FrgvDvIg6t2neby4e6aoEnG4u4YYjgfC0LbRkI3IKajz+vfMD6kmJfqhJULD9HRhEX0i5DYI5Hbz0PcHTwREmDUBNqU+aersih17oLKKC6JGYMqNOIu85IeECnEw70PBg96ONTJgZtM56nE1N97Y//3pgLBiP0MuE5AXHn/97Q9h/20YMtFZzcEGapw4gqiDIWbElsqcQrTjxN/RXSNEANF1nOL6NlTRwOiFEaITBOUU8g9YOwxhT16sjY97+yHHhrkJaKXEdoEOCGJeEFw0U9PFQ6zMJUC1IDf6XuhTXXhzmOIQchMfQnkeNh3iwLi7jpwKjgvzsIuyfBS5BXi+cbcc3GWQ+sMhrCTeGKaOh8BGFpV17R99ft4/3KoLNKv0J+On2z7fARuguAERyFxFyYT9l7gEfAFP+o8igzqvPMJAc1P1vv2HA8NsSmMeE1hgiCx6djWpvgT+Tc7jFnCMYVUVzGnqtkCQjwBY0jHo9EH5QXVXcP7C9AUdFslNZ6gYB0E9H5aD0lIMAsdxuH0b54LwfdcAuXaXVF4ld1rB88jZCZQpBqcBwoEQD8xQN3FBDTHBCVptSwepvUUu3SZ3O8FN7qFSS8xlR2Ua+D/8nrZGVnYkqsuqM0Z/MSWAZsRLhEMYQ+F+1FHRMqG/oUoVwAJ1KLuTTcu8smpdstaUp/PPYnS/xcZnbfuU1umitR5hPESmLA4RDtR/HBmoUlPfTFdLa/G+/T8HRZiVxkJVcJkyLCduTsvBE57We8QDIh0EtCiIUbGQxlGCBqAFp5GH6vSYkYEptRT58iuihAaeUUXB8RaRwcLqQMEBEqK/o7+k9O73v11897OaLR/d/HBH88mTg9eriKefJfwwagnwQM7NgYoxLAj99u76+szkK1/tufbGtrp/fXL3y+97krNJ2z2WHfaga8KF9jRN5xrJz6WCXiYqNA8IgwlBdKs+eAQLdoeYXEJhRZOOKMoBaVSRpqtH0A7lmhvv7v26YPKULI02X2fI0Oh/nhiftu0TCPBiBTfqKhqFDHFUHx9ksKSttSN3/49fhU08pQ/L1YWVKgKyTJGl6ze7c/NgSxuoMo4509J8Qw1JQoXIPWh/RM5LN6ehLFG6Dv+OQESag9LPkaHADnXEPtBtNZe8/d75+JlH9SFnDOGnjRGpCxZf270T9g93OqGcKkg1AfY2BMbtIvca2s+dTF6x4khozFl96ClT2PnIuKwVK9vPnCEtTQhusaItHXxoCm2J2F4kLZxjK2hemPwGwAJgxpxx8aeU23pXQaWmJ/TGA4HovrSU8nUbsvWBuZrATEP4cWPE11Nmn/r8K+KBnEZIDaFtgIbQeCV+RFslPZHidNQAPujNWOsZXluyNt/rSfr+4Jvh8d8FT0wxRRT76qwqQ2pI1L1tn5GKGprRCnvd4YzHrkhS0JvSdJTp+IrzSMyhouMtdopCiGq2cBtRLovz2OkirW3WV18/Ghye6aex+ajLlYZSpfG80pAaP6Pl2wOwCZ6o7IDlDJox6+pNSy9ctvKoQpurMpaqDIVqnVnld1ynSXp6sdtsIYOQtuiSiXFfm4FtoBFO2y9/6w11UZ110zAqxMsE4LZ0tz4RqKB8oPpj7yN11ZfefjMjdrLV19/MRFwwTf7WNOXjaU/9umM3usngOmkExd7A4EiwxSdTxooD9CA0eH821sigi9RQ4jW1D5z55eSGuDnvh009FBRbqAsuNQSlq3T5k2d0fP09aWiH7aLANgCVFEqC4n8YUnwHn8vyWeyeOMBU/5CkKHaHfiNOUPgjbxgC9+kfFnLyMxc8e1alr/Rlrvmqr0xQ1vmoC/0MWbrQlPlLyd1W8VngEgHNQejrvfX1t5khE60KQ6Wvtm6C6qKvolIxPlPN/BYQ3P7dz5Ddzgku6k7yJvyoloxCLzT0PmTAtJAW5wl0UTw0BDQW2F9RAFbAOYhniNy7e2P7B1mT49M0AcXKELNx8m+Bs7YFJ74+a8n+3d+AqMFgiRiNEwURPA3+IwdFiAIy/kM8Q2oKR0hD++Chg+eXTH9mbexTX4XPuGCKzNEFmhmdWWe0zX26dfcB0twNSjU4dOmG3x7cWFVM9AafKK25Qpf5jfRROhP7TCcDtU6QiWJhTBbq01BPl0A6e9u+P5gxdW66ylir0FzxUV3xU19UMGUqk1UVdCRqKrl2B6Y4MHzqoGWHbt+8+OG2TFN4sdJ0UaG/6quuUyhrFD5Wje6Q2v/utl3g9xxh39SXIYoN0YklSjLgXtTuoSeSUS6iCZ+I235haivuM4uZfXQy8DxEW25cadqzM3fq1HytIU9lKlCFnDXFfxWasClq/vq5y7/++jvaEBEWEg5GjDecQ168w5s1PPR8rHkGEAPsNjchd9qHvz+UOi1xdeK0FW/EzP8pKD4jIBLWUPgqcvRBxYlL2/f8yNdcJgP9MC3IMAfOJtjmBColw+FhwbHnxgAJYIeqdMAKKYumr0BL2IiTepbgKtBgwP+I+yuhm6ijZ/jAYdvkubl+hsu+6roJfnUqplrJlCl0BROMZ6OnkxsNHOzfyruo44p38Q23r3+0LVcfUq401vpqr/mqL/soa319C9WGY77Gjo/2kJpboENDQMNNYDNFJw+tBXCjXo1gl5JBcR9AGlDnPNBUtwCCSNqXA3Z8GhDIAE+GIKuVd2NvkHP0D9nLym7s2pE9e3aBRn95nLLcz2hVh/4SEP9m1Nyn459+duHKHd/8CHtPUQkqMVdEJ5XTQHtxqKR5+1A4eH0x9sigM9pDyJ2Owe8Pp0xNWD1z6gtrYp/+NG5h2rwVaUHRFsaQwRjT9SHp8TPqt33CZmeTu3eIox9CDOCKAB8A9AQVEB5qNXE0uYlqESJDFqccSiK0KNBpRnPFwL+I2Zs4S3kOrNP8wpxnnjur8y9Vait9VVV+6gpGm83okk0hmSvXkdZ2CHXDo3lMr3OTwe7bP/yQHDc1Qx1QojDVTTDW+OrLFbpMXdCvQTHtB46Su23wA0gmYNFNRs1KMfyN+YQit6DEou1FtxngHoMo6KsFoONU4pw8WPKYk+xxQfylucWelVP37vvpU6edZ7QFjL7UT28Jjz875akPoxNfmLxk2vTl859e99U3B6GKO0UGzhuq4FBni5coQbKLjNYLAg85HXNkYBtRa6rvHPzxWPrU2WumTl69MG7ZWws3lW3bnzV3RaZ/VLbaZINELG2af8DVNasdJ0+QxkbYkZX6KVAmsFBdCPoFs5mnhYfRUqfxeVFiQtANPQrwHueIrJuIjlbwYbnspLu94N23TsbE5Kp1Bb5MkQ9TpNJd8A9IfWpu/cFfSH+/E3kSjiMPKRGCo9uSY9248Yg+2OIXUvNkcJlPcIFf0Dn/qLTn1w/bSiApV4ySUDeKPC1HjJBR7I3KEoQJJpqLueZOtE9AMKG+AVOfdUOE9tZ156lT5avWpIeEW3yZYqU2z0dtNYQUr9iY/PrHq6c9M2vWC2EJa2Y98/KX+44AMqhQRcVlxPNGg7YSzwAM/EeRAWDlCLnbMfDzsfQps9fGT1k3M/6FV1e+d+dCyeCRtLzFK8+ZQnIYdb6asapUZoMxd+6Cuk93koo60muHxA5gzDh5WFzLAbMSOi4pAZjpIkadoGokuI+oUgouInCL3a/4Qa3BIXd5cflb/zoSGPLzeMVRhfo3hfr8nLk39u2BiLnLBcwdKlqAdMbmu0lXW39aatryVT8rgs4+GXRsQsAxbVj6kucdWWbS2Uncbo4HuSVyMnnQsaFUzRMF/32KBraPekWd6NgETIDDBRdHOHnS2ydUlNR+/GHm7IRM/2CL2lDmp89njBfUprJnX+g9euFiUt78hOcnzlkfOGfjzGdf2bH3GOpIQHXqMpHSixGGCAUqgf+zyEDSIIJb2vp/OZw2edbaSTM2Tpm8+qVVH17Lu0ZudQxnmKtffzMpKuoCw+RptIWMJlcfmhM5u/Dptbc++opYi8ndFkgxdzoIz7pw3wNR1RPZAdVkkEcA80fWQmcsDrqk6AE6RbELa/M9sPDp8pXhtLTGH3++vntv28EjdouN3L4L1UtYsAQkO1NgWQ/UN3E6SHsbX1bZd/xC864f7n7zY/+pc0J5BSQbu+wws0HKob7nBQuKCbrqzK77iwAAIABJREFUBUI08nvpI3gKhngQQgQylpw8sQuk30Mau9hM243tn1mWLM6IickxBNhUhlyVfwYTdC5sUu0b7zgyc0lDZ7m5ZvactbFzXgpJ2JS45NWv9xyDrgIs6AI9cAyC1ktZLiKDyhQRGQ8RH/d9PMbSBHGBNpRA2lv7D/6WNnnW+omzXp44dd3q1dvKS+o9dkL6BoYtlhvvv2edMcOqN1T4MlXjDDX/FVQ4IawwYsbVtZva9+4bzsny3LzCDnU7wB0J+ixSDqcYKKJ0cFGiyAopVSrQCpSDWPRaGCKqvrI8GR5ytLX13W30dPVAGrMc84Tlrjw6E3DDU4y/gR7scpO+fldDo7O5CWuLYQ4zlFyjy0xEtzjl0tAWmkqA6iUrhgypUYk6BtBOXF2HQOQg57urz3Pljj2rsHX3T7VrXs2PnWZRMsU+ftUT1FXjtfmGqKLZS69+8MVwUTnfN8C7iLXw2tR5G2PmbA6ftXneotf27zwGSEBOjdq6R3R6SbNFnB8UIvfR/+Fv/4+E+Ydf8j/8hnJynpCWtt6fj6TFJ6yPnfVy7NS1q1Z/XFZyh3UQiGj3dJPKsoY9u4ueW5ETFZetDcn3DcxXBOYo/ZPVxtypM2pffrlx947+5HNcTTlpbSJDgxgTx3x/rNFOAxQj2x7IdiF4hlGzQ4YBBBvFzKnJgk5tWP4qagqou9PMMoxZiGhDIsM482AhUbMDouQYhaGZZqwHYYryG19kvoboRcGG7kgM06GhBKlouGBpcJg0NpHqavvZC82f76pdvzknflaqISSDMeQxWjOjT1ObrLEzKtZsbtr3K6m+BqF2DwgwS9G1qXPXxyVsip6xacHCV/bvPEJ1FEwHoSU4IP9rxCDxYhuSK+iPiQrIGHNw0F1a7nZ0HziWOjFxXdTMTTFT165eu62s5DbYH6wHLEqPnXS0ObNyKrf8K3XKrDRdkJUxlqgMZQqNVcFkMZqMkJCC+XNvvbXVc/IouVgJ2kBvN6x79ngAFmh+iElwFBbgpIJ5iVMSxQh1a8qBTpDGNGQp7QsMOgn2H7gKWAg04kUZgDiyIrAQN6LgAotagHxu5ByiWAFVB21FhCLeC+YxPgGfinuhw4IJO+nuAd9a7eXhEyevvvlm8bynbIFhFj9NgZ+62I8pZLQ2jT7NP+RU7JTLH3zmMheRtj4I82JeEMsSc/HVKXPWTJ69cdL0jU8v/Mf+nYeo/YvghTX+QFAKbhkTIplh2lDn3B9CY6yRITWFJaSho+vA8eTYxLVRszbGTFuzau1HpSW3WCeBXdZgo0EO1tUMDpLme+7TZ8rWrjsTHJquNVj9NDaVrogxWNX6HJ0xzT/gXFRk0tzEwi2v2lOTyfVrpKODDA6B78PFgYvdhYwEtrQVfR+YpYOZGKwHE3OkQDbQDojKETfHu3gg7UjMFnMDYO6BdTB6WMXljxJ/EVOXgRp4QKwY948E9QH1HgjLc6BE0x1JXLiOzeUggwOkvZ3U1XWeOmvb+u6hmYknJ066EBKarTcW+TFFvsoilTpPrUnXGzKiYsrWrCeZZlLfAiugwGFO4y/QoZyiy5MTV0+evWHS9BcXLnp53+6DYNOBu9CNCWDQA7kLoqYFdAH4UzsObb4/wMZfgAwUb7xAmtq7fjp2YeKclVGz10VPW7ly3YelpTddw2DMY5jbw7GYSO2wk9ZmrrK059jRyn++Yp2zICUkOlnln40LAmwqSNHOMAakhUdlzpiZt3R57etb2/Z+yyalktJych3TsgdQXQWs0GQPcCqgWwCj9VjknJa+p44S1M6kyUOhjG2mkgcmHMx0mZ3Imh2oOxKaULuFMimSogfEQK5BSyu53bCyaGiYtLaSa9dJcYn7fFLb1/su/vO1giXLcqYnZERNSg8MyzQEZaoNWYwuV61N0+qSg0LMCXOubH1z4NhRUl0NCa0OF6yjB/Ch7sSzTpZYiq5On//ipMQNMTPXz1u8ac/Xv6BU5Flq0aEuShmeV/IKVYFoqhQ09A9wQchfgAzKfnnS0tb1y7HzcXNWRM1eFT19xcr175eU3nA5YNBxOwbOibtIugXwdbK8Xei8N1RYeO+ng9feeL9iwfOFYdPyJ/hXPmmonqCv9tGW+ajzJyitSk1hUFj11Jm1zyy7/upr9V9+0fDrgfrkU+1FeQN1Vz1NHZAri8jzQL42R/P2pVWtiAI6RHRbXVnPoG3GmQlDRnV8yAsUBI7DGq5uD1hJwCggj4yyZPqX+hLobT0ecI00NfbXXuzIt7YlnW/66cCtf//76uZX6pY8Vz11drF/WKFCWzReWTFBVe2nK/PR5o9jctT6vOjoimefvf7mW90HD7mKi0hrM9g+CAeQDuAkhU2geeICZIAGuj52zosRCesSntm4Y99PKB1hIypgj1TWItapgxYtO9B/0KYdCd8+GhxjjQyZj/GkrbXn4JGkSYkvRCasiZi5YvmG92wVN+xQgQ7Gla4kAf8mD7n26A33QPZlU7NQVN5z5MyND74oWf6iZfJT6UFxaZqQLHWgmfG3MMYclT5Dqbmg0qSGhGVOmZI5d0728qUl/3zl+vYvWvb93HfsrCsti7XmC6Vl5HIdaagn7fdAQRkeAivU6YJMT4cbUl3seAKcRjrEFa1uSEN3DcP1sAW3nbgGiGcAcsFduCO33QErY/uHSdcgae0kt+tJbS0pKeHMFldqav+xYy379l376MOyl1/OW7o0N2FOZsykdFNohtKUrTBagRH656iMmSpDsjYgOTg6a8a8gtXr6rZv6zpxnJSVk7ZO4DROB+IbVxzAgKGiAr4x1sMSa8GVKYlrYua8GJawfvazL32172cKWXS6464XCAsxMw3QTH1xIJNE4fJoUOC3Y4wMKqBB0PGks7n30OGUSQmrwhPWhs5asWTTu7nV1/s5SNKkrJzneY8bI2rgX0YjAlUB4J/DDqjoVXbpxp6fsl/YfH7yU2kR0zONkfn60HyNf55Sk6dU2zT6XKU6Q6FK82PStaasgIiMoNis8HjrpNllTz1748XNHR/92/HDT8L5c8ScSyorSN0lcu0GuVlP7jSShhbSeI+0tEH2YVs7uCg62kEJaO+E185W0tkEC0butYJl1HqHtNwkDTfJzZtwh8vXSE0dKaoiWUXs6ZT+fftb3n/n8vq1xU/NN8fH50REmkNCzQGBuTp9tkJlnqAqVujLFaaKCabiCf6F6lCrISIjMDo5ctK56XOy1266c+A3d0UV6W4njiEwf6geDUYXuEponBCmEmxPCaKMZUl+weWpc9ZEz90Qkrhh5rMvf7nvV3HwqJok04Dq6ZhhjOa4mPP6J1ABl/yVyGjpPnQ4OT5hVUTCutBZK5ds+iC36mavCyqVoI4kaUnA2MUxoBlhgHHIkOCJ3QNbeDZ3k4prrp9PVK7ZXDh3Se6k6amBoecZbZKfOkdrKDAEFusCbYwxjzHlqQPy1YE2JtDCBGYypiTGeFxr/NVoOhAYtDco5NuYib/OnHN6yXOZazfZXn2z/N2PLm7/rO6LHVd3767/4bu7Px5o+fmX9l8OtR881Hrw57s/fXd73zfXd+y+/Nnn1dveL39/a9GWV3LXrk9a9MyxqTN/jZz4Q1D0d8aon/Uhp02BKQZDhl6fq9Vb1FqrkslXMAVKdTGjK4a1boY8hSHb15Cp8M80ReXEzrLMfebSP7YO/3yIXLxCWjphAY7dDuWECe9kQRDC6LAcpDLTyYLjhB5gVuA4t4vk51+ePnddzJyXwhI2zn7mHzu++Y1qqKAiUxWCggN1CdS8IOKIejje6491jL8AGSIeUaC332v/7cj5+IRVkbNejJi+dtmL/7aV33U4pcZRwUeXiIAbC/pEDU7EOnolYKERC/yjuw/W+Vy8zJrzuo4ev/7ljtJXt9ieX5WVMO98aMxpxv+snz5JqUtn9GbGWKAyFan8C1VGm1JvUelz1LosNcTwMiEPKjQrICorOCYrPDYzcmJ21MTc6NjcmInmuEm5cfHmiVOssdMtcdNzJk3Njp+cGzvVHDU9N3pyVnRMRlR4VnhEdlBEtikkS+efiTfMYAKy1QEWxpin0tMjnzHkw/p3Y6bSkKTQnVbq08InmmfPL3huVcWrW69/ubP75BnWVkguXSF3m0nPAOR8Q/kU0SEHKgB43kR9QEDHnlvmp8hGXG6Sl39l+pwX4xI2Rc7aNHfxK3v2HAZpA0MIyBDpjiRAS0te5SKFdv+cRBljnoHto60U7rW3/Hr0zKSEldEzN0ZN3fD82i+LS1rQ04XRIy/tD3cyhrg54Bp8CtQxyfK8G3wUgocHswA+5x3Drva2wRvX+0tK+1IzOn861PzJrvpX372+auPFhYuL4ydbTUG5PozlCb+CJ/1Kn/QrH+dXOU5xcZzy6pPq609orj6hqXtCc3GcunI8UzFBWTXO9+IT42tgKf2Eqid9qp9Q1vy3uuoJdfk4Vek4VcUT2pr/MlQ/oauYoCqd4FM+TlH9pKp2nOryeOXl8YracX4145SV45jSJ5nCJ9XWJ1TZT6qyfXX5pojKibOuzF9Wv2pT45Z37n2xu/PXQ11pad3lJX23rjp72jm3HTRLUHIlHg9J80guGrgFJoqmMSIDNE+M5lNnv9NDrPlXZiRuiJ+9OXb65qcWvfbNrqOitY3KpbeZilih/hyqioziQo8WK2ONDFCX6EHa7nUePJIcn7AuaubLkdNefG79p4Vld90uAsqmWLMG4xx4uehiQm0LE1wBOByuKkJPODUD0JiE/GoP6JK9/aS5jVyvJ+W1JMsyeOJk0zd76957v2zTy0Ur1xQtW2FbuNiSMDdr8vTMmElZYbFZgVFZ/uFZ/uHZ/mGZpuBMU1COIdCi97foTGY8LNoAqzbYogvO0QVm6wJztMFmTViuPjTbPyTdFJhmDEwzhWQEhWWEhqeFhaZGRKTHxmZOnZGTuMCyaLlt2aqi1RsrXn7tyjsft+z61n70NMnOI1WXoERMaxsUY3FBxjx2nC6yQV8xzRqGgCDSnbobRlLgAS+iG086cXiIxXZ5euK6+NmbYma89NTiV/d+fYxqqnTkRzgCsA3kQuJMQ+VU5CWPRgVKkz++5H92BfU7AuNqb+07eDgjPuGlqJn/jJi+ftmL22zltxxuiG5Jh1sArQP430h/xFP0QogBM/TR0C5R45DaX2JiOWbMgH3hgtF3DJG+btJYz9dU9edk3T16tHb318UffGT+52vZ6zdkr1qTu2KledmKrEVLsucvyp270JK4wDxrbs6MhJzps7OnzoJj2mw4ps/OmTHHPGt+buLCnHlPZy1YnPH0sxlLn8tYuTJ93ZrUl9Zlbdlc8PE7Nd/svnPyZGdOHltzmTTdg6I8w06wepxuMHmglA8tQQnIxviaGBaWViBQCxhiNshI0WlBPbOSv1+MHSMyIEeIJZaCy1MT10xK2BA9c8P8Z179et9xWEsvjg8+Bt+JdIOJKtkq/xNSjnFEbUSwCaStue+nn1MnJ2yKmvXP8Glrn13/QV7ZtWEXy/NOAQww5G+YQECrqEtopiChw0hfRTYkOpNkriT9AFxREOJA7Qt0FQ/xOBEldrAA+wfAG93dAzbI3bvk2jVSVU0KimBHt4xc4UK688TZocPHB3470n/wcN+vh/p+PdT/6+HBQ0ftx066T51jz6dwKRkkN4+UlJPaS+CEbWyAvUX7Okl/J6DQjtXgYZGAtCISnPSU5OKMpxE+qmeLCQPYC2q9I+eUuQMq6FSFlBRzjJaJ2EFk1M2YuzYuYf3ExJcSFr382Vfg6QLqo4oBhS4xcuylcMizSsTPn0HI2CNDSoEmba19vxxMm5L4UvTszeFTVy9d935x1R2nGxVNGDcaeoP+QB4VraMCLReRATqp+O/hyJC6KN9MvAGkdEmrVejaDjcL89juAM96/wAUaenuhZTx9i6oWXvvHhqo94Dzt+DR2o4GbQfYsR1dpKsHqhL2D0Cq1bAdZBl1foA7hJb2kl4RFiAVsSeU4NSRBgJDgjX2Uu6eNOPhR1SdoOMjExu0LXoTB+gZtTPnrZ2U8GL0rBfnLvnHzr1H0MilrlvAA04RuBf8A1Q8BsjAFAEIYPCEtLZ0/3wwOX72uomJm6NmrF627r2iiluQIeM9ZggDAcQvqA+oiMmsTwKGPJq0z9JbSQvH7tMpSCNYqLN4PwUYspS6Ier+NFYuRczdUM1TTLKi6xQxnCpa01jYA8udA2FHE1xckCevpR4JxAA/kLzxNJWIwgJJRQdBUjVoj0fIR8N+1GCBkC2yFpH9OD0k33Zp5pw1k2avj5m1Ye7if+z8+ggYuDDjsJGPLTJY0A89LCEtLT2/HEqZnLAuLvHlmBmrl69711Z6zQm5ntJBpweMNtQaYmkwceRrGRmSnoEzQFRwAQrirKBzYxTNKN8RCYK8HdNKR2YwSh+odA8lgGEzVFQOoQWw6ANjYfKSUuqohb1IaIoqBYcUBMBJTmlMAYgYxLZjgg4iQULzCCzgJhTIXtOBggNGgFrzsN6ZWvKisBFAe8kvqJuRuDpu9rrY2RvnPfOKjAyEEDwJtqtE7D1GPANVYc6NFnpbe/+RE1nT522Mnvli1LQXnlv3ttlWa7dLfi0JH6hviZsGeg0S0Pa+fxQBiAzxGxET8hfiWKMvhPrfaTgU6iewdJMDNHJk9AmU6qLR6DWTvWxqCGRivrGHFVwc5waRjpa1aBFgS6Gx4J/jOFbeSNSrdUCoEekpgZiyA69OS1BHhwYYr8hKARw06YQVIMRmsdbOSFwNPGP2hgXLtnzz3SmoZEUfgaMjIxJaQD8XISn98Wraw07HWM/A2Q/2BiuQjo7Bc8mFkxPWR8/cEDV95eIX3jidlAfIwDknOWdgnIGg4shJeAHaYZ+80EH7IH8wuktS0QoxX5iSjhZMwCwKSKvj3CzrxsrFXo9BikFrpOA1PBbbKCoqoAPRZc2YwwNmABgA/0977+HdxLX9i/9Lv3fvDdiqli1pRsU2YHDBVVYvrhRTTO+dYFpCgqkhtBA6gRCa6d0GY4qNwQ33bnXNe3vvmZEMSe76fhf3++Ctn5eWPBqNZs45+3N2P/sQrZCW9AtqWGyrolyNYEHCCK+mzkHnSSngu4udxudjggf/XOIcxNV6+gMnTt5U681KvWOixpKWM+u7H3+FBbI4WjSbeDzw44WgxOeNOx/b0D87/uzIoOkE+l9ra98P1adUeruEcSn0DmNGaeXybd19oyQOcEN4pAA/rmI/YqjG90eYSnjJXyADqIkSBr+n/GFeNPMeRmL/pO/zzJrX98idAAAIh1BoIJ34duKUxut5+FD7SBoAg+BlYyQEXJz3+/NDLTY8igYe8NhY4aeERPEa6iafjwFxMVzGEsBlLFzdy9YN3/6sYi0KnUPC2PVpnnWb9pGeQWiLAOdCp7I4orxsgdbQQ/jm/e2/z48MkoiRCNfW2v/D7lMqgyNO65LpnEmpbpN7wbOX70Z9XpqCqG4LOh0fOyLXhjhkIhXGdeJPZifQOIZyqLuI6oxYomPEF27rHKp70fzwyctXTW09AyNUDgOTxTGxH2Ypn5kB67ED3Oho6N37D7XPXtU+f9Xc0jHiAxUK178AsxP5PDaUOIDQVJHSnx4AgahrUasFOUV0qhDSUajBKgfU3sI+jrt0/YmnfL1Ca1HoXRLGzkxyrloPVqswiWBsvkRpEkUlebr2nU00OCZonPGsS2ZwJWeVHvr1cmtXP2XbYfwH5T6hiTiq0EXUM6JMFjlzzADEXEbsEkUSnB33DX4ipaGr33vrfsPuA2dWrP1hwbKtG6r2Hzt9pe5Vixc1H0SPYD0g/wkEuLb2oYuX7m3b+fPyVTuXrdqx/fsjl648aO8ahpo8QFuAgmBl8o8VcPFxM8Z/5vVPVDSE/GHCCqpdgixFBQdAD1nqPo5r7R3+fv/ZyVkVcsahMHgkjF03xb12095YZOAQxDQGxkwct5jz0Yb++dFn5hnwEGE+dLb27dl7OtFgn8i4pIaSeH2x3OAomrP+9uNXA37MNQC7LoDZlDhpebZBLBixz6cTgJTm90FCnSRGZxO5i9A94en8nBRYUiDCXbv1fN7irVqjNS5h+jfyjHhVVlpO2cYdP7/9MIQF4CENjApaUGWUrl7/2Qt3cwpmKZNyJIrpcbJMldZUaF948uytDz1jgl3FP0eEsNCO8UjgKQLoJYNEVCMweYLOh6A+D6Skh3hzGTuHog7WQo6GuYs1j0rnfavUeRT6Erm+iGyTjVUHBWQgorEFhAWeHF8EMrBF5KfvbO2p3vNrgt4i0RfJU2ZIk2dI9G6ZrnDLD7/Uv+vxoofcj2tQYeLhlKfNvqOKGz/MOMMEFy8NLnJjcSrw4/Axw8CBIn70fyKWcxdtTmDyFFqLkrUrGLucsUo0eanZpdt2H+sfDQYjYX845If0PVBP/GHu/OV7ZteCf0rTlIw1SV+k0nkUWodCWzglq/jOw9eUMSoCIkoJERrR1tERkR/YDLk+BSUZ4AiiMBz0Q7DNB59gXR7mdlIZHgy39vu4Jet3qVNdE5OcSuMMub7460MGzaPO1q7qPb+oDOY41inRl8Try2WGUiljM6SXfPvDidcdw7jmlxQLHCUYIpzjhHo0A2nr75gJKDKJ6MAju+R3MoylELGPEMeN+COXax7nWGZJkrKVrEOp86gMJYnGEoXeLtOZ0vNKunpH0TqCTD7cdZnr7BvZUX2MnWKTMSa53iVli2W6Yrm+RKFzTFRl7j18oa17WGQbUQATvxsn0cR2gqiKhUVsqIy/FYgmCp1gMJYkLcZUuofClSu3GdLdCr1DoS+XMCUyfbGEtRunFX81PANrFMC862jpqN57PNFQGMfYpYYSiWGmRFcmZTwStTW9sPLb3adetw3Bqk4Y1xA6ISFkIFguUFBY1DTRWUDC5iNkiESh8megUBJLJYLQ6A94AweOnZuWVyLT5Ct1bgVbrNSXKfVlMp1zQlKeNrmgq2sE0ByCvfKoylVTa9farXsSUkwSvSVe55YYZ0oMM+L15RKd+38pMr7ddfTV+04QPVT0eRwUYmDMs3G+zYQMUeektolVRAWjmcrIUc1h0DNGvdyL1x07q0/o0xxynVmh98j1M8YhY8tXIU0gxo7SIMx9aOnct+/XRJ0pXmuTGYrkxjJlcqmCdSkYm5y1TjPN37bnzJMXbYOjVKYQpg1CARgHb9OOYx4iMsRZyMMC/1GMF5Nhxe8RdBGOG/YGj5++nFVQJtfkg1BgiuRMsUJXImPtcZpcQ5r1QychgwtjMCrEcS2dAxt3HFAlF0h1ZqneLTOWy4zlUkOZjHX+Qzrt+z0n37f1gxEDEYtYKMQ2SfwiKnM+0oKwgiBm6qCfHn/Ax3vABua4geHIg8dNW3YcnpJVrGDzFYAMl1xXItMVy/RFxDMgbsI/6gvWM8SecxGuq633wP7TKtYk0dhkOqd6cnl64TJ1sidR71DqHHKdk5niWbXpwM37r7oHfHxtEBpY6icek2sR6hUJShwexBJA+A2f3CAsC6GJiuDwByKPnr6xuSqV6nwV61ZqPTKNW6krljHWhGSLs3xpZ88YqTHg3sR8mhE/t+/IBWOGS8oUyA2ueNYj1RXJ9SVyxi5PzDlz9u7wEJ9TMQ4Z0XZRH2I5XPQ7ocWgXJEPjOCAXCQcQFd9IMJ19wdq7rxcvuZHY5pLps5R6S1yxsxOKUvJqlQaiuV6z1eGjCBuQBECadK7d+9pjcEmZxwyxpZuWlj144WM/LnaZJuCschYR4LBJdOYskwVR05dG/JjlJlcgqi+AydGDYI2RcbR5KcGP7IkbIjPgPlPYlnwFESRAXcKcdyaDbv0qTZ5YqFSY5er7XEq0zfKjGzb7D9uPR31o30IqRR4MRL9wdM3lcuq/r/41AmqHInWKtFaJyaaZOr8mXM21te3o+qMRtK4RlHTYiw00UYSvxEPoMngSwXeIyxl4yN0HDfg5Y6crMnMq5Am5ijZQnWyXakzKXWmmQu+W7v1lDq1WI7+DOO0Yoq1IkC/YJ6BPB1MrDDkZwzsqT6jNThkGsdEVV62bcG1e0019xvnLd6im+KWaCGTUaK2Khhben7F4rW7Ll590NkzHAigqgGBCiEuBP0F3VBwafBDGwMMkucADYDTOFLB7oiUXtnc1rv3p/NW1/LJGeXJacUZebPnL6s6dfF6z7CXrxYGdxS24otwI6Ohh09er1jzXa65IjWzZFJmSb5j4Yr11XUN7SOjgEOkp+CbEugtPJz3hws4RZjTNcIV0E5UbmCw8H7+CGQ1vu8aPP37vTmLt0/Kmq3SF6EZZZFq8pOSzcs37bt+/93Zy881qS653gmx1q8HGbTcE+ZoR+vwnupzSYxdrnVKEnNzrHNvPnzdPRi6ef/5qk37U6fP/SahUKpxyhm3nLWzU4scZcu27tx/48adjo7uIJr5pI3ytOZ5g0ABYCfiH4wwzTZyfov8At0GsKYviOt43rb2/3G9/tDRq9X7z588e+vek4a27u7xW+/RmkTeEzoyHHhe33z+4u2DR347cOS30xfv1r1sG8aSTUhqivdHmxQDy0+QEQsIUeiCDw6Bz4X9ocD7Dx2XbtzauOOAtWQFM7lUpvXImDKJxiXVWlOyyjbvOn6n7l3HAPfHzQZ1shXWqP0JMvjG0NPgAxyJz+ZnzbgW/8WHz+zpwmUBsNAuDMgY3Lv3nEprkWkdEnV+tnXetbsNIz5ueCzy4Gnzlu9/zTZXqliLirEptIUSdZ6SyZ+SWVQxf8Pufaeu36xrbO7xBQBhoGIgmxSyHfheAxMR1A9++gkzVDjNu5gRH/ymq2N+rrPH19Ix1D8UGgtwfv6mvDsFPQsx0T3MNxkeDn3oGunoHO4fAm8HpeZEOZNI5ig1iCDkSSFbRMAqmeXCJ9p/fGAk8PJt26Ub97/ff7x4zoqUrCKlzqJgHXLGI9N4tCnFhc6rcmm/AAAgAElEQVRl23482dDcN+iDwg5/3KhTG00KvS2esRsgc2cf1OemZgi8KaYteCh8Fv7/BRxiTn9mZEQpFOE6Wvv37TurYs0SrT1enZ9jq7xx79UY7uLiD3GtnWPHTl53eJZMnlakMViUjEnBmBVaq1xr1U0ushWt2Pr9L3cfv21819PdNzrqDQaDIayug0yB5AZSM5ZCdHocp4ERgxOk6hNF6J0wR0MKAyKgj7/hJzePPki8i4gJkfo08DBHERa0rwZiElUdxDKgLRzwB0e9wQ/9oy9bui7efLJh56EcxzzNZGu8NleqLVTqXQk6t0pXNClj3qx524+fut0zAItWofJ4gLt6/YnGUKDQ2+IAGZ4NW/bwtkm0M9RYguGXhAxoYYT70Nq/d//ZBECGLS4GGeDbwiLauCVDcNvOo9kFsxJ1JrmmQMHaZYxDztqkGtM/pNMmKKe6ypcfOv57/ev2ngE/lO8Tlmby4OYpAVIaDE7ar0AAPr80HdpCUf4ocYXfkXVAE008R0NJiIrRWmjcY64CIJIpHXMSAp1h2o4BGhsIBTCIT0gBFhjCHUu7er21L1oOHLtkKVmSYMj/JiEzTp0j15kSU2xKvUWqKVAwhZl58w4dv/W+3U+V6X3oNIfc8WuPNIYCeRQZ1X+GjFhxFlWGqKXCCP3d//8IzxCQMbB330fIeDnixRR6ypWOwEqc9i7/HzXP1357INs6X8qY4jSFUtYq19kkjDleU6BOdaZkleU5F81btmP3Txeu3q5vfN8/MAr1AGjSY4YbuKrJay68w3QRXIh4zOskMaxBJCeMjzj9eYaA94nOOdQFEGl0A7wbPJIPd9O98ASavbQvNNqfMNF9EaiKO+znXjX3X739cs+hSwuWfZdjqUxOL1MZnDKtRa61KnU2qSZXos7SpBaa3Qu2/3D8wdPmjm7fGIpUMQHQH+au3QJpItfbBZ7xtSGjo3Vg775zyDMgcwelyctRH1gYsFsMRjhpS4nuwXDtqw+nLz9a/93xLOdimdH6r6S8eMYi0dklrCOetUv1Tk1aaXrhQtfsTYvX7tm2+8TRk3/cfvi89UPPqA8qJcLanYiYGEdmICFDxIfAMHiVJYYZ8BKH39MGPRpQZ4EyitCC5j8K2Xz0kb8zuj8gMzBmdx0IjQLn57jhINfY3nf9/ovDp65t3X1ywapq54yNWeYl+mmzFKxLpnHL1R6FxiPXOCWJJoU2z1G2dPvuI5drHrx51zHiC2ExFXDvCpVGI6Mh7o+a2kQDIoN1oDT5qpABVmvrwN795xJYiwRyugpybAtu3Hs5BrtFgO4I8UwqpYn7jXgjXL+Xa3jfe+Ts9RWbqx0zVkzKKU2aZJfpzBLWLNFZ47SF8Vqz0mjXTHanTi/Pdy6cs6Rq885D+4+cP3nhxpWbj5++aH7b1ts96Bv2wwSFGjVosNBCDlGrEJUEOOAlBvAG4cWfEz4K/CYGSILPBaBGC0WoAvJYKDLkD3UPjb1t73lc//ZyzdPjZ2v2HL64fvvh2Uu2F7iXGtJL1JPcMihPZZGyVonWLNNaE/VOdlJxet680oqN67ccOH/5buP7rhEfblYCQhl8b1gHFyJsPi4yHOB+v1GXaDTL9I541mFI92zY8vUgA8gQ4drbRGQ4EBkLARk+ZPNICUyEjQRgJRrFkWAJip/jOgfGbtyv27hzf/HcNRnm2YbMYvUUt9xgj2csUp1DqrPHM9Z4rSVeU/ivhOw4dR471VNYtHz5hn0/7D9/8rf7N+69efis7dnrrsaWwZbO0Y4eb/eAr3fQNzDiH/L6R/yBsWDQFwr6w4EArDMWyheNl7mEFN4HBbIhEgyG/P6A1+sfHR0bHh4ZHBzq6xvo7O5r6ex909r1vLHt/rPGa3efn7x494cD5xat+rHAsVSb6pqQkDtBlS/VWqWM7ZvEApnOLtXZpHqrzGhNTHUY0ovz7YtmVm7Z/uOpB7UtoyQ4MHsZWCssHcHkZeSwiAwotfz7rReqZOvXjozzCTA5nHFJphzbwpp7r7ywEzF4/mIVAtxeC7NHUaUjTd8X5lq6Rs5evre2ar+jfIUx3SPR5E5Myo3XmKSsVaazSVl8wVjb47XmCaqcf0in/UuRoTKYMwoqimavX7hy18btR6p/unDi3K3frz+9ca/+fm3js9etTa09bd2D3YPewbHQSAC4iw+LOn307g1AOu6IlxscDvcO+Ns7h5vedb942fKk9s3te3WXr9w9ffbKT0fPbdyxr3LVVnv50sk5RQo29x+yqf+UZUxMyJWqLXKtA+NETgXrUEBAwCrRFsRpcuT6/NTcktLK9d/uOnzx+qN3H0YolYki+7zhKaouYJqDeUuqxmiY+/3mC5Xx/x1kFObYFtXce43IQJcm6oyQpw99DgVh2yxYoAEqNc7REOa4DQ4H2joH61+1Xal5+uP+U/OXVmUWzJRrc/+pSJ+ozovTFsZpzXGMVaoHcEgZs5y1yHVWhc6aYLCpU53sFI9+alFyeklGwZxc2wKzZ6m7fE353E1zFm2tXLZz8aoflq3ds3LDvjWbD67bcmhd1c/rq36Ggy2H1m45tGbzwdWbDqzYsG/xqh8ql+2sWFhVNmeDu3yVrWhpgb0yM39marqbmWTVTLIlTrKpUmxKo01hsMtYG5hXjEvBuOVap0LrjFcVTlDkTFBmKZi8XNucBSu37v759O+3Hz9/29Le1z8wNjYW4uPT6BFFV69g9gr+HBgsCsIOB7hL1+tVBsv/AzzDJtG44pLMObbFN+69HoOVSELAAPsLS90hTSUAKAEpT74AMg5ALEHily80ODDW0tpdV//22s3aoyevVe36Zdbi7Vn2RdppJTKjQ6KzSVibhLHCS2sBWaO1ULBDqrXKtDaFzpGgdyUZizQpJcykMt2Ucn3aTEPabOPUCmN6hTFjdnLm7JSsiuTMiuRMOKaXMWOWIX0mm1bOppUzU8o0k0uSUjyJyW6V0a3UO2SMNU5TGM9Y4uBljWfsEtYZr3VINE4Z41awHpXOY5gyo9Cxav6SXdt/OHny/O1rd+pqG5qaO7p6RobGwl4sPjeGxd74DT0BAKDaovuD4vRoGIOTH2XuaID7/atFBqZGgp7RjxqoLV7jilebc2xLbtwlZKBmxfsvSRnFkhHAMmBMeCtSZKei0oigCYVg+eD7tsGb914cO3191/7T67cfqly5s3T+hsLiJemFs1OyivXpbnaqS51qV+oLZdoCqaZAqjFJNIVSdaFUbZZprDKNTaaxSTV2SZJdkmSVaABPUgCTRaKxSDTm2Fe8mj7yX4kfpVqLjLEkGB1Jk1zatCJDRumk7FkZpnmFnhVl87csXlO9YdvhXXvPnLpw597jxvcdQ0LhRvRqoAuGfPqojoudFNwm9J9OY8QIjB/0dP1x/XmSwSLXO+I+sk1oxPjx++L8GehzQju/va1vD/gzgGfEqy05tqXX77z20upFIj/AIOpIiB7h2ZhLBJ0E1zWLDBaEEBrAQ2PhV80dNQ+e/XLh2vcHflmztXrR2u0VSze7Z6/Id85Pz585ObssJbPUMK1Ul1bMTCrSphZrUovVKSWJxmKlrkjBuhP0wAMUOnjRgVxnV+jsSr1DZXQlJrsTkz1JKUWaScVMWpluarl+2ozkzNmTsudNK6g0eVZ6KjbOXrJ9ybrq9dsP7Tp4+sSFmtuPXza19w5CgSHCAXi6BJqT+wT7TopulKIwBoIrRaRwhKADSx5wjdrVa3VqvVmBtol+mnv9lmooDEs3wYkl3BpuxT9WeITwnx/dv/n32T1dtNoMnHLtbX3Ve8+odHYZ64lLMmeZF964+4ZHBs8ZqGF8a+mfOHzCJWQ/UpqcYEviRSGo/AZWXZhK/CKz9XHcSJDrHgo0tfU9rm++fvf5hSsPfj1/q/qnc9t+/GXtloMLV35fPn+Ts3xVoWdpnn3RdEtlpmnu5KzSlHSPcarbkOYypLmMU93J0zyTMkum5szIMs0pdC2xFa/wzFw3a8HWxaur1289uqP63P6j146fvX/ucm3N/aanDZ1v20d7hiGoQbokLX5HUxkaKEL7Y3h8xCmAvqRokfFM5CaPMZayDIM1daPmuVpnUujsUr3LMM2zbvOP45BBg4T3+bKQQe6/MMe1t/bu3ns6QWeVsu44tTnbuqjmXuPHyCA4CCjgpwmP9ChIhGkE12GkHNkrLojjWYjomUIfAyx8D0RGfeHhseDAiL9ncKxn0NvVP9rePfiuo7extfPlu476t23P3rTWvn7/tOHdk+dvH9c2PaptfFTb+Li26Und26fP3tbWv3ve0NLwuuNVU+frpq7G5u7mlv7WjqEP3WNdff7egVD/UGRwJDI8CiaMn/b+FRI2sDlYQujjGLDQVXEexMZcEBnkuoXMAT5iSMjA7dUiEX+AuwHrWgvBTax3GdM967AeaJT5fsHIoNU8yDP2nUnQW+O0jolqU659Sc298TxDhIV4AP2joaIIA+9QoMq3GC7HrxEp/FiIl0eBJMxMZLG8wo9yHQq2R/z+iN8X8XkjvrGwdyzkHQt6vX6/zxfw+eg94PMF/P6A3x8M+CGSF/AH4TgA20Tz1TQF5sW3QWw/Zm1gF2gfN7ESEr/FM7ZIwD+Jz/HIQCZCKyMhA5+4DmqfqIpxUJ/hypXHjMEMlVVYhzGjaGPVngBlpoiMVeA9XxrPiCJjz/6zsN5EY5+QWJBjXyxYrdHxgZH9qxd2jzpLO5r4cR8sSqCgXZLgpxQg+XMfJ39zzOfhg66Ch1t0YhGtx7WCQnFkPqLkh7whMXEI2ysoCMJ/hIjI2j5tk8AqBMGO3A+bJ2gC0D6+y1GeSZoCCSOcHrTi+YnWCOta4xi7Mb1o09a9YPHTMOJ4odbxJWqgAHnIz2jvB2QYHXFax4TE/OnWBTd4T5cwPLF6k9Cx6KjgYPLBbKx55ocqvlDOQFzILMyq6LiIwgUOxK/HsxPMDuNJipMfyQqMhpQWKL0Zgj29KXTCnxQ+ktJAuq+gSNDNgMbCLI2hdxR0Qr+pr4gLaqVYBZNuBGMA12B2CAwlfsQ9VyAKf+VardpgVhqc5B3fWAVReB4ZeGt6Izx9ORoojC8MWITraB/Yd/ACrIVnnBPVBZnmeZdr6sA7/tFQxZ746BgvjWWwuB6cljNHqBw3LmeFiCf8ET1icYAcG/bm/eTOpLIIIVjx+1jE8MdQXZywAq5b8t7yyICkAAif4SPJsPjoQZ9+pKbCuyg6xYgtTXT4gr7nJ1kMMqAa0/W6REMhxFpZR3JG8eZtsOIZXKRCx6HdiCsBpzw7Emci3f7v3z+7bQLNA1Yf5np7vOcu3FciMiSMeUrezH1HLgyNUcKX0AmeInwjBfEdnQAftV5YmIRkRWcpVkiEwC1f0ITAJOSNxtIl+gyQDTHrWYj3U4vE58FJXDvMx97xviJ+4AC+INCIvFx4HA8p8WZwIHwXPYBzFLAVIQ3I4C9FTAPnA5iAqULspaN37OcTV1UGs0xnn6i1ZRTO2fPTaUDFV4EMkCZh2MfjcW1botEep7VLWbMu3b1o9ba+4bEokKODBL3HzoepFB7mYZJ6wA8UP3jUf5AxtPYd6vth8ScAB9WZEJOxBZWC9sfhlUMgkABAEgzwmFjmLzKe2JOf0hVvBDEvYb8lVCVpkvNKjNBTJPZHd8BzlL4q6qCIMOHxlKwAnyjBGZAR4Ljal61rqw4qdCaZ3v5NUqGlePmZi7cBP3R/vAUefmF6BpIRegre3CDX3DqWljNLrrdLdSZVaqGpaG7tq+YRf4DXs0WSwDCBlMc5FMWLOMvh1Ed0iilehSEFGl4QuDjJ6Ke0pBHYCeqtXP9w4FVj543bdVdrntx92PCuvdeLGUDR+wNYeHUTSviGub4h36O611dvPbl26+mT583d/T7chA8FSIgyhqK6DenLgoDnmzS+6dgwoiJ+QQCnS4VMRlomJyo2cEA4GQtxF689cc9YI2fylXpLfFLu3CVVj5695ecLcUp+pMTxGvdEmhT8wP7tv88sTbCzfi7ip0qMXf3cnCXbmakeCZsjM2QbMq3VR041d/bBzorYG7DMII0CdS2YaQKHEGcYtR55+/iOCHNEHAjAFsIiOiaUQQH5XwGO+9A/cvX2s807jhXNXGsvXj57wZa9h8/Vvnk3ym9bQ/YymEGRCJTS8wZD7z50n7x4Y8Hqbbby5fYZK5asrz518f679uEx3OYEdnaCDogtIOkuigERGSKj4/UHsSOEJNSyAV58cUjYBZ1GB80R1IOhmEeYa/ng21l9JjWzXKEtSGDy2OTCbd8f+dAzRqo2sluKrtAJQb0QgIjPHfdBbMmnB/8BZAAseGQMe7lTFx9mFM6VaLJlbJ6MzTZ55l9/0EDrjkDphr3v0LFH+xhSRA0bjzyfSE2d4d8F1MeeJDFO44yEoi+hu5QQBRuEnL50w1a8OC4hW5JYMFGZG5+Yq04xzVm2qbmj3y8qP3z9RC4QirR1Dhw8fl7OZMRrc/6VCK84db4uzVX90/mWjiGUQSHc84Rn5Eh2sVUET/GdxGWUHfLwAakrVu0BhAEkw7C+FnCKZeWwEhDovd4gd+biA2fZGpnWrNJbpapMm6vy/KW73mhRBdh1JxwttPo3yPgYo/8DyEB9OwJeIWhjmGvtDCxZXa2b7JFpLCq9XcGaKld+d+dJo1AnFtchkHTGERZ0ABKTYmlukD+CXQCCBF/jBlqYujFcB4EH+ydHIm3dgyUVyxWaHCVjTzIUKyBK7pRpTcZ014r13w8M+nkrACkLhdPC3OkLt3Mtc6SafLnOIdcXy/VFMtYtZyz6ybZrN+sATGDPipiKZXfj2kCDTpARkRLDTyCQGDU7+StoIQRcFYlEAmFu2Mc9rm8pm7chKcUuZW0K1qwxFGz7/vCLNx24tS1Y6FQDFYMExHJimhFFgojdT8Ew7sxn5xmwyAuUdtiQIxwIQ6Xl0+cfuErWK9VOFeNWQiJ8yeote5+8akJwBML8DumwJa+QdCnahGIBadpbm/QTvHlMjg8xa5wgvCovdpEY9UggfOXWkyxTeVxCdgJTpGRLlWyZgimRM04la0nPhSoJgnYBZkAozHX1BLd9f0JjdMi1DhlTItfNUuhnyHVlcsbxjWza3p/OdXQOwVNockc1jfHTlKggEIiITpgQcxD5xhMPCVCFGSFBHsJCYI2OBMINzZ2VK7Ya0l1yvVmmd8rZQot70Y1bzwZH+UqV2PNwOBIMwTo3hKmIAaEZOCziWXGQ/vzgMyMDBTt5FWFCAYXDXPP7oZ27TqWlz5SpTErGLlUXZpgqNu786cmrd8NB0A1BQUALUCw5EjMBRUti3IHANuC36FgjHhPD0ZEehIxBb/jQLxen5ZTKkkwqtlShLUvQzVSyM5RskSSpUG3I7+geAi6Ojk5oM8c1vR9Y9+3BJL0NqqnoSuU6gIVCV6rUOf4lS6vaeejN23Y0oYmy1N7xIz+eBPQphmfwtpLg5MJJAcwKtQVws4GYCUa4/tHIo/qWLT8c0021y3UFMp1JqjPrp7oOHb/c9mE4QDt988YuICMMqo/gHRPb8H+dZ4g2BAwVeA0g9BUKcQ8fvV2+creatSg0VgXjULDWyTkzV23Zf6+uqWtw1Adr3UHCg8kuyAzolNixT2CNQod+BcaqUGUL7RL8FXkGyAcw5OVOnL2ZVVAhV1sT2RkJzCyVriJBN1vBlMjU9pRp7o6eIaQCxjMRGS0fRqq+O86mumVqW4K+VAHIKJXrihU6+wTltF37fm1u6w5gJUDkEjHtE9sce8BjBhpFq+3xcejggiEjBRy9u/4x2EENrZNQhPvQF7p+782aqiP69GIpWyAFWOTrMzwLV3/X0euHWud0I5gGMWP/J+qZ2EKxWeKZPz/4/DyDpgU0Mxzy+0EVpelcV99SPGMFLYSXay0StVnOmDyz1164+ri9dxR2TfzUnR3DOsbpFPwM4AeVrERBMxV4tzBUIVzR2vi+z1G8RKrKTdC6EnUlakOZQuuRqWE9XMWCjT0DIxi1wnRLREYgwh05cWVKFhRjUTB2laE4wQDrb+WMSa7JvHj1wViAZ9mCYhRt4LiRHkcI+iDaIoLogV08/WjpBELekVAgAN4gH9c/yp04/9BRtk6iNUs0hXLWLGMLmCn2hau/a+sN+NCSE0dIYJGYAwdcOzoO/DHfLPGLcc389MPnRwZClwcthJGRa4a5yOCo9/GzN8WzlrOpdgVjUTAuqdqmZGxZpvnbd5940fTBjySMDUpGeYbYHZEdi0NCX0HPaNIII4J9pcZAKlSIqz74a0ZuyURFulydr2RMcQlZCm22Z8byOw8bRn3AqkLhQBBWeADJQxxX/6p1Q9VeWdK0+MRMBVMg0+bGJWYlGfNXbfzhZdMHMLRhkQk4S2JfeDraJr5dYvs/OuBlkehwAU0rGOEGvVx9U+/2PefTTQuljF2idSr1LklSgTbFvmJ99aNn773o3cOqG+EgqCIRlIaiXBUGQXwcT3nq3Pjm8V99/O8zI4PsUGF0yNQPRiI+Ss8e9I7dfdKwcMW25KnF0kSbQuNRaNwqnWda3py5S7ceOX2lrXdkJACLDAAAyHkR7+gAg/En7oCki4UIoQQuRT2MHw6exKjqgJx6877j6MlLFQs3TMly6ieZTPaKNZt2/X79Xv+ID21VnG0YAaHcscFR/5P6N1XfH7AVz0/NsKdmOhxli3fsPvbsVevQGF/qBVQTvioov907Ggikq8Q0kXSkmBPYQwGDIFXAXg9CcT/u5bvOAycuz1i0NTV3jjK5RMq6JVq3VGNnU90bq47cf9w8MAyucAARWkeACYAToIy3gkVAiAdfAjJi4crPK1hrCJthBTnIerr94MWGqoPZpnlKTWECY1MyDgVj1UxyF7gWr6vaf+L89fo3bUNeLE9PEgFi4FCwWgiyUp1ZKH0XffHTQODP8JEcqvwYwn47Ia6tc+D2g/rDv1zcf+jUuYs1tfWNPYNQiA2YE90N7yPScdgbfN3c9tuVWz8dP3fol/OXrt1/867Li/vJC0E8nlMhOPnfoaZExodYuoHq9wkSLqbloKhjGfxBb+R5Y8fx8zXLNu/JdS9KSLHFa2EhmlJvTzK6svLn7tpz9tmLD0MjqJHxoww3gsfxWqfgXhcBIR58Ecig1uCI4XyNhjNIkwhy3MvGjt37ThY6Ko1TPCqdQ651SjXueLV1QkJWtrVi085Dl2ueNjR1fOgdGvUHA+FgMOKLcL5IZAxXBOKGE1QdEbgIElUcguhHRAYqtTQjyVykd7oKj7GAiyj6oz/nSS7+apydicqF+GhCBL6jTgXuCX7XA2g2vPzADsCKGgcO0Cf8XEfPWO2r9t9u1K3feWxKQUU8a5rAmOJZs5Q1JxisqZmlxTPXVB84OziCckvUa3geKTaQwBk7MWOO/+8jgygksHcSA5SRJZp3NPh9g/7rt+rmLNg8KaNUydqkWqdc51Qa7PGaXIkme1JW0aLV3x07c62+sb17yDfsC44FglRzGLHAD0c4HBTqhOO8H4cPUvgpLgFWHFAfpzPyYRhXfAkGHjVLfKc1zWhRi+eoC/wP4fbIxWO+5l05qFpFYKktVDYIRqC0C3g0ISkM4RSBctFDo5G+Ya6hqffo6ZpZi6sMGUUTtXlxbKFEb5HqLXKDWakrSMsuXrFu1+17L+CHgpBGjwvdKRYWf42MqAohdDp65i+PPreeEcuWcejF2UjDiquOeNNteCz8rmPoxLlbzvJVcUl5oIEzVoXBKdfZZIxZZbTqp3oc5avWbjl48re7Te1Q6Vdcy4VsGrbFCuL2t1D/G6Lm2E8I2tIo0vwiPwWObIzQQD0Gay/Bjn/CF4TpGNWX7EyBLqANiMfwG+rvpylCyBxQMwVGAZt3x6zQHA5wb1r6Tpy7uWrTPlvJKmNGKS3fVSQ75EZ7PGv6JjFLos4snrXit9/vtnUM+HCZOAfbuIZCWE4QRdAnsCAqi9Sng78k/b/54j+DDELBJ8iApiINME0KyOcNce29Y7efNO48cLaweGVCsiuegY3jpIxdzjrkrF2d6knJmpVjX1Iyd/PqLT8dOVPzqKGlayRIJYhx2/eQH20+kOQxeICQHsxpTM6KpSddE3WWEKFF9ZY0FRpUXuNF5Q7IALYIFUsBDwoeg3uCgoKo/vLA4gEDtYix/C8sig9xPaPco4aWn09dWfltddGc1TmOBanTZyameKQsLqPS2SZqCiVMIZvm8sxec/jXK0+fve3tHQ4FqG3BUNAXisDCf6Gu8Ed4/DeU/q9+/R9ABk0jAbD0P/qO3yIyQJMizWMkwDW19539437V7l89FRun5M5SpzpkWpNMa5azVjmsB7QpdHbd1LJ85/LZS3Zs/O7owV//+P127eOX79509LQPjvT7g3w6P0p4nj/BXnOY2keiBGlHEy1KQRD8okOVeAwvaAQ+gi5aZBXAAyi/C+wR9L2O1xtInYRVISFucCz8oc/b2Nr/qL7lUk3dgV+urN9+ZOaibbmOxbppxQq9RaGDrkm1VommUMaa1amOtNyZsxdVfbfn5JWbtV29XtDY+UZABBhqX6Nni/byI2NEUCX+q3T/99d/bmSQW0EEwicN4KmAJCA7j7JXAlACgOseDlyqebrlh6PllRuzCufopxYnwCJBu4xxy9giidY9MdH+T2VBnLrQkFHmmr1x6cZ92/edPnL2xpV7z568an7R/L6praOtp693eGQ0EBRXAREaRGsB5xqBk7hCVP2I2jMxMCKRTn0iZ/xHtwqGgmM+X//gUHtnT1PLh4am9ofPmi7fqj16pmbH3jNL1u1zzlifkjnzX8qcf8hz49RWGeuSsW4p45RobEqd05henu9YMnth1XfVJ+8+et3b7wdORDnQgAz8gEtfsUpHIAiRStrw+5Px/XwnPj8yxqFC/EAH2O7Yc4EgFVAitzG/NqN3KFj3qu3EuZsLVuxIy2fIyeIAAAhRSURBVC5LNFoTDA6F3iljHXKdS65zSlm7FNavFn6jypGo89g0d75zYVnl+iXrdm6rPnrs7NXr9549f9Pe0jnU1e/vGQz0DgUHxiKDPm44AGYzLCTFbB+Bc6ByilCIJXn0mMzQMBjf3iDECId93MBYpGc41Nnv7egdedvW87Sh+Y+bjw6duFS16/CSdbtK5qzPts3XTXVPUGV/k5ATl5Qv1VrkOrvS4FRAPMwuY6wK1pKUbMs0VaxYv+fCH0+a3g/5AgCDGCVHsL3DwWDAB4YeZFGKqcv/FgXiSP/bK//kgs+MDNEYQXEtKBrEErGdwSDEE6EaBS5+h+tFZo4+XQgj4Sr4YW+kvWf04bN3P534Y+bCzQmGgn8q0yckZku0JiljkTFWOWuH6gOsQ8E4FaxdqYcKV0kpNmN6UXr+rGzznAL7fHf5ysqlOzZtO3zg6OUT5+9cvln36Pm7ptb+7sHQqB9YMzm1YtwOfPoMJdGAloCrSUd9XFevv+ldz9Nn727ceXHqwp3dB86t2by/YnGVa9YqU9Hi6ba5U/JmGNKLk1LBwlLoHXI9WFsKvVuhc8pAalgkGlNcUu4EVdbExCzDNNf8FdtPXbz97FVrR8/Y8CjsS0gmNpi3QRw6CDTyuzeJ9dSBg8T68wRxIqKADj45/Se0//tTnx8ZuE0Q+IzhwaKpIoADa777gxE/7R0Hu5aQHIcL0A7AWQNJCSEI4g/5Qm09Q3VvWq/ee37k7PXVWw+6Zq2Zmlehn1qSlOyWaaySRIs00S7XuKQap0TrkLFOpc6pMriSjC6N0cWkevRTSlPSy9NyKjLy52ab5+Xb55tdC2xFi50lS92lyzwlyzylS8sqVpbPWzlz/upZletmL9gwq3LDjLnrSmav9pQvd5UudZcucZcucRYtsroqC6xzc8xzsgoq0rJnpaSXMZOLElPdymSnwuhUGF1yg1vKOqWsS8K44zWuiUn2OLVNzjqSUtyG9NIM05ziOes37jx8/PzNW49f1ze1dw4MjwYCvIOdFMpYgwNGhIKFYD7xHI6MvT8LjMSCY/zQRyOtf4+G2G8/PzKIvDzP+BO1Az38IktEbzSPIegZKiDwH1y+BCfSUv0c1zMUeP667crNp8dOXd215+SKtT+WV6yz2Bdm5cxKnVqcoANVLl5tkmhQdWUsCtaqYK0yrVWiNks1ZqmmUKIuiEvKm5iYM1GVzb8Spk9UTZeoc6TaHBmTJ2fzFWyBHKIk+RJ1bhxcOX1CQlacanp8Yja+cuKT8qTqAtCOGSu9ZFDz1CLVmCXqwvjEApnGrDa6kqfNyCiYbylaMaNyy8qN+3btO/3L2RvX7jxrePuhdyRAlaKiDhJScGKVd6AmfBZsJ17I8Oox0joWCrHHSODYE18AMmJB9zmORbDAuPBsJcL5A5HunqHn9Y3Xrz/49deLu388vGb9rpnzN1lLVk23LpiSMys5o5ydUqwyOqWMNU5tnqiGWmHwYhwSxinBaS3VueCld0v17nidU6JzSfT40rnEC2Q6l0zvhstYp4R1SFgo2wsvrS1eAy+ojq2xaQxuw+TSyRmz03Pm5pkXOotXzV2wbd2mgz/uPXPq3K3rt+uev2rp7B32ifUIQaehONDnGKT/zD0+M8/4rI0k1BPjEFgpLRMRVccI6PCjI6HOrpF3HcNPGjp+u/qk+tD5Nd/um71oi8m1MDWrWJNqU6fYEo3WRKMt0WhTGe0JRpvSYFXqLWA6GqwKg1UO7zZ6yfVWGWuRw+aGFqUeavfQS2mwJhisKqM1KdlOr0SjTW20TsootjgXz1+87dvtx346euXy9We19e3v20a6+0IDI+h/iMkuwC7xGe1odv53ZvNnHeS/vNlXhoxoP1BoEYeF8ncYzAXDIcANeyMDo+G+kVDPULC9x9vUOlDX0H711rPTv905cOS3ql2HV2zYNX/pt+VzV7vKF5vd83Jts6bmFk3J9kyZ7pky3T05yzUlyz0tt3h64Yx8e4XFPb9o5vIZ89dVLq9atXF31fdH9h3+7ezFe7cfNjY09rV2+jr7Aj1Dwb7hcP9oeGA0POIH952fUq3Q3hGgDbojeecFMwg1yWiXvqyjrwkZmCQWdYHDlpi4PF5wTZAGQw5s3kUUwgjFqDc0MOTv6R/t6Bp8397T+O7Dq6a2hjfvn798W/ei8cmz14/qXj+shdej2tePnr56+OTlw6evHte+fvr8TV190/OG5obXLa/ftje973zf1tvROdjb7x0aCXn9GEFGlsAvCECaC1t/gS5N62NjYz1gbuALxeP/zzP+O/PhI2mCqwXB482DgwAhus7gCegWgWzOj1YnCNKHFFw+04ZUu9gwG3nG+cA2JkDQNeQapXfylwrHYPTy+Rn8Tq+UxYMGGjQiDJnhoo+VVsTQ+5eLCaLVV8QzUAGN+rux/QQeEUKky/PeIMG1LPrDyd4TjUMBLpCPiJnjvP1M8BH9TeJH8saBTBCoDy7yYCQCTmsOw+5hOIYHoNSIAZEgUYCVxbb5vzNh/od+8zUhA4Ybo2Y4ujBAQDXRaSjGv3gz5q+R8RF5iPYIEFjZgC8+mIInMUgiTvdYWFDwhGxPSAkLgw+bKA//Y1kXf1p8NOVDf8GM42tCRozdSgMsgIPqi4KdEgzBxqu8VCAvGpEE3IuxkxUisbgshldix3/H/wbvS/5qXPYAJdToI38BBPH52xKlYwjPswfiFghWaI8YDRHw8z/EAf7rj/mSkcG7eoS5H8uRgT+InIN3kImVEWg5A50VRgQAwGODBwGqCjyfibkVXkZVNXi/G36gY1gjATciNUNkWry6O66B2GriXiLqxAvEM0LzvsD//xtvpCJFybWyYwAAAABJRU5ErkJggg==;" parent="HGULL_6P600kTCqMz5Pa-2" vertex="1">
          <mxGeometry y="30" width="141.7841350494669" height="129.11" as="geometry" />
        </mxCell>
        <mxCell id="HGULL_6P600kTCqMz5Pa-4" value="" style="shape=image;verticalLabelPosition=bottom;labelBackgroundColor=default;verticalAlign=top;aspect=fixed;imageAspect=0;image=https://cdn.icon-icons.com/icons2/2699/PNG/512/zabbix_logo_icon_167937.png;" parent="HGULL_6P600kTCqMz5Pa-2" vertex="1">
          <mxGeometry x="11.126038660019232" y="81.98503601959467" width="39.68418019402555" height="39.68418019402555" as="geometry" />
        </mxCell>
        <mxCell id="HGULL_6P600kTCqMz5Pa-5" value="" style="shape=image;verticalLabelPosition=bottom;labelBackgroundColor=default;verticalAlign=top;aspect=fixed;imageAspect=0;image=data:image/png,iVBORw0KGgoAAAANSUhEUgAAASIAAAEECAIAAAADKa7KAAAgAElEQVR4Ae29h1sbSbrvf/+JPXuee+/vnjkbJuzM7szO7szu2dklGXAi52DAYDBgYxsJhMg55xxskskZDJgcjck5iByEyAhJSCiH1m+EvBpMsgSSQHb5eZ+Zpru6qvpb9VFVV1e99b+44B9QACggYQX+l4TjB9EDBYACXIAZqARAAYkrADCTuMQgAaAAwAzUAaCAxBUAmElcYpAAUABgBuoAUEDiCgDMJC4xSAAoADADdQAoIHEFAGYSlxgkABQAmIE6ABSQuAIAM4lLDBIACgDMQB0ACkhcAYCZxCUGCQAFAGagDgAFJK4AwEziEoMEgAIAM1AHgAISVwBgJnGJQQJAAYAZqANAAYkrADCTuMQgAaAAwAzUAaCAxBUAmElcYpAAUABgBuoAUEDiCgDMJC4xSAAocGWYkSm0tY3dobG52qa+gvLWl0VN6Xl1L3JeA/soFcjMr88va61t6G17Mzo2tUgkklks9qeDn7QxgyCIwWBu7+IHR+dKX3WGxRfZO8caWPlr3vO6ZeCqqocE9lEqcMfIXc/Szw4e4+KbFpNS1twxPDOPwe8ffCKkSRszJpO1tYMrrGiDeSSrG3vc0HZW1ITLq8PemZqjPLCPUoHDIlbUgCtpOt3QdlbVdfEOyWp/OwYwE78CDCZrcnr5xctaW3iMhomnoiZcTs0R2KepgI65D9wrJbuocQdLEH9Vu2YxSq81gyBoCb2ZU9R0/3GYsg7i06xb4KmPKnBTD2nxOOx1U9/WNu6acSHm7EgPMyaLXVb9xsEl/qjQcmqOChowJS0nZR2ECrCPVwFlHYQy7wXBSV4ddrQC3NByeuwc19A6yOFAYq7a1yk6KWHGYLB2dvH+Ebkapp5HVZZTczSw8nf0SAqLK4xJKYtLKwf2USoQlVTiH5Fr5xRzrALIq8NuG7gmZ7za2cWz2ZzrhIY48yIlzPbwxDc9E7bwaEVNJwFmdwzdnromvMh53dwxPDQ2Nza1OIFaBvZRKjA6udg3NP26uT82tdwWHn2sTUP6PX/TM0GjM8RZta9TXFLCbHF5Iza1XN/ST8CYsrbzg6eR1Q09mx97v/w6FffV52VxZeNlUZO6iYeS1i8/uGZ2IckZr4gkytXnTzI5kBJmg6Nz5o9Cb+ohBZiZPgyKT6vA4Umf1GdKyRSiLMXKZLJQs2jfsJc6Fj6CynBTDwn3TMHhibL0JKLkVUqY9Q1N61n6Hx1ghHkkv27sYzJZouQWhP0YFNjawZe+6rzvECbATEEDbguPxuL2P4bHO+0ZpIRZzwBKw9RLSctZoKxPaHbf4DRoyk4rlI/8HH7/oKtv0s4pRlAZ5NQcrZ5GbO/gIejjHG+UEmad3eNHNZVTcwSYfeQwnf14p2Jm6RCOxmwzWR9n70ZKmHUAzM6udp/aFYCZpEocYCYpZWUwXoCZpAoNYCYpZWUwXoCZpAoNYCYpZWUwXoCZpAoNYCYpZWUwXoCZpAoNYCYpZWUwXoCZpAoNYCYpZWUwXoCZpAoNYCYpZWUwXoCZpAoNYCYpZWUwXoCZpArtsphBEFdWTHwSQlyurJhIDw0wE0kuEQJfBjP67Bw2IWUT4bbu8Oya205YJKmphU0kiSDN2UGTB7g21dD1N/taqGWZixV6FQvA7Owyv9yVy2BG6elfe2A//7d/zX717TW3FV2jveeZLOze5dR6d/fDGuizGOj/XXv7XRyUPsJdFXp6PcBMLNXjlEguhVl3L8bCZu7bH6c/++Ka27Kazl7KcxYWe4oEop+yegX9ZyT0q3DuNbf/E8VNHuQuC+2fCmAmel0Q7g6AmXA6vRcKYPaeHLL8hwzM0KeA1ux6N2igNfvgL4AMYEYdGtl0dlu+rbnwT6VrbhgrW3xeIRuH/6DuwgRANEE/POd+n3rd7W8vuLnjXIzQHgZAp1GY0r9ImMt0Gpkbm6T6Rlx6FjYx5ZobobScOjbOoVIvotGJe2rnuHF93Jje625xfdzBDS5e6IcGmJ0oajGduAxmHCqNtbXNWFqhLyxec2Ni1tiEfYgtnr1ONkjcuT0ZsPk9Lo7KZQj90AAzMVF1IprLYHYiMnBCthUAmEmq/ABmklJWBuMFmEmq0ABmklJWBuMFmEmq0ABmklJWBuMFmEmq0ABmklJWBuMFmEmq0ABmklJWBuMFmEmq0ABmklJWBuMFmEmq0ABmklJWBuMFmEmq0ABmklJWBuMFmEmq0ABmklJWBuMFmEmq0ABmklJWBuMFmEmq0E5i5hWS1d0/Racz2WwOsE9KASyO2NkzcWzjJbAjjBjYO4nZY5f4nzdHHR6fH0ctAfukFOgeQBVVtt9//Ms2gnJqjgAziWCme9/3iWtCYFRecEw+sE9KAd/wl05eKZr3vI5ueQcwkwhmRyUGx0ABgBnAzBFgIGkFAGYAM4CZxBUAmAHMJF7JJN1WXP/4AWYAM4CZxBUAmIkBs+1dfEPrADCgwFkKdPdPkSk0DgSJobZdvyik5ECOw+HQ6AxgQIGzFGAwmNBHyhiXy5USZtfv9wXkCCggPQUAZtLTGqT0ySoAMPtkix48uPQUAJhJT2uQ0ierAMDsky168ODSUwBgJj2tQUqfrAJSwozJYhNJZGBAgbMUOCBTP9aPZtIb0CfsH4xMLAADCpylwOwChslkfazNnZRas5GJBXvnWGBAgbMUCIzK297Bs8W0mc51w1VKmJ1cPX39J7OCHEpTATCnUQw/DQAzaVZZWUwLYAYwk/j8dFkEQ7x5BpgBzABmElcAYCYRzO4YuhlZB1g6hFs9AfZpKWD+KFTf0k9FF3G0PQSYSQQzJ6+Uitou1Cx6dgED7JNSoH94Jqe4ydw+BGAmBrSORnFyCMQzOPNNzwTpgEKl0oF9UgpsbO01dQzZwKIAZkcZEcPxScx8QrP7BqdZLLYYYgdRyJQCwLm3pIoLYCYpZWUwXoCZpAoNYCYpZWUwXoCZpAoNYCYpZWUwXoCZpArtemIGMZnsgwM2gcDC4z8RY+/vc8hk6EqnDgLMPi3M6EsrhMrqnaSU7dj4T8R207P2G5pYOLykSlqIeAFmQoh0oSDXszWjDI1sBoYs6hrO31b/RGzF0mYnIYm5vnGhYhTPTQAz8eh4MpbridlBVzfGwRH1zfcT//X7T8Rm5ZU3ff0ZK+iTZSS1MwAzSUkNMLsmGAPMJFXFz433ytabXYfP06A1O7duSOoiaM0kpSxozUBrJqhbADOBFGI+uBRmHA7EYEB0OkQTs5Fa2zH2T1Ff//maMCCFbMzIKWO8/UmLaBqLK0Zjc7jC7zEBMBMzXYLoLoMZY3EJl527ExGzHRQqXsPYP51XvDn5+6+lUL+vSRI9PyhXWAdEFK34tEPiMv9OaGSTe8AQlPYHDgBmHxDowpcvgxl1cHgD5rKsprOoeFO8Nvd3uek//Hnyv7+4JgxIIRst3ynH6AVohKP/ng6Jy/6VCZWhuNsHwtYOgJmwSoka7jKYUbp7MRY2c9/+OP3ZF+I11GdfTP3X51Ko3Ncnifo/KfupB3zngf5VOFdc9n+iuMmD3GWCsJUCYCasUqKGA5hdE9IAZqJWXbGEl4EBfdCaiRFRgJlYsBE1ElnArH9w3QG2qHRr/oefxGuz3/6A+vyPk5+J1m+c/O2Xs/9UmlO+feU28+NPk7/5ckKU/Dd9pxyuE3AjEP11Eldc9l0qN2eMu0YUtu6BTqOwSoka7jKdRtr0zG5M/CbCff0JXLyGNjKb+4f85G+/Eqm5QH3z/XZENK6g6MptzQmJ+lq0IZyuvyrnmgcgMlYe1kDiske1UCeaS6AJWykAZsIqJWq4y2DGJpLo8wu0iUnq6Lh4DZedu2J6f+qrb4XHbPK3X83+pEBqa2esrV25YV9kTP/1f0T6mRj/SXnMOWC4Hz28yRWXjWxysRQuU2h3EwAzUfERNvxlMBM2DdHDXWCy1eTvv55TuklDTYuemvjvIJRXzvz9X5O/+4PwPxNgTqP4i0GIGGXg3UyIp7hgEIDZBYW73G2gNbucfmffDVqzs7W5+BXQml1cO+neCVoz0dab8TqNCirk7l4WFitp4zkUoJ05sMDArO3EJqC++TNvsFHo9XKg0yhdvt6lBjATEbPf/WHm73LYtPT92jpJG2VomLm5dUq14HA4VCrhVQ36ga3wgPFDAsxO0VPypwBmomE28dnnk7/9avrPf5v+4R+Stk3/IHLfwMk6wCGT6bNzq/ZPpr/7EWB2Up9reAZgJiJmQnfPRAXgaHjUtz8sGd4jVL462ZpBTCZ1cmrTP3hOQUWk7iJoza4QP4DZtcNs6ss/LWrq7WXlMDCY92oGBEEsFn1pCZuZPfsvpakv/3iUTCGPQafxPUml9QfA7NphNiuvsukfzMLhICbzaDWA2Gz2wQE2I3tRW19IqE4GA5gdlVRqxwCza4TZ5G++nP7uh63gMOrEJI8x6L0VyWw8Yf91PdraDvWnv57kR8gzADOpoXU0IYDZdcGMx9hf/gfzFHbwpgtiHF+KzMYTDrp7MM+cZv4hLyRRpwYDmB2t/VI7BphdD8w++xz1x++XDEzJPb1swvEFkhCbTRke2QwKRX1zWbclADOpoXU0IYDZNcDss8+nvvzTyn0bfFkla28Pen/PN4jNZq5v7MQnzcorizRLGLRmRyv61R4DzK4es8nf/WFJ3xibkc3ArEEs1tEKwRv2wONxeYXLJhY810CiLC0DmB1V8mqPrwwzhE9abVPf6trO+ib2qgxdVTf3wH7yD9+dWiOlc3Ly829mf1LcSUymTc8crwocDguHO+jtW7Z4gPruB7HkB/WT4jzCHTMwelWar29ip2fRVXVvrZ5GgE1xj5f4Jf8+OXXYwMof5pEcHJUfElNwVZbuGNCkoj3y+2/EUoMvFsmcgsqmbyBtbv7Y8D2Xy+VQqaSON6uPn03/5e8TYnK/1fft36o178X7JF6V5iExBb6hLx2Q8WomHgCzS2J1/PaTmKnqumiYeupb+hlY+l+VuWraF/2gMvhbEdZrXYyls+5CfffjqoMjuX+QTSIdl4zL5W1YExTKW1H2e7HlsPPL7zP+qW5n5HxVmhtY+uta+KoZe9zQcgKYnSz0S505idlRia/q+KHCvaw/yQ/8RjQnBWcxI9r5//5i6os/rty3xhWXcqhULodzVF8Onc7c2NyJT1rQ0BUt2g/NBWv9/Xfxf1HVVbW5Ks3PStfSIRyN2Wa+/2p6VBOZPr6yd7Oz5Jbm+SvEbOqLb2Z/Uth/Xcdj7MQ/5uYWvrR84Y6meBmb+K/fA8xOiC2NEwCzK2jNJn//9fxNNezzDPri0sn9adl4PLGhaUnXCPXtxWd7nMUnwEwaVJ1IQ0qY9Q/NGD4IuG7mpv2o+McreDebv6m2FRxOn5/nkMnvlQgEQUzmwZu36+5eU199e4EJ+GfRJTjf+dX3Gf/UsDd2uW5lgfBJW9vYBZ3G9+qDqH/MLa5FxBdfN8tyCmpW1ZHqSON/fzH11bcb3v7U8clj72NcCILodMb6Om/Y43/kL/+JTIDW0YO+b/9eq2We5J987coiv2EHS2C9/2le1Gp2bcNLqTWj0RnbO/jrZpiahnnrR5NS3Hhp6us/o63tiA3NJ1/JICaTvrKyHRmzcFdLJGdVRyn64DHqn4qLLh4bQ+PXrSz2cEQWiw29P1v62mIjasakhJmo2ZJO+At4tvpgPT4nwMyP/0Q/sNuveX3qDusM9CqusHhRUw/1RwnuhX0d5jRKp3CvVSoAMylNtpr8/Jvle/fxxWXs/RNesCGIvU/cr61DP3wkkm/Wc5A+6xLA7ErwA5hJBbP//mL2n4rbMfGsPdzJoUXesEfXW4yjk1hmLZ4FGP88wAxgJm0FpNNpnPz91zM//rQdGUMZGeXNDH7/9YNDodAXFjc8fGbllc8nRCxXAWbSrmSH6YHWTLKt2eRvvpz9p+KaoxNlcJhDoRwrY4jNpi8s7mVmz6vckdywx1E+AWbHikA6fwLMJIsZ6us/o20eUQaH2MQTsxYhiE0iESpfzancmfryT0dhkNzx1WLG4UAsFpvBZPGMwWIwmKcYk8Vif2xDjgAzyWKGfmBHKK9kE4knF5JxKBR8eeW7YQ8xTcD/IJ9XiBmDyVrBbFc39CSkVyWkV0Ull4YnFB+zoOj8uOcVDa0Du9jjS8il0+xIKBUpYYYnkAZGZq+bDWUWjZk8mBBl46UP1mNBgKmvvp2/qc7zA4dePVl47H0iua8fA0PM/P1fglukcDD+d7nRR7DB123SL4vO7vEXOa/hninGNoHGNoF6ln46Fj7HTMPU09A6wNk7tat3krAv9KbxJ/W9ZmekhBlqFu0ZlHndLNHe+7Wi5rAE1pvxXO3fuLUdGUubnTtZ4hCdTkVNbwaESGfY4yi9PX/8seKucRgySvpl4eyVqmHqpayNUNFFaN7z0rznpWXmpW3urWPho3vIm7a5910jd2UdhJyaY2J6FWoWfVI6GT0jJcze9k3eNnC9bvb0plXu90oDvxHbai5BhZ5XubMVFMpYW4fo9JM1gzYzu5uUMv3DT7wR/A8tXRFvgPYv/pzyt9tmGg7SL4tb+khFTfgdQzc7p9icoqa8kuaiirbK12/rWvob2gbrWvorX78Njy+yesJbVe3onlTfcopj85NiysQZKWH26aw34/mB+/7v6x7e5P6BkwuiITabhd3by85Z0jWSxMzgDzJ55TP0TW2DY1LKFpc3ltFb6LXt9U3s9i5+B0vY3sWvb2JbOkcCo/Lk1BwNLP2zCxtlAiFhMgkwE+tCmM8+R33z/coD2/26Bt6eSe9/IuNyOOx9IqmljTfs8cVFXHN/kKIPBrhyzOydY0uqOtjs95axCmoqem37ZVGjnJqjsjYiLq1CcF7WDwBm4sTscMvcW6S2Dhb+lIEyiMGgzc2jbR9P//CPD/IgoQBXjtlTt8Squm72+6vFBRTt75NrGnr5S3ujkkoE52X94Mowu2vkbmQdYGYfYv4o9KrMS/9Jyd9vDv5WPC9Ik59/s6htsJucxnslY77nB47L5UJ0OnlgaCs4bPZfStJ/JRNA2/nVX7LktZ5auEtZc817Xnx4fMNf9g5Oczjv+S0XUESh0pvah/ghAyJzdz+WpTFXhpnVk4jQuMLswsac4qarssrA+DcaRqNfiOPT8GefL9zR3I7iDS1yaCeGPTgc2vzCTkIyb7bH5+KhWkCOSAeD3/+j1cSmOClfypo7e6fy4YlLK19c2ThrwQuTxX7TO6Gq56KgAUf6Ph+dWKBQT4gpgFJ2Dq4MM5/Q7L7B6atdxie2OY2H/nO2wiJ5izVP/uNwOBQKLr9wydhMJCQkEfhin6cPt3xi0xlMOp3JZLI4Z3T5Tj46/wybzcktaeZjlpXfgCeQjr20Hr1xeHzeyCZQVdfFzimmqu4tXpSvZxwOxGCyKFT6AZlKptDoDOZZvdOjKUrhGGAmhlkgMz/+E+PgSO7tP+504LAAWTu7xMbmZVML1B//IglyRIrzApix2RwKld43NFNR21VY3tbZPb6+iRW+arLZnIXljcikEj5meSXNZMqZG2pzudyZeYxHYKaWmbehdUB4QvHmNk74tLZ38U3tQ8ExBY7uSUi/56WvOldWT9tVWPgYxRQSYHZZzGb+9q9V+yfE+kbW7imVj0M6OOjswjg4Tv/1f0TiQUKBRcWMzWZvbuOa2odCYgsckPF28Bi3gPQXOa+7+nizND7YGaHRGGsbu3mlLfbOsTe0nAyt/F839THP9USwtY2rqO2yeBx2y8DV2jGqrqV/Gb1JOqCc1c/kvffyXKiwUDPowvI2hE+qtpm3oqaTqp7LI0RcUUX78urWOfeKiaMPRAMwuwRmn30++fnX6Ae2+JIyDpl8fCEZBHE5HNoUajsieuoP313JV7KTrIqEGYcDYff2WztHHN2SNEw9lXUQtw1cFTTg6qaezj6pb3rG1zawNNrxPaL4lZ5Iomzv4idnVirr3to7x942dFMz9vALyxkemz+/SlJp9NW1HffAjFv6SFVdF6Tf89yS5r6h6dW1nT0c8eSrGpPFJuwfzC+uJaVXWTwKlVeH3TVy0zT1VDN2V9CAO7jEF1W07WIJDMZ7ezKenwexXwWYXRyzyS++mVVQ3csrYO3u8vznvP/CAbHZHDJ5Jz5p/qaauFxzn8RG1DPCY8bhcKhU+uvGPhefNFVdl5t6SHP7UBff53cM3RQ04Kp6LroWPilZ1VMzK8cqJYPJ2tjaa2gdjEwqsXeO1brnpaKDUNZBmNuHtnaOfHBOMI9SFvtVfY+jR5K8OuymHlLD1NPkYZCTd2pGXv1JSnkdxY7hZ+5JOhY+N7Sdb2g5eYdkxT+vDIrOv2PopqKLsHoSkVXQgMZsH8unNP8EmF0Qs8nffjUrr7wTE0+dQh2bfc/rxrBYjLV1XEHRsrH5lBRd+nyQOiExY7PZu1hCXVOfe0CGjrmPio6LW0B6UUV7zwAqp6jJ2TtVw9RTQR1m/ig0LK6opWN4Gb25iyVsbGJ7B6cLK9pC4wqfuiYYWQfc0kcqaMB07/t6BmVWve7e3NqjC9eqYNZ3a5v6vEOy7tkF39J3VdR0UjP2uO8Q7ur3Ij6torax9+eRktkFTPfAVFZBg7N36l0jd1VdFzP7kOjk0q6+yem51d5BVEBkroGV/y19pOWT8JziptmF9/fyliJnALOLYPZusSYMQZtCcQ7e97V4WHjMnd39+sZlE4vpP//tg1VfmgGEwYzN4Wzt4FrfjCC8U7XNvdVNPOycYmsaeze29thszi6W0NA64BeRY/Iw6Kaei+Y9L4R3alZBQ+Xrt0UVbYFReeaPQlV0XBQ1nbTNvC0ehTog4yMTS9q7xohEskhDlLtYwtu+ybSXtV7BWfbOsWb2IXeNeP1ABQ3YY5e48ISitJc1fuE5Fo9Cb+oj7xq5P4RFJ2dUo+bQ/CEWMoXW1TsZFJWnd99XXh1mC4/JzK+fX1qnnujlSgE3gJnomH32+dQfvluDuxx09546M5jL5R5096whPaS2WFN4UD+IGQRBVCq9sW0Q5p6squuiouNi7xxX29S3vYvnDyQcvnJC65vYtJe1ZvYhcmqO8uowRQ24oibPFDRgvD814bf0XX3DXlbX98wvrpHJ1LO+R59TxXkJQbyuN2H/YGZutbzmzRNkgoquCz/FQ97eJXfH0O2xS1xT+xAOTzo62sHhQMNj8xGJxYqacHl1mI6Fj2dw5pX0HgFmImM29eWf0HaPCdW1LBz+uEvTw9kelNHxDd/AmX8oXJ9XMgGHH8SMRmc0dwx5h2Rpmnrd1EM6e6eV13Rt7+KPdfZodMYKZrulcyQ6udTggb/K4eoVRU0n3fu+MM/kpIyq5vahqZmVrR0cmUI7awbjOYwdvcRisQ/I1M2tvfGppVf1PSExBY8QcaZ2wcY2gTbPotz805+/rB0en9/FEpgnJt/sE8mDo3PhCcUGVv7K2s76Vn6ZBfVzi2tH45fCMcBMNMxQf/rrorYBvqSMsXp6R59Do5EHh3fiEtA29pK2hTuaPA8iomzheT5mdDoTvbYdHJ2vb+l3y8D1qWtiWfWbc37+iSTK+NRSZn59TEpZSExBaFzhi5zX9S0D03OrFCpdXJ+GKVQ6Fre/vYun0uj89cFVdd25Jc0vixrLXnW2vRmZmcecQzKRRBkamwuKzte38lPScnqEiGtsG5QCWkeTAJiJhtnCbY3dpFTm9pnDVrytonexjBU0fW5e0rYTl4j65nuRPhWcj9kejtjRPX7PLlhOzdHwQUBFTdf6xikfA49WIMExk8WiUukX6BwKYjj1gMOBlle32t+ONbQOLKE3aXQGh8N5f0z31PuOn2x9M+IWkC6vDrul75pT3Hz8soT/BpiJhhna2o46ieJQTtkt6V1JHX42guh0DpUqacMVFs/88A+R9n0/H7PtXXxD26DJwyAlLSfrZ1HDY/NE0nFvXGdVSAiCRBrhOCueo+c5HM7+/kFOUdM9u2CTh0HB0fmNrYM4HPFk5/DoXaceV9f3PHNLVNCAGzzwL63uPDWM5E7KAmYc3pcUDo0m9lpLamlbtXuCEmXAHfPMibW3d3IEX3IldE7MhPJK3l6evxNh9feMnDLG25+0iKazuSdtF0/uHZl/CI9R1UMaWQe+LGpcRm+ekwFJX4IgiEKl/zxnyuJRqKKmk76ln5NXSlLGq+aO4dW1HSFTp1Dpi8sb4QnF+pZ+KrqIwKi8/pET23wLGddFg8kAZhwiiT47T+kfJHf3iNewqS+WDe+JNB64BkewSaTjEz4uqv4l77sAZmM/KQ87B/T2orvXuCftzQq7epRg5VOibBKgquti+SS8oXXggHx2033JBzi8ndcHPLcXODG9nJpV/eBphIap5w0tZwUNmKN7UumrzrVN7AfHV9hsDmZ9N7ek2fxRqLIOwtgmsKl9CLu3L46MixCHDGBGHRjaeOq8qHR7/oefxGuz3/6A+vyPIg0hyDpmzd8ph+sE3AhEf53EPdW+imf9zhfznXWBvDpMScspOCZ/YGRWhAolYlAIgmg0BuPECOHRaBhMFnZvf2R8ITS2UM/Sl7e2Wgdh/DDQN/zl8Nj8PvGU75aC2w8OqJ3d40bWgSq6Lqa2QQkvKjHrO+IamxGk8sEDGcCM0t2LsbCZ+/bH6c++EK+hPvti6r8+Fwx2C3OwYmlD7uunTkzSUNNXbrtJKaJ2Guv/pOynHvCdB/pX4dwzDPrPYOqXiMF/3E+R00QYWQdEJ5di1ncv+VWXzWaTKbT1Lew4aqm5Y/hlcdOL3LrkzOq41IqwuMLQuMLo5NKUrJqCsrbaxt62rtHFlQ3SwS+vhWw2h3RAmZxeLn3V6RWSpXXPS1kHoXff1z0wo6l9iEA4ONkeQhDEYDC7+6eCovNVdBAapp5+4TnjU0vnrw/4IDAXCwAwEw2zedW7m/5BW2GR2xHRV27oh4+mv/tx8rdfCvMDwQ8jBGY8/D9yTboAACAASURBVD4L2PnO+Y2cYaC8prO5fWhhedvG1t4Fahh/GvHG1t7Y1GJzx3BheVtsarmL73Mjm0Btc5+7Ru4qOi4KGjA5NUdFTbiaiYe5fehT1wS3gPSMvLrGtsGRiYVl9NbRYZg9HLGzZzwktsDcPlRF10VV18UnJLvj7dg+kXxsuQDzcGplala1oXWAkpbTE9eEitquw4HK0xduX+DphL8FYCYaZsJX6OsZUkjMfhXO/a+AXUW7TEUD3qKSO4buF+s6MlksHJ5YXNXh6JF8U89VXp1HFN/kedNH3rd/X+IHuKmPNLMPjUurGJtcPPruBkFcPJ5UVNGuc99XSctJWRvhgEyYQC0fbf14E3HI1I63Y3DPFEVN+G0Dt9ySZrTQoybC8yNkSIAZwOz03uN/htB/57X0V4vn/Je03JLm1bUzvxYeq20cDodGZwyMzGYVNLj5p1s8DlM38VDSclLRddG39LNHxPpH5KS9rC2saKuo6apt7C2veZNT3JSeVxeXVuEdknXfIexwujD8pj7S4IG/i+/zjLz63gEUFvduazgmk4VZ36lr7rdHxN41dlc38YR5JLe9GcUTfnFUjMMT03Pq7j8O07zn5RmUOTg6Sz3pPOJYviX2pwxgRp+d20tIWX8Cx1g+FK8ta+rP/vCTSN+drmcbJXyuOv+inGkaYJ+CNizlfsBKIONipq5n9R1jL3l1WFRSycjEgjD1kM3h7OGI3X1TUUkllg7hyjqIG9rO+pZ+jh5J4fHFmfn1r+p7egZQc4trG1t7u9h9wv7BLpawurazuLIxOb38pneiuKojOeOVT2i2DSxKVc/ltoGr+aNQv/CXZdWdM/PvPKWz2bxUymrewL1S+J1P/4jct32/OInY3sUHHs4bNrYJBAth2B8sOQ6FwlzFUIdHyD194jVsWvqykZlIA/rCV+jrGXLsH8oD8IDOLnTbMlcYi8x9a/YkRl4d5h+R0zOAOr+wIIjLZrNxeFLPAMrdP13HnLcA7NCFWWBQdH5b1+gejnj+0umj8aPXtosr220co9SMPZR1EPLqMCObwMT0KjyBxGTxHIfxZjnT6BWvux7CohU14XeN3SMSSygUGn8gcXMb5xaQrmHqaWYfUlHTdbF3y6P5ucyxDLRmXJ4jFQaHTOEcHIjXSE0tq3YOIn2evp7wCJ+rGTlltJc/bg5NpHOFsaJXbx/CeJh5Bmd2do+fX9VYLPbm9l5+Waudc6yakfstfdcHTyPTXtZ290+hMdtEEkWkTdwZDOYejjgzv5pX0uyAjL+h5ays7Wz8MDAgMndp5d1Hcw4H2sESahp6VPVcFDXh9s6xr5v79g77lls7eN/wlzoWPnr3faOTSheW1s/PvESvygJmEhNAbJ6tpOsHX3ioToY8f7LVUaU5HA6ZTHuR89rAyl9eHRabWj6OWjoa4Ngxv69Y+qrzmXvSLX1XZW2Eo3tSbknz7AKGSCKfM7X3WDxH/4QgLpPFWkZv1TX3h8YWGlkHKGs761j4JGVUCTLDc+mztB4Qmat331fT1NPZO3V4bJ5CoeEJpJzipgdPI24buD6ERXf3T9Hox/0pHE1LoscAM9HmNJ6suLJ1RnjMaHTGwtK6b9jLm3rIO4Zula/fbu/iz6qLHA6EwxN7B1FP3RLVjD3uGLrZwmN4s/uFHjU5K2b+eQqFNjmzEhZXqHu4RlOXR9qrze09fu+RSKL0D88gfNJUdBAqOojM/PrF5Q0qlT4yvuAZlKmsg1DVQxZXdmzvnJn/81O//FWAGcDs9FqEI5Aqarts4TFqxh6PkfHjqKVzZgbT6Iyu3kmPgIzD0QiEvXNc/9AMFrd/sUbsZIb4jiJnFzCpWTVyao4KGnCLR6HJ6a/406b4X+cy8upMbYMVNGCG1gFFle38ky9y6zRMPeXVYeHxRSf9iJxMSEJnAGYAs1OqFovNXlzecPV7oXnPy8w+JLekeX0Tu4Ml9AygSqs7h0bnDshUwcQLDgcam1yMTS3XtfC5qYd09Egure7E4Yn8puaU2C96ikyhjU4sRKeU6Vn63dJH2sKiu/omcYR3uw1PoJajk0vl1BxVdBDBMQVzC2sMBrP1zYiLb5qCBtzcPjSvpOWiKV/2PoAZwOyUOkQkUd72T+lb+d/Qdn7qmjgxzfv4Oz61FBZXZAuPycirQ2O2+S0Vm8M5IFNzippsHKOUdXhupPJLW9Br2+c0faekJ/Qp/pQrV/8Xakbud43cIhJLxqfevTFSKLTGtkF9Sz9lXp4TXjf1HZCpiysbmfn1SppON7SdQ2IKeFONRXSZLHTWzgv4yWP2BIb601953gQ+DZtTVN30C2CsfGAjTDRmu6C8le8uyjs0+4BMZbLYDa2DOha8iRdewVm9g9P8RV9UGh29ugX3TFHRQWiaer7IeS1pFwBsNqe4ssPeOVZBA35TD1lS1SFYS4qaRQdF5WkduvpJy67BEw7oDGZX74QK73uAo6vfiwXgcue8XwPJXKOOT+7EJaHtnyxb2nwitoZwxWZmM7fOdHkNQRCdwWzrGkX6PVfRRdg4RuWXtbLY7OXVrdTsGt5wgq5LwvPDee6He5ShMduZefUmD4M073k5eaUMjc4RSedNmb98SUIQtLq28yL3tbqJ5w1t5+CY/LHJRTab9wF2fRNbVt1paht018jd2TttexfP4UAz86s/73qhec/LyDogMqlEJM/kl88tP4ZPujVjbu+Q+wf26xsINa8/ESO2tFJGx9gHv0xKEtQkOp2JJxysru/0DqCikkp4iyB1XPwjc3sGUBDE7R+eCYjMVdJ0MrYOLK3qJFNo0KHbqYGRmYew6NsGrjYwHpA7WIK4hj0EGTt5wGSy2t+OPXVNvKmH5Hs75XsEOiBTp2bRT5AJqnpIM/uQgZFZIomye/hhzfpZpKqui/HDwNSsmobWgf6hmamZlYXlDcz67i6WwPNccsbOhidTv8CZTxqzC+j10dzCZvOmHRJJlD08cWcXv7mNm5lbfds3WfKqwyc029gmUFkHoW/ln1vSjFnfgSCotrEX5slzKefq+0Iwp4lIoryq75ZTc1TSdAqIzF1YXj/mAEtycs0vrafn1mmbeytrI+CeKYT9A/7bIJVGD4rJ5+8fn5XfsLi8wV+uFhiVd9fYne9JzuhBgKvfi+jksoy8+rLqzqaOofGpJfTaNha3T6PxfI2IPdsAM7FLKhsR7uGIw+PzJa86opJKEL5ptrAYM/sQwwf+OhY+dwzdbukjjW2Cfv42PT23ymSyIAiKSSnTtfBVM3bPLmpcXNngP+T41FJ0Spm8OkzP0i+7sJHOYAqGHyWtAplCG5tctHwScUPb2fpZ5MjEAr+zymAwC8pbbeG8BtYjIGNgeJb/MWB4fP7nyf5aZt5KWk43tJxuG7iqm3ho3fPSsfDRt/Qztgm0c4oJjskfHv/AOtGLPRfA7GK6yfBdLDZ7ArWcV9riEZRh5xRjZB1w18j9hrazgjrs0Dk+0sQm0CMwo6CsdWZulXRA4XAgGp3hcfidV/OeF2+RP+7dIv/GtkGET5qCBswBGV/X3C9NUTgczub2nn9Erq6Fj5F1QE5RE9/RHZvNHptcDIrOu23g6ur3on/onduPfSJ5amalorYrJrXMMzjT0SPJFh5tbh+qY+GjrINQ0ICp6CAMHwTEppaPTS2K/UEAZmKX9LpHSKMzsgoarJ5EKGjAbxm4apl5G9sEWjqE28Kjn7oluvqnJzyvbO8a3dl995bFZLL2cETY4cYRevf9hsfmBStKcoubzexCFDXhP1fr/mFp+7HZJ5LzSloO5xa7I7zTxiZ5eEAQRCRRqht6ED5pz1/WTs+9m9HPLxUWm72wvP62b7KmobegrDUtuzYsvgjh89zGMUrbnNfQmT8KrWnsFXsRAszELul1j5BMoSF9X6geLj1+CIsOjikoKG/tHkAtr27hCSQKlc7b5ZLFFoySkym0haV1B5d4JS0nM/vQxZVNwSLL0NhCBQ24kpZTRn79wvK7nqTUnp9CoXW8HXP2TuVtZGHk0fHvmc089wRM1gGZiieQTs5jZHM4LBabwWQxDjcfpdIYFCp9aGw+LK5QXh1228C1oLxN7I9wZZi5B2Z0vB07IFNpdAYwaSqwhyM6IBMUNOB6933Lq9+MTi5i1ndwBBKNxjj10+3u3n5T+5DVE94cXAdkAt9zG5vNJhLJvmEv5dQcb2g7v6rr3pW6uyg6gzk9h/YNe6moAb+l79b+duwoHrxXMvYvPxZHL508RmO2UzKr+fs85Ze1ngxwyTNXhpn1s8iY1LJX9d01jb3ApKlAWXWnycNAOTVHU9ugCdQS5dwtarlc7h6O2N416oCMt3gcGp5QvLXD26WWwWBubGI9AjN4fqa0nTu6xwQ9yUvWSOFvZ7HY2zv48ISiwzcrl+aO4QsPyu/s4jPz6+XVYcraiLwS8fskvjLMBD4hwMFVKWBqGzQ+9WHM6HTm1jaO5yU/tqChdYDvsI1GY/AnPfLmEOoihsbmhMdDXCE5HIhCpcWlVfAFrGnoubD7LTyBlFv8bhP67MJGceVQEA/A7J0HmKuq61eYrrFN4MDwzAcnbRyuqmVi1nfRmG0cnsh3IHVApg6NzcE8kw+3WfEf+/fEQkHFksLBMcyKKtoEQ6Cipg4w+3QxkDSBxjaBvYOofeIpM0I+WE2PYMb7in1FmHH2ieSYlDK+UIXlbRd2J0w6oBSUt/LjAa0ZQE6cClwGMwqVjppDI3zSFDXh6iaew2PzUvswLfgJYLHZO7uEiIRiPh4VtV2kf2+sQaXRsXu8vZr4k8IEt5x1QKHSiyvbAWbirF58NcF/L4MZg8Hc3NrzCOINgajoIrr7p8530H1W/b7MeSaL50YuJLaAX5SNbYOCeVJjk4uJL6qCovO7eidPjumfTJSwf5BXIvvvZnOLa2HxRcCugwKB0Xl6ln6Kmk5G1gGd3eM4/Dvnhycr3zlnWCw2Yf/AJzSbP6Df9mZU+k6z6QwmavZwQF8TfsfIvePfA/pMJqu6vueeXbCepV9JVQeRRDnHzzCHw6EzmMvozeTMaplvzYgk8sT0MrDroMDAyKwDMkFV10XHwie/rHVsamlrB4fF7e8TycL88PPZ48/ACo4pOJwi6FxxuHHuOVhK4hKFSn/bP4X0e66q62JmH9o7OC2YBZKRV8dzGK4Bzy1uFngj5k9uJFNoezji2sbu3OLa9Nzq2NRid/9UyasOV/8XvE0GeZ+nZfa7GX9fcA4HAnblChyQqZ7BWXeM3G7qIR+5xEUllRZVtDe0DPQNTWPWd0XiITG9St3EU1HTKSaljD/XSaTbLxmYdECpev32sUu8urEH0uc5PwMcDm/7+cQXlQoasJt6rlWvuwWpsFhsIok8M49pbB9My65B+r147BJv8ThMw8RTRddFQQPOn4Vc3zIguEVcB1Ia0BdXdkE8l1eAzmBWvn77BJnA2x3C2N3wQcD9x2E2jlGPXeKcvFO9Q7ICIvMy8uq7+6fodOb5yVXUdtkjeKuYXXzSWt+MnB9Y7FexuP2g6Hy9+75G1oH5pS386SksFntwdNYvPEdJy8nggX996ztmCPsHvYOomJQyhE/aQ1i0qW2Q1j2vu8buN/WRSppOyjoIzXteds6x5efutX3hRwCYXVg6Wb2RzeYsLm8UVbQhfNJsHKP461+0zLyVtZ3leNtHwG5oO9+zDQ6IzG3pHBY4XdvDEcenllo6hxeWf9kSqX94JjgmX14dZmITlFfSTKMzpDbeSKHSJ6eXH8Kib+ohrR2j+oam8fu8LxOMwxezZ26JN/VcnrgmdPVOcjgcKo3e3jUWHFOge9+X7y1c18Lnnl3Ig6cRDi7xbv4vAqPyEtOrymreYNZ26BJw5wgwk1VaLplvwv7B1MxKeU3X85e14fFF7oEZprbBasYed43ceD/wWrwf+Ht2wc0dw4frzbiDo3NBUXl3jdzSsmtnFzD81Nc2dnOKm/hrJYOi8tY3sBfYFfpiD4JZ3yl51aFr4aOq6+LkmYrGbPNfLGk0RmpWjZldiJqxR0Ri8QRqmUZjYNZ33AMzVHRcFDWdtM28beExvmEvU7Nqiira2t6MLq9s4vAkiS5IBZhdrJRl/i4Wm005HAzY2sGtbeyuYLZnFzAj4/Ntb0bSc+t4Dm3UYSq6iNC4wsHRWQh6h5mSlpPJw+CahndLRegM5pueCeOHvL0wbeHRJZUd5++dKUbV+oamkf4vbhu4GlsHxqVW8NfFsdkcHJ7oGZR5x9BN975v5eu3fL93r+q6bRyjVPWQxg+DSl91jk8tra7tbG7jdvfeDfywWGyOYN2BGHP576gAZv9WAvyfy2UyWftE8vziWkF56xNkgrK2s8XjsKyCBi6Xi8Zsp2bX3NB2VtZGJDyvXN/A8qfzLyyvR6eU6t331TD1RPo9n13ACD9ceTHJIQja2NrLKW7Ss/S7qYd0D8hoezPK3wEDv3/QNzR96JvEzc4pZhy1xB/z8AnN1uGt/gyMSiqdX1pnMD7wznmxjJ1zF8DsHHE+3UuraztFFW38VdUegZlEEoVModU29end97uh5ezkldLQOsjvZRH2D/pHZuydY5W0eP2x8po3axuiDVeKpDLP8Rad2dQ25OL7XFHTSdfCN6eoaefQgxWXy8Ws7xSUtRrbBOrd9w2Kzsfi9g/IvL2n9a38VXVdYB7JPQMowUwRkdK9ZGCA2SUF/Dhvp1LpAyOzWvd4O5s9hEW3d41icfsjEwv+ETlqxu5aZt4BUXkHZCqXy+UcukMNiS3QMvO6oe1s/iissW1QcqLQ6bzZJ17BWXeN3G8ZuHqHZvcOTgvWv2xs7VXUdpnaBtvCY4or24kkChqznVvSrKyDUNF1CYrOxxNIx/bOlVxWj8YsJczml9ajkkqByYoCEQnF7gHpqroucmqOBlb+kUkly+jN3T1CS+ewkXXADW3nR4i4mflV/swPDoczODp7uJO6y019pFdIVnvXqCRqM4vFnltcS858ZfIwiO8irr6ln7/+jV+nyRTaMnrzVX13U/vQMnqLyWR1dI//vIBYQQNubBOYmVfPZLGlNhZ6BZh1dI+DOYQyqsAtA1fLJ+EDwzMUKn19EwvzSL6l76pv5ZdV0LC4ssGfRshgMFs6h+2dY1V1XbTNvL2Cs0YnFsQ4HMKBIAaDubK6VVzZbvgg4KY+0tQ2OCq5FLOxe4xnCIJIBxQqlc5vZrMKGgwfBMirw5B+z1s6ho9WfWkeS6k1A5jJKGP8bMurwypqunaxBCKJkpFbZ+kQrqjB2ze9tqlPMOCxgyU0tg/pWfrJqTneMXRzQCYMj8+LqyozmaydXUJeSYsdPEZOzVFVFxkaW7iyunXOYAaNzkDNor2Cs/iPwNsXV0y7QF3goQBmYO7/hxWQV4cFRubx/eYvLK1HJ5feNXZX0nJC+j1v+PebGIPBXN/EFlW02TnFKGk6qRm7uwWkVzf0EPYPjjU4olZTHIHUOzjtF55z/3GYurHHLX3X4JiCrr7JwybrzFnBpANKQ9vgU7fEOwautrCYt32T0nejIHhSgNmHK5lMN0Tiyrz1s8iy6jd8p1GHuxk9v6HtrGXmHRJbsLa+y2/TmEwWem07v7TlESL2cCaXh6N7UkFZ68+D7D+vmjncEVdQ8T58QKMzdnYJswuY1839wTEFd43cbxu6mdoGewZndXSPf9DDDw5Pyj70k6dt5h0QkTvzvie5Dycv1hBXhpmSltNNPZc7hm7ArrMCN/WRNw4nYWmaeaXn1vHr3vYuvrapV9vcW1ETbvkkvKyaN4gvaLK2dnDVDT36vI9avP2glbScXP1fVDf0rG3sEvYPKFT6OTNFOBwOk8mi0hikA8oSerO5YzgpvcrOKfamHi8bFo/DopJLB0ZmhXnr293bj0kuMzkc3Od/LhMrOKJFdmWYmduH+IfnpOfWZeU3ALu2CoTGFtrConnjjQ/8XxY18SsXk8laXN6ISCg2tA7g7f9gE1hY3raMfrfLDJPJ2trBtXeNBUTm8ocf7hq5GVoHPHKOjU4qrXr9dmpm5azhPjyBND232tw+lJZd4x6YYekQrnO4NeEtfVerJxGl1Z1ozPbPKwwEI/jnVHYcnpSZX2/pEK5u4uHsnTqBWj4nsKQvXRlmcM+U8pqu2XnMwvI6sGuowPzi+vQcOjO/wc6JN+pg6RBeUtUhqI4HZOrI+IJfRI6GqaeCBszeOfZlYeP80rutKlgsNp5AGhiZzSlucvV/oW/lr6yDuKHlbPQg4AkyISAyNz23LiOv7mVRU3FVR0VtV1n1m8KK9tyS5qT0qsCoPCevFPNHoRqmvPUpuha+ju5J8c8raht70WvbgjZTkJOzDshkamfPuJNXyuGeG341Db17uIssYD0rfpHOXxlmPqHZfYPTwqsm0lOBwJdXgMlkbW7jUrKqjW0CFTXhLr7Pm08MiNe3Drj6v1A38VDScnrwLDKroGFhef2o40fs3n5n93hEYskjlzgj6wBtc++bekgFDRj/jVFFF6Ft7mNkE6hv5a9xz+uWvquiphPPj7+ui7qJh4GVv/WzyMCovNrG3tW1HWFasKNPzWSxN7dxUUklN/WQcmqOwTH5vCEcFm/bjaPBpHMMMJOOzrKXyj6R3NDKG6lT1kbcNnDLKW4WdAsFD0OjM34etfcJyda656Wk5aR73zcmpWxi+pfuGd8FAOmAOj2Hrqp7G/e8wsYxSuXwqzd/0Y2CBlxRE66oAVfQgMmr8/C7pY+0eBzmHZpdUN46MbW0hyPy3CFfaPMxNptT9fqtLSxaQR2mZuwRmViC3ds/581Q8FxiPwCYiV3SjyFCMoU2PrXkEZihbe6tY+7jE/pyaGz+VG8f+0TyyPhCZGLxPdvgG1pOxg8DvUKy8staRycWfnYWItCCTKFtbO3NLmC6B1C1jX2F5a3puXWJ6VUxKWXh8UUxKWWp2TWZ+fVZ+Q0lVR1dvZNjU4urazsHB9RT/Y0Lov3gwTJ6K6+0RcvMW0XXxfpZZF5pyw6W8MG7xB4AYCZ2SWU+QjabM7+0nlPUpG3uo27s4eSZ0tY1une2Zx4Oh9M/PBObWn7PLviGtvNNPaT5o9DIxJL61oGfPRPT6UzBrhd8afjuetY2dheW11Gz6NHJRdQsegWzvbm1t7WNwxNIYlSQyWLPzK8GRObp3fe9Y+hm7xzbO4gi/tvPnBgTOj8qgNn5+nxyVyEIIlNoVXXd1o6RPN8YTyPzS1qEUWFhaT0jr07HwkdBA87v/ulb+cWmlm9u7Z0zV0OYmC8ZhkKlL61sOHmlyKvDVPVc4tLKpT/qCDC7ZCF+bLfTGczugSn/iJw7hm6qesjYlPLJ6RVhHpJCoWHWd3oHUckZrx7CohQ14Co6CCPrAK/grJMvdcJEKK4wbDaHQqVX1HY9c0tU0IDrW/kVlrdJc2NRLpcLMBNXaX4k8ZAptMyCBqunEap6LtbPoupb+olEspDPxp8jMj23WlbdGRiZ9xAWff9xmIvvc8EmukLGI4lgUzMrMcnv3IAnvKgkkni7kEoioVPjBJidKsune5JIovBc01j4qJt4+EfkDI/Pnz/KB/GWnEFMJotGY5ApNAqVzmCwKBTa6tpOcUV7SmZ1VV33hXeQOFkMEASx2WwKlU4kUfaJZCKJTKbQznd4DEEQk8WeW8AkplfxnbcmpVfhCSSBi+KTqYj9DMBM7JLKdoRkMu1Fzuv7j8NuaDnrWvgWV3bsnjs0x2ZzeKu8Vrf6h2ea2oc6u8fnFjB4wgGdwcQTDrCHzjbE+HWUwWDu7BLa344VlLdm5NblljQ3dQzNLa6d81vAc7mzthORUKJ3309RE25mH1JR23VOeEmUH8BMEqrKcJwMJmtkfD48vkjznqeKDuKZe1JJVccejnhqi0HYPxiZWMjMrw+LL3IPSId5JCN80vwjctOya35eADo7z+NNLFowDidwjaOWXjf1xaVVuPjyfC1aOoTbOEbBPJNDYguKKtuX0JsneSZTaBOo5ZiUclPb4FsGrsY2gc9zaqfn0GLJlfCRAMyE1+qTCMl3ttHWNcqf3qGqh7R3jm1sG9zY/MU5HARBNDpjawfX1TcZm1quec9LRQdxQ9tZVc9FWQehoMHzsurklZL2srb1zcjC8vraxu4FxtB5nT0maw9PXF3bGZtarKrrjk0tf4JMUNVD3jJwVTfx0Db3VjfxUNFB8MZabAJzS5pnFzDEAwqLzeZ7+abTmVPTK89f1vKHc+7ZhYTHF6Fm0VQqXcplCTCTsuAykBwEcckU2ujkwlO3RDVjdxUdhK6F7+umPsHuYQwmC43Zzi5sdEAm3DXyUNCAqR5OPjR/FKpv5X9L31VeHaak5aSi66Jn6fvMPTEmpax/eEbUJ2ey2Fjcfm1jb2hsofWzyDuGbio6CCUtJwUNmMXjMPfAjIiEYo+ADCPrAHl1RwUN3v5PnkGZ/byNESncQy9dmLWd6OQydRNPeXWYvpVfTGrZ6toOjSY9n62CRwaYCaQAB78owOFwCPsH3f1TPmHZmryJVM4OyITiyo6dXTyeQOofnknOeGX1JELN2P2ukbvF47C07JrGtsGeAVRX72RRZXtYfNEzt0QNU88bWrz1nUY2gXDPlOcvaxeXNyjCtSRMJmtyejklq9oBGW9g5X/LgIeutrk3zCM5PbeurWt0fGppZn51fGqpvmUgOrlU25znF1Xb3BvumVxY0TY6sTC7gEl4UWnxOExFB6Fm4pGYXjU6sUCjMaQ5wCgQVAYwYxP2aVMoyuAwpW/gmhttcoq5sQExxeMGcBHPHdzg9q1djfVgOJ1LjOCCYQPnLAVdN2Vd5BNkQkFZa1l1V2hckZldqJIWQsnYX+tJmkNkQ8foGp70rie2gyUMj89X1/dEJ5c6eaX87EfkjqHbDW1nAyv/9JzX84vrgsp3zsH84lpmfr2JbdBNPaS2ubf1s0i4Z0pMSlltUx8as310j2nSMYcwHQAACLBJREFUAWUCtZyYXvXUNYG/BM7OKSYisTgls9rYJui2oZuRdUBQdP7w2LyQhJ+TqwtfkgHMqOMTW76BazaPVs2srrltefoSq2vY+/sXLo+jN6YOQg9eQablV2nGJQyd+Bklyxh5HXc5NZicOkxBCymviZDTcJbT8bwFK9aOmbpXQque4WyemCNFpzMWltaLK9tt4TG39F0Pt2hBVta+PX8knf+FILugwfJxmIIGTM3Iwz0wo6que3YeI9hC6ahKguOWzhGPwAz+y6G8Om9RvIIGTMvM2z8id30TK/BZIggvzQMZwIzSN7Bm92ThXzfmvvvbNTe0sTku8yVrDyeWIkQ0Qt+lQF8kcK/S4qHPI0i/9Zz//n7GP7Q9eQtY1OE/aXv+YBL3B4eGz70Xfx9B/iaRkzEMoU/MyOVwICqVvr2DH5taCo0rPKz38Ojk0pl5zDmrUWg0xs+++N0D0m/qIW8buMalVfQMonb39ikUGvtwbOMsbXEE0tjkYn5ZK2//Cn2ksrazmX1IWnbN+NQSnX41fUVBVmUBs+5ejIXN3Lc/Tn/2xTW3ZTWdvZTnLCxWoO9lDuxqoP8XDf0qnHu19h9hnF+HMn/jMvaNbeX3Zqnfm6X+0abkc1j3/+e99utg6q/Cuf87ips8wF3Gn/msTCarprHX/FHoDW1n3rq19qFzGjTC/sHAyKydU4yKDuLnW7p6J47O9D8zjcMLVCodvbZd3dCT9rI2Mb2q9FUnahZ9hX1FQW4BZuJE96PETAD5//bf+43L+G9cxv+v98avQxi/Cn/3E/BBzLhc7sj4fEhMwR1DNxvHqPzSlnO+DvMcjTT28ZwLmHoifNJE3dmQX7OZLDb1KkYUBVwdOwCYAcyEbS3/I4z96xDar0No/xHKEjAmTGvG5XInUEs8t3NGPNdUqdk152C2ub1XVt1p8ShU29zbMzhrbfMiXQPo8N+xun6Ff8oAZtSRsU1XrxUD06W72tfc1p/CCcVlbPyJ15QLlXBgJ3QzB5LLuu6m9BIqmOSunetoY2F5I6uwQd3EQ8PUMySm4OR0DYFCy+jN2JQyAyt/k4dBsWnlgn0MBQFk8UAGMGOgVwkl5di09N2ElGtu+MISyuAQh8L7PHr5f7VzUHQvFPr2ultEN9S3xsXxNq4489/OLr6+dUDb3PuGljPS7wWFQjvr9WxqZgXmnqxu4mH9LLKwvO2c5aRnJnb9LsgAZlwIglgsiMmUAWOxuByOuEqZxeEy2VyGLBgb4p6/qoTBYE7NrBhY+cupOT5BJqxvYM/ae3ZobN7gQYCKrstTt8TWzpELzNISl/5ijEcWMBPj44KorkgBDgdaXt2ydoxS0UE8eBrZ1TuJw7/3oY1zuHEZjc7oGUTpW/mr6CLgnindA1P87Z2uKNdiSxZgJjYpQUTnK7C5jfMMytQy89K18AmNKyyu7GhqH2rpHGnpHGlqH6pv6X9V3/2qrjv+RSVvQrCui1dI1tzi2tV+Vj7/iYS/CjATXisQ8lIK7OGJ/N1k+J5C5NQclbScbum73tJ35fsPF7j7l1eH3TVyT3hRSTncP+lSqV6PmwFm16McPoFc0OiMmfnVkNjCu0bufKLk1WEKPA+N71z08E8qasBv6iEDI/Pe9k1yrmSerwTKAmAmAVFBlKcpwOHw1ln3Dk6nZtU4eaVomB5O3VJ7tyOPmrGHX/jL2NSy5MxXz1++7hlAbe+ePa/ktPiv8zmA2XUunY8zbztYQlVdt9WTCEEvUU7N0cw+ZGR8YQ9PpFDpFCr9nO/XsigKwEwWS02284wnkDp7xm0Pd8AQkHbfIWwJvcn363bOxGIZfXKAmYwWnAxnG79/0NU3yd9oRoCZpUM4GrPNZLFk+MHOzrqUMOvsGVfUdBIMMcmpOXoFZ3X3T50z6ebsPIMrsq0AjkDq6B63PdxF+hfMnoSvbeyev9RFdh9bSpi97Zu6beCmqAkXyOrq/6K9a5TJ4nlHAf8+KQWwe/sNrQPWjlGCyiCn5vjgaYTA18jHp4aUMBsYmTV5GKT67x135NQcrZ5EZBU00BniWc//8RXMR/xEmPXd1Kwak4dBAsxUdV0cPZI+jumLpxaclDCbmF529k5VN/EQKKthyvNDtLC0fh1W3Z0qDTgpCQUI+wddvRMwj2QNk18G9LUPXQkIv3xTEhmTaJxSwmxldSs1u8bwQYAAMzk1RyPrwPzSlrnFNTKFRqXR6XQmnQHsI1WAzqQeev8eHJmNTS2/Y+iuqOkkqAz3H4W9eFl7vqsPiWIg6cilhBmJRJlALdnCeZuFC0xZ21nf0s83NDu7oKGmsbeje7y7fwrYR6lAR/d4fUt/bnGzR2CG4YMARc33Zn54BmcOjMx+xG8QUsKMv3NcdHIpfymEgDQ5NUcdc58HTyOeuSci/Z67B6QD+ygVQPo9h3kk2zhGaZt5K2n90o4pasJNHwblljRjcfuX3JhT0i3SZeKXEmZc3r4hnI7uMe+QLGUdxNGR/aPIgeNPSgFFTbi6iUd4fNHw2PxlKvH1v1d6mHG5XDqdWdvYa2IbdGxG9idVt8DDChS4Y+T2CBE3ODp36q7W1x8e4XMoVcy4XO76Jra+dcAnNPtk71GgPjj4FBQwfBAQFJXX0T2GwxPPclggfD2+5iGljRmXy6VQ6Z3d4zEpZY8QcWb2IVpmXiq6iE+hYn3Kz6igDruh5XzLwFXH3Mf8UehT14SE55VdvZO0q3ZUKh0+rwAz/oPt4YjDY/O5Jc1uAemG1gH8dUfgvx+rAiq6Lpr3vCyfhPuEvSyqaJtfXCOTz/XRI53qL61UrgwzBpNFJJE3NrGzC5jRiYW+oWlgH7EC/cMzQ2Pz46il+aX1ze09Ms9Tt9h8E0kLlounc2WYXTzL4E6ggKwpADCTtRID+ZVBBQBmMlhoIMuypgDATNZKDORXBhUAmMlgoYEsy5oCADNZKzGQXxlUAGAmg4UGsixrCvz/Pbv2lq25+6gAAAAASUVORK5CYII=;" parent="1" vertex="1">
          <mxGeometry x="402.23" y="390" width="178.46" height="160" as="geometry" />
        </mxCell>
        <mxCell id="HGULL_6P600kTCqMz5Pa-6" value="" style="group" parent="1" vertex="1" connectable="0">
          <mxGeometry x="1230" y="110" width="226.08" height="200" as="geometry" />
        </mxCell>
        <mxCell id="HGULL_6P600kTCqMz5Pa-37" value="" style="group" parent="HGULL_6P600kTCqMz5Pa-6" vertex="1" connectable="0">
          <mxGeometry x="15.833333333333332" y="10.207336523125996" width="210.24666666666667" height="189.792663476874" as="geometry" />
        </mxCell>
        <mxCell id="HGULL_6P600kTCqMz5Pa-7" value="" style="shape=image;verticalLabelPosition=bottom;labelBackgroundColor=default;verticalAlign=top;aspect=fixed;imageAspect=0;image=data:image/png,iVBORw0KGgoAAAANSUhEUgAAAGsAAACRCAIAAABL1NEkAAAgAElEQVR4Ae19h3cUx7I3f9A7n4lCOe+uhEBpJYRyRFkgEFkiZ3BAEmAQwdjga8Bgkkm2r7ExQQib4EDGxteAhEE57u7M9DtV1d0zu9pF0Tb3nU+nNdsz06H619XV1dVhxrB/+k9jTGWawjSVMY0xhTE7YzZ4iPca0KeiUwzB4KmG7p+mf8w/TQDgIBDU0A8gKgSOwIjCOJjmABAR3P+PoKHmNI1pGlNVwYacvwwhGATQVKZKNuRhkEOdAv7tN/88D4rWqCJGCIDKmZDaNQQA7gRGxDDQ3uFPcCjd/VPXNwNB4jDkQcCFZKFKbdnAoCgqCWjOfG8gD+qUudYw3QuSne9GVv+IkUCH5KIADzmN8IUAxJRwzzlQ/EqOlA8MhIqI8h1GHhnNemwnHtSzkD7y6MVCEe/yVhCrpzo0HyVH5USMACK95WJPI986ewQl+MsxFoARESpjDuBqTeWFoBxGD8QhIYi0CaIlH4BnFP7cpjvQQ/keEFGwO+KqjyBKAwQBPmRcXbKqGufokZJuRFCveudUSccgvuCtR4cPghqolUUavMc5syHfUUbQ7G0asxOI8EwSAMqS3u6RWA1DOqReNORMDRFcEFSxJknlcmkvBiK4OJLJILGS4mF4+tXLINMACiCoimp4L4LooPav1zGlZaBZYw6N9WqgtiuyDMP2eEKQtFq66qzvRBYvNqhyo1KZwymDRBp5EHFUeIuQr1w8QPZfiCDAoQE1duFQDCPre4KPBJCU/C4ED3jLgRswnKcAvONAeQeUv1akQGbaX4eghIg0WgfvxYDF8I/KoHthkCCc3nd6Kqmn506Jewo04HNIhbcYWZc8ZVn9+r3yF8lBkQP/lVS7PKchgoRP19Ncw/2N94iaojJyvF6xcRj5QLDnqBJmlINcsMl24C4j3syRVlUKSymmJep/p4faMQ2Z8aoqTFGYQ2F2FRz00dienBvTKOHpAUECwBVCTeOVrKA1BVTVHjtr6VCbXvX++nvz/UdNdx48v/Pg+d2HjeAePAdHHnricsUAeniXtw8b76C7+6jx7qMmdJisc7B7jxrvwVsIfO8xeH79o/n5q86Wrr5uh2JHZVoBaYPaoqaJEbYY4LiWccj3r0XQCUeCz451qyhYpy+ae2/8+OTMlz8c+uzijr2n3t326abqTzZt+eTt2kNv1x7aXH0QXM3BTdWfbK4BT38H4WsObq49tHmrq9tUe2hT7cFNtQc3bz38NrrNWw+7BHu79tA7tYff3frpOzXg3tt69J2awzv2nv7X0Qunv2q4euPen+29vSpxIDRtRVX6WdCGDJlLBGcE6aWxBfLg1Hgddq3PrjlItPQ62GcnLxaVrQwMS53gY/UOSvYKmjEpIGliQNKkQHAThX9iQJJX0AwXNylwBgWbFOjmLSQlA/SL65RUQNIk/+mTA1J8AtMn+6VO8E6a6JM00TfBLzRpRkb5vy/d/rPN3qdBS3ZoILJBVAnbz2vllQtQHm+NCNLYwyAsdPgUFcWKg3H4OnrY8VNX0rMXB4WlB4Vn+YdmTPRPmhSUPDk0dXJo6qTglEnBKV7BKV4hKV4hqXANTpkUlOzJeQUlewUOz83wCpzuHZTsE5TmE5Dp7Z/pE5jtH5zjH5IdEJYZYsmKSyr77PMrjc02mxCEiupQHHbNoYwKfIwxI4I0CLe7qMeoIYJIdoBTHYw9e9F98MiFjJwllimFQWHZpimFyVlLyxZsmb/8/UWr6hatqluwcufClTsXrqqDK3lW1cGtO7doZd3ilXVLVtYtXuHeLcG3Hq47F63YXrlqx5KVu5Ys27tk2b5FVR/Mmb8jOX1ZqCU/KDw7KDwru2DF/kNf/d7YSZqtCrzoQFutk5DyyGMDvRgMgorGbCqzYwfHnjZ1fHbiUnZeVWBoRmBYduz08vlVtYePX7pw6eer1+9d++HhtR8e1v/w4Bq6+h8e1H/P/fTE7bXhxsOGGxDRjcNXFKD/9drN+/U3f6m/9XP9jXv1kO/jK9cffX3xl4NHv1m+dkdkzMwgc3pAWFp2QeX+Q+f/bLPbVBgkQ0MmW8No8KELgjTJYxwtcg0eEdRsKvvqws3S2Rv9g9NDTHmWqcWLV2y/UH/XxgBgbuwwilE+YMBX5O9/Ra3CGGnwfhXahM0OGoGN2ocDx8a9Crt978nCZW9HxOQGmDL8QmdkFSz5rv5OVx+o3SpIdUXYHgbisYHeGxEk67ADolAhMDKNgbAVs9ZOx/t1R8PNM8MsBd4BqfMrt1/6/lEvDgBBfGJ3h8SROQQnNoBWukW1VxqApIdnNnjc9JCoXdkcrFthfQpz2DWbXbMpTHEw1quyJ40dRXPWWqKL/MPSplqL127e3dyh2EGiqxpRNdo8iMjp5CGOcIFxOPYk7GlT55baQ+HmwuCwmZZpxWe//qXFxnqYYoN+Zthq9QggBIYCSx9UDvyrSK1dYZqdsQ4bu3rjj/yyTQHhWRExJQuqql+2AbjYxGTrGIjHBnpv5EHBekYQ4ZmisT4VK/bug6bV6z4ICM4LMRWUzn3n5t0X3Yx1s04bcIFDTrbhnJAuaZADRwSTkSIXP1QcOTKfa3YV+ZHYsLGFLVqxN3RKUUhkYV7xqucvbWBBhEKRAWUUxiWeEeRNmEbBdmiQGrv982+VK96fHJQTbClYvXHf/V9f9THWx/oc0NWQXYQXEHUvTh8oseLPufykZhpei2BD+JUpcmVPwZGcSibDdhtbtfkjc2yJvzk/KWPh06ZuGE4hgkJsDyErt0HdIQhZADmSNqwxuL3946PFK7ZNCM4JjMzf8N5Hj5+8wKExACE4wejBBAypQBJOf6TaIk+4BBvkLaZmTJWypNgOxrpVtnbLBxHWEl9Tflzy3GeNXaBVU5t3omT4N24R5Dq7oRScjW7/+HDRim3jg3MCAMF9j580yR7YCXAj+EQbpeUaiJoSCdBhlkES6ZwP3CmEYPVei7XEx1QQN6PiWWMXtWEcHg8zR5doo4YglkT2r9LjhKUc9AhGBRMZ7wdcwXWNKJFy68FS0Ru9gALBDyzWUh9ToROCqMvoQUfgG10EByi2lPgGBKHDGXlXgwgQL4s2jZIFWnG1RHAe50FRWyPATY86agjqSaLPLad4fih5dhgeqDbEhOqlH4Jb9kVYy3xNRXEzjAhCRi40D+929BDsD8+AFOnNrl/7dt81Cd51eivjuspkVQMla+2WDyMSynzNbz6Czp13P/RkOWVbE6zDg/avgcE/oa7PM4LWWb7mYsGDkC8Nj5Bz+1E6xAejx4OGjEXRqUlSX6HgaMGBVzmJynthEX4AMeo2mGi/Mk1RMdhD9RAPuiIo9dBRaMhDR3C5J23GhZeISprCJ+DsOENm12B2QJiaUBi5hWaQDwWCBtVStAZVYz0KW7flwwjrLF9TCfJgJwzeoSOGgeA/xIPLt40LznbRBwE8dyWGaQl9YsI4MUW2Bvex3Cbl/iFPwEVE8KdOCOqt+E1GUAp6kkjGhgX4kvARdS8Dyy7UXR24B84QUrATgYgVJt4qqoEHAcGK501dwHxvKg/ioh9sTBoN30WfQQMpN3wqQRRlHhAvCCBjCT4W+eBLqVuiNQlbMWoz5qK4ZCOCVJ8G4T1c73DkYP9WjANNWiguWAxB4V2JGMS7AiXuxe+gADQGBvOBCjIVUEVjIeRIIgWHOwLBUl9zYbyOIK+FUehHnOdJhFSC9MHQYqDVMC52JwfRaq6gHQxmlPtsWnNLT0ubrbVDae1UWjrsLR19LR29LZ093MGtraXd3truaG23Nbf3Nnd0D8v1NHf0vWrv7eoD05E0UlJVKLwn+SAiARFMqXje1IkW6jcPQTlH1Wljdx8///jIuboPj9d9+Pmu/ad3HTiz6+MzdQc+rztwqu7AyboDJ9CdhNv9GGD/6Tpwn3tyOz/6vJ87tfMjcHUfndhz4HjdB4cOfnrq+o2fHTiScyhQi2TXRNvM3oiEEuDBNxlBB1gJWQ9jv73s3nfky7CYnPCYgvDYktCY4uDo4rC40pC4kpC44pC4wpC4AnSFIXFFobHFobGloTFloTGzXuNCYmaFRLu4spBocGHRhZaYHFNUUnR8+sa3t4GBn8GMCcxlotKE42IdwWeNnZoKXYlB+R6u/BPxRkcO0nK5PsZu3nuyYuP2/5lk8TelBUfm+ltyvMMyJ4dl+FiywEVk+ESk+0Sk+0Zk+FoyfS1ZfuZsP3POsF2AOSMgfEawOdEveGrZnMqObtWBa/dAiVdhXqwLLAt7IhKKfS0F8SlznzV2aDDP9OYhiMtoYPKmo7vvm+8acgsqrEmF0fEF8UlliakVcTNmx6fMjkuZFZdaFpdaGp9aGp9SGp9SFp8yy5pcbk2ebU0pS0gp9ezKElM8uNSyxNSy+OTi4tnL/nX4TK8DzOWwMAW6EY1bWKt3I4L5bzSCqOLbGLMpir35VeutW3ev1f989eqd+msP6hseX7n28ErDg8sN9y833LtyHdzV6/euNty/2vDgasPD+oYH9Q13r13/2bP75dp1967++t2r1x9euvbwxo+//+d5B/TL2J3BIjhFtWvAg2sAwSJfy9+KoNBOReeMqjC0e7BRL986LjgrIHKms40ap5U1m6o6QM7Qrhm0/MEMKAJMXTWsoELNQz6UwytD1z9otQY1GOQ41JIpL8YUVYO1HYx1aWxNzW5LYpGPjiDOy2LRhCgb0a9bOUgIGoshtZkHi1bUAoJTXBCErk/RbKoG/aEGe+R0+Lmf6BTPpaoolDKDosyVjUE8oaqifgGDg7UWJq5VRYUlPl0aW12z20wIps592tgOtOnEjQg7ijxsBPOMPIjEyzV6qqI4dCKhkES0JB2yFkiiB+A0wDB4BIHbKSr2HZCvqBG0XmAr3mtOKPGxFManznuKPQmWnPJ/YxAUYy19f6bGmM2m2B04CgW8yEgDTdmwVpdM/M5ouoA7wK2mYPeLi4nsTFMUxaFSC8B1Kl0KW1O9z2Kd5WMujk9Z8PR5l4Zr/UcNPw9jksG0YiceJIIU0LVg2QCBBJqtGOMJkcjfCFshSEUhMz0ynhO39gNUhY7XDptDNJum2VVaY4klUFSyUe+3WMt9TaXxKYuePu8GXheJjAIHjiKCMF+k8lVlfPZIrvMXFGOPBF0IDmRls8WBrDTcOHuAPz3/IVCaWOQLSyw5c+ELYeXfHxE/GxFciDwIyb1xPAhEqXZ0BCLQCCXDO06yDgTxuJT8glFfz2xu36JujAZbTRHwQUBUmsG65WDr3iMES+JT3mAEgWixRktxqD099q4uR1u7va3D0dGldXSzti4VndLepbR3OTrIdTo60HV2qcNzHd1qe7fS2mXv6HH02g37MhBBWBbnYOtgzUKpr6nImjL/6fNOxFmXvHq1Dtc3in0xb5xPG5sPHjm9re5fW+sO1e48XFP36bY9x2p2HZWutu5obd2RreCObtt5dOvOo7XDd0dqdh6q2fGvI8e/+uX+f2B1DyiDIFFoP2KvwtZv2RVpLfIz51thVEfaDCf1tRJisIiOGoK0uv/35837D52MmZ4bM6MwNrksNqU8OmXutOS501IqpqbMm5ZSMS25Ijq5Iia5ImbGvFhw88Elz48xuhnzYgbr5sbOmB07vWR6Wtk71XsdGq60JTGrqqqqAYLVOyKt+X7mPGvKnGeNrRqYwQzcOligPIYbKoL3Fy2vHR+cFSg0ak4tyiM7Yw+eNFa/v2+cd7h3cJx3SOLk0CSv0OQJwTMmhaZOCk2bFJrmFZrmFZI2GZ13cJp3cDpcQ1K9Q5OlmxySPEjnHTLDN2SGT1CCT1DsvEXrYEILhyXQSp0R9DfnJaTOedbY9s8juHB5DUfw3Q8e/9YkEXTgStbG5q6T5y/mFC3IKlyUUVCZVlCVWrA8tWBFauHK1MJVqYWr0gpXpRWsSkeXkb86M391RsHKjMJlGUVVw3CZhVVZhUuzC6pKylfu3vcZDYqhG0EENVw5Sjz4X4AgDXgVxtq77HcfPr3ccOdi/d1v6+9fbHh06fvfvml49M01cN9ee/jttYcXrz28WP/wO3CPvqt/eKnhwaXr94fnvmu4f+X7hw9+e9nRDTYrnQdRK3oD5eB9tzyIGh1fQqQqmt3OenrUnl7W0weuu49123TXY2O95PpY78hcj41121kXLkXvc4BhhkaOyIOwtw7nSdz0xU4DTI8iblAvhiwH3SIIWcF5RHbQAB0OFTaeOE8vORHDmxlNEOmaBT0e0hWTkPogH37jimXVAZ0yIPiG6YMeeRD0QRXOhNDQMCJnOAEQrjJzcwxZ8MRVIu2EscsNzdy7uaLabmcORXOAQQvGyGhMU6BC38wxiUcEFQ32/aliiYKCfaLz4AOMNziMdYgrtzIINKUJ0cnTL5aMDh6F2R1an6rBuFhx9MHATuQqEXyjxsUeEYRd+qqigGGEekJkPRrk4hgPjQhkV6UrsSQ1YrnIxhhgCH4+uoOhHdYjEqFosI56zZYP3yjbjEcE0YxAthYohJN0QzFpkIv8Xpd4vKk7GxUI4QGufABOTVe123X7oMZnmtZUo33Q/HfbB7F3RW7CcnId6/aPzgg+AX2QgMBW64AWpym4O0a8oNdGwSZSpNYGdxRmGFfaKa4vaUKJixWkgZ3DxUZd8dfYqIluiQQvKh8yuhTq1o/3Fq6oHR+SExhVgDbqRhmPpJXCFLui9tnUnl6NqzK9qM30sa5+rrOPddLDXtZtcF09bAium3X3sD4b6C5cAIK8ANMCt/JX7zLDTFNBfOq8Z42wZgGtW8Dbxmodtn8Mz9bzFLQRxJs/3Vm4onZcaG5gVOGGLfseP2kkKpB0sHT22m2/P208/9Wl0+cuf36+4dS5hpNnr588//3J89dPnG848cW1E1/Uo7sG/vMNJ85fh1fnrkMw7r4/cea17uz1E2cb0F3D6/fHTzd8+c2tuw+eES/iyAR25CvEg1t2WazFvhawzTxv6qbNnYPSAAYHKiGInSGxU79oLgguWFE7LiTPHYKwAqipue1fn57yDowa7xM1zjt6nHfsWO+4t7xjx/rGjfWLG+sXM9Y/GpxfzDhwseP84sb5xY31jTW4OAjsE/8WuLi3fMCvO198y8PHjPOJGecd/f8mRoaYpq/btJ0WdyKOGig3jHVrbDUi6GcusqYs+GsQ5Go8AdUPP2dpdvOnO4igKw/Supluld269/v6d3eP9Z4yOTjJz5TlZ8r2Cc/yCs3wDs/0NmV6m9K9zWnepjRvU7oPuEyf8CxvU+ZkU8Zkczp3pnS4hYduXcZkkwhpTvMxpfqFzQgMm+4TMLWsvLKrF2bZkQdhroH2k6zesttiLfEzFzsjyLdguCnwEB+NIfZTYE8rzdy6JuDEgz/eWbCiZlyIGwTtjPUy9qJdPfP1jazCqpTcyqSsqoTMyoTMquk5yxJzlibkVCXkLEnIWZwIbsn07Mrp2VXTs5clZlcl5lYm5C0Gl7vYCm6J0SXkVpITDykMXKfnLEzJmZ+cMWvWnGWfHDrV54ChMQokTdNUWvWx+r3XIDgKonCMMEcy7EFd4ZNTCoTjzR/vzF/uBkGQg7RuSmXPX7R/+XXDqTOXT5y+euxzcCfOXjtxtv74uavHz105fu7yiXOXT5y9cvLs1ZNnr5080wDXc1dOnLuEDt9SGH69cgLeXj2BcY+fu3z83CXpTpy9dOrcleOnL35z6cavvzeBIi6VJk11qKgPvrfHMw+OBoJyvseDGOTKyusRBH1EsTMYGHBWhjusHAXngajnk+zME5WmMfliII+LdghtlcFMnVzswbVwnDOkddRr3ttriS/10IpHCUFIhkh3w4JuEBwbkhsgtBlOAiBoY6oNlDCabhfoyAGySNswryTCYB6G56/HUSREVEu+g9Mg7LBwEHaw41oTWoFpQJD3xXjANcnB0UAQDGpCeEBJ+v0Zi0OtGBCcUrD+vQ8eP3kuEMRDAOlcbrE2HPQGkhFkXKAbopzavEDQhbNcbgEpMVpxGejR+FnqpDr5SHQ/HpzvshJ9VFTCMTqCDuTEISIIvQ/HGKcfeFkFU+NbNDf0x8wQRvc6sbyx8gTaoDpQjUv5A6sUcOZDg+l0hJEQZGDdcuZBuZYfCO1X1uE8GEOrDIBvcI94/zSMxbj5E/QkY4NzAqYUbEAehPrX+RBgEpzHZ3Nw3MWXKpBJhnp/HXnKkrLpnz0+MdLQ3w9HLQB2eGqZEUFcR71WysHU+Tgmoc3no4cg02B20HBOo2shjBTrCDrLQRyTwKIFmmTHg0tgth2dgiclOfDAHzj2h07uEkALToBsxCQan3omEWDM35U2AS8xqOyHOUtTKyYEfc1F1tQFT5934DIoyHR0OBBXfcAZQHhihlv6eGaUpScESagbG5rwy2MKuSkQh898gRKFgZLoKAFrwso/CaLhnTv6+FBYtGyDQoHWNNxXB3vcEcH5uHZLPwDBXYJDfjYGpthUG+oihuwN6eilY+w1COolNcQdwCuSxilcOApDoSXkJFlJpPJ0RUoiinhMCBoFo+At1E/RPrgHxsXmQmvqX4UgzW/gFIcQaYJe+DXS7BFBCmTsFI3RBuenRoxXUEege3Chp386QJ1L19Ifwd2IYIGVrx8cdR6kqibijMgJv5Fsjwi6IG2MMxg/HpdEhMBUAFi65aSIoVo4qdgJkR8RRLVaamQ63SqeVLEGxsWwjtqaKu2DgoNF2JH8juF0C17rn5YRgdch2D/moJ/QkkOQjtiXKAo/rQZvCUGDXNX1Sv5QLKczSCEkmiNYvcuSUOhrmWlNk6uARxdBxM6QuWu5h4KgMaxoTa7pudxDQwXTNl7tePYUrR6SqzcNETB9YyZAPODslgHINrOmus6SUOBryftrEaQ2Y6BV90rqtNf3JBBD9ox6N/ua6sbCgxpKO7Z7HKzLBn6DmY9bCmRL1slCn6BNguiUG9kH3SA4yMp1yczDLdhmsCI9EclpIlpv/nSXa9TO+qBI3CjXEURZtH5ES7C7bI4vv71WW/fxivU1lavfXbGuetOWnZcbfvyzracPd3ZJCSfwciJJPiQajLcCwZ3OPDhagxFe6DEiPcpakqE3a0kT8uD9+ctrxwZnu1oWBIT4K8HBRIzxocXBWBYXDMMBsy87lAtXfimpWB8zo9wcU2iKLjBH50+JL6yofOfUl9detNnoGGQ6lIwbrowJigZszF9WlmjFuyxWkIMJaRW0K0x2e8ZYw/Y7r/rgyZB+wClBgklDYzd/fDB/+VYDgk2SXIiq30hmFEXEB4hdnwJbtxx9jDW127+6/KB8yXaf8DyvkJneYYXeoUVeIfneoXn+5txZC9858/UPrT0w5YZnIdPqMDmfJAyBMltCloqAfupJ1lbvgb7YPDMhfd6zJr6vziBlhg0djzgQghwBieBDA4IfPn7yGgSp8ekIwroaUJ1tuPlN6WHatw135iypHeuT5GfKC4kqjrCWRyVVmOPKQqKKAix5vmFpeSUrfvjpSQ9YnskSiHuxqXYEXuIXgZRV6AbB/IQ0QhAm695UBHmtSAYUjQ8fwEp1MN9Bx+tgWlNbx5Yd/wqy5ASac7yCkkrnbzrz7a2mLu3eH+1p+ZXBkTl+oRlTYsoWLat51W7DES+czgg5IDpGAWtsLDoJYkwiePC/GkExakDbIAhBO9MePW1cs3mXT3BaaGRectb80/++3tTR18NYq1374tLt3JJVQabcEFNRWnZlU4sNDR8atmUAkCxlCKvBgKtzI0fZuRX/NyFITcS5FeMdmhkURYMjme//9nTl+ve9A1NCI3IrFr938+7zbtzj3cXYiw62aPmO8MiioNCi+MS5Ta/6BFiwNMuAIOzlpFW/kjf/D/AgNWHBdbjvDQst5tBUDTZeauzh742rN9b5BKYEm7MLZ629eO1Bax/M9nUo7PaDP2cvqA6LKA4JK50+Y+GLV7wV495XkMhYRarCelQ4INb5ky4E4X+zHORcIsxNoicx2O5UBmeOPn3R8m7NR8GmjMDwTL/Q1G17Tt5+8OJZa++d35tXbNw7NWGOf2iOeUpZ6ewNL1vtQi0SZnRIFVZm4ceC/q8hKHlAKsLY8CSCUHQwKPcq7PCxrxJTygPDM4Is2SFRM3NK1yxeszO7ZFVoVIG/Kdc3JCMxZf7+T77o6MalLsTJsgeB0UoPY30IJWb6f0gOyuGdgE00PAAB8NQcKmxA//1Z24GDX06zlgSYs/zNuWHRJRHx5aHTSoIiC/zCshPT59fsPPL0Rbcdh00YEzmaayLAynQS9n9HXwxka0aNOn897IbgK4+I8YxXWm/ppPUahjmKBksy+hT22x/tHx38Yoq10Dc8bTJ8AyHNOzTDKzjFmlZRvfPwTw+f6d/zkuKBEOQ4UpVgzh55cK/FWuRjnvkP64PQNWjsxu0HfFQ3hRDk6wd1+4hAkawGwu7E1QvkQepLQaehyfLmTvbu9o/Ll7yTW7Y6s2j1zFnriyo2bN93/PaDP/rkh4wlWxvhIxbHtDmQbjXqGh1BeWKPaB2C3BH8Dm1McuP2/XnLat8Kzg6Ykr+p+qNfn7ygCVynYwGQGmcERX8CJaSzSmD7EW0kw73B7PfG7oZbTy5cuVt/87cnTd0ddmii8pMYOkDEaAaxoHOe7uMVpjLWpbC11XstCcUwqkub1/iiiw5Pp08SScBHAKDT1zVkOoZxMS87H9X9cOt+xdKat4KyAqIKNm758NcnTXy+mJCRxRNFQB40jEx0BOksQjBt0VaePgfrtbNeBzoF4cPPsogJYKJNzwB8xnqRBBgCkka9ruYDS0KxjynPmipPjdI/2S3LPGzPYHnQpRUHTi1c987ex7816gjKMmDNYllpMIstRpYd6oIO+LFhNwr3EJVbSnFTsgbDPthmiHs1BadQRDLtwFCEWqJBusr2LCqQsR6Nrav9wGIt8g7Pi0+ZK1rxP4EgSa+bIAe3jg3JQQShJ6FWDABI5dkZQZe4vbkAABC0SURBVL6cSkeQPsvODS3IRrzAGmwFgNNCcEYUzkMgM7XgDm6Kxd2H/FNbhu6EJ8IDUwXiPMk6lIPeyIPQimGFMFo5MIZIfPi/g+VBQuDG7fvzl9WODckONLRiJEkgRL+8OMCDiKChvfEAkoeQdEBC0xSbqvTAEnxQdTBVsewGAxHnQvPHk/fpgDKaXMH3Imu4Qb+KPLiWehITyUFYR43HIQEbCu7G6MO9DA3BH27dn7esZmxwtj/0JPupJ0H+k30kr1kqAiFoZDQqGxJvaH84VYzHPEEPY3fYaAUArYLAHpxQkbkQ6/NujAPhCcHqPeb4Qh/zzMT0+WAfVGAe8B/rSW7//HjRyu1jQ3L8IvJWbdz16Fexdkv0sLJliL7Y0BaphIQbFNrIAaqq2aH9wrJJMIERU+L2Hs5Q3KQno0Nq4p/Yxx2CXQpb9W5deFyBrzk/KXPhs8YOFb7vwtf0GCkYLgu66YuNBYVk8Z53mvcePluxYe+ksJl+ETPnL91y58FT0UqpVYpxK49F6+CENDMmTH5RArRdg/ijtUOihcNKXlxAh0wsnurWUUpEFr3frUNjzd2sav32sJj8wMiitLyqppc91INjRjRYlPGH6TG2YudiiQSRm+DrLQ6V/edp+8b3DvqbioIiihNSF9TfeILfJ4EVRqi4CEgwrkhOPBT3VCdOLAgbGh24IgnWLuGqV1zUDVGoD8OFZcYUiIelYgi8iZTic0Bbg2Mqfnr4Z/G8DYGWLNO00tKKzS+a4QghrAuHQ7OhV5RzuL8uCFID4ixEhcTxmY0QbGlj23eeDrPMDjaV+ofl1e4+/ct/XnYwRw98iE0gNSxSFFVf4oXf28S9wogbTkvBghoiDrPh2gzAK6ZPEEEQcbQUrcvGHv3RXlN3LD5lnm9IelTc7FXr971sheBo8+hV0CoxLGKdIrkgSAYVJwRxQAyfKYOhvMKOnriclLokIDTXPyzHFF1UvefIr6/aW2yKjRS64V7hFFW0E+CXNoFNkPngSn2w0xHgKCjpCVSc+M49jLVVAKbTwR7+0bbv4PkgS7q/KT3QlD4jfcHHh79ux33wKJsp9ohqnYDsj6CQZXricOIuamGwzPCPps6PPvkiyJQeEJ4ZYMqKSixdsXnv42fd3fi1K9oUS30krXcj/+uvdtxNbdfgKFJubyEEsT1LZKHQoobgC8SIeB9+ltMmjjHtZazNwX7+raV2z7FJwVY/c4q/OSXKOnP9ux8AhTTTKrsjJ2Ya5o1bBLHx6AlCU8FzSGwOpnQ71Ef/eXng8PmImDy/0LRAc06UdU5+2YZlq3esXr9jzfqdazbsXLuxbs0G8JB/7ca617t1m3av3bhr2drtlWu2rd68a/XG7Ws3bV+/ceeG9bvWb6xbs2n76s1bV2/asWbjrrUb69Zv2LF+w/trN+5cvXHXqs07VmyuXbbpvWWba5Zvfn/Z5p0r39k3b+X7ObPWTksu97Ok+ZmToxLza+o+efy0hQ5dBmkpOyWdS/TSDtXngqBM2yUdWhtkh+3QTO22O359+nLnvs/ik2f7Bqf7h80MMM20xJVGWItdXGRCCXf9XsmQkdaSKQllEdZZpviyMOssc+KsyOmlkdbCKGvJNOusKfHFkQkFlsT8iISiCGvpFGtJVHzR1PjCKZBgqSWhKGJ6gSUxz5JQEJFQGpEw2xJfHhY9OyCiwCcsyzc8LdI6s3b3wV8eg5VMHFs9qrqM88ll1NVxbYz6OgOQKg4GaL68r0ex//Giveb9Qxm5y6OiF4RFzfExF0w0504w5UwIzx4fnj3BlA1+cOAfjw89XHMmmGZONBd5Rc6aFDVnfETJpMjCiaacSWG5XqF5k0KzJ4Rnjjeljw/PmhCWOzE0Z1Jolldo5sSwrPFhORPCsyaGZ04Kz5gUluMVWjA5pGhCQKF/eHloVEVE3LzE9EWbag/c//1PhE9R4AOyNo31aRpudhlZ1yeRMfKgfEg6giuLY6cMGzhVWHSg2Bh7/rL7s5NXK5ftmT2vZkZOpTVrflxGRWz63Jj0ubHCxaTPGcjNi89cYkmYGzCtzDuy1CeycMqMufEZ8+NS58XNqLCmzYtJK49OmxWTOicmpSI2pSI+ZU58yuzYlHJ4kloenVIam1Yamzo7NnluXPL8uKQFGbmrS+a8s3T17g8OnG3p4p/PVkAQgSwCiQQ7oF0klSz7kD39EOS4ET9iclILA7bUcIKRPoQK3yXsc8D24a5e1trFmru0Vx3qy3aF3KsO9VUH98uHbjwdrK2X7T5wPjmn0jssM3xa/umvbv72tKOlnbV3sOY27c82+4t2259tystW7VWr2tyitLTaX7U6XrY5/my3vezobenu+7Otp/FVT3O72trOOrtgt3JPH5zJQkMiXJhIuj+qO7BSbchIeYrgjKCOmxNswO/ocPsidIM0tqfPGYOVCfs442Jz8NOoGC0trq8MD+G4CcY+Pnw+M2+Rb3ByWETat9/dam3rhbXoqF5DAOpDacjCD0fBUy9g+6EN9gdoDhgO4gmwNGgBJkOY6FhJfjYrnmPhvol5Qmig584I6qNVgZkY1hGCtCGJmjPqN2DBk4qujDMkDxmtDnx6Nj1v4eSg5NDI9G8u32rr7IVBCTIP9m4CEJk0nzUGU4uACn/pzijMaRwHapB+eoGkeSB8Bn7fD0EexUCp9EoPhKGCg4keHXAJZ1TJsYPz0Och9396OjVvgVdQclhU5oXLt1o6ewAKGBCTgQZGGkLAkD5CB+eKIbOEjGuedHCGOLJFUE6/UuEYlabsgqDMwrmSBAUcE44yUUISWk7duAQd+NaA4EKvoLTQKdmIYDdNDhgR5MKfj3/p9Bp8xjMhpsVNVGS+ct2UAnSLkbRkXV6YYf8YEZT2dxrxSFAGTFzCNGBINwE4gkfOpOUt8QrMCp2Sd+Hy7ZZOQhA4irZK6cZWyA1wELJUjneor6Alxf2vNGDl57nQovdR50FqmDSsIhCdOdFN8UfhkQHBSq/A3NDI/AuXf2rp7EaBxhEURi7MjuoLWreCH0Z3umKvA81CrM528VC3R7M7owKgk32QeFBmySsNRZ7kMk6+jpx8oz8ams+AYJVX4MywyMILl35uRTkIKKEwJCEo5CDvOYg38YQtDhhRLPiLWrvoR6D56n9ON/rj4fhcWjFJCaJEtmVqzrqsFphifhLB4RIlEDyblrvMK6AgLKL4wqVf2jp6IT2BoF5vQozRLmuacZZ1LimmDtmJNOON9A8HMdc4RgTlO4kj0eY8Z8tlsV4o5+5FJjJYDyF44MiZtNylkxHBby793NbZjQhyWaxn5oyglDLG6pX4SA+Q4nQzWNoGE84ZQSdK+dwYWiQxKae31BEPvrfxSIzQB0+nI4LhEUXfXPqprbMLNRkujtGmJWggtKAhUAs1oiPrXmIr8tWJN3TIzk1bBB3arzsEeXvkizKwzRqplBTINjQiHI0IevsXGBBU8Xv2YFJBra8/gthYJVcCnlzBwm7Euek4CRnKk8geGl79Q48R2BgVKwomSROxnKrR2DCcqBOhB/vLETxyJiN3mY9ffpi58Jvvfm7t6MFEaTsJJkW5S6LgNUIgn3MqXO890CET4jJTrySBiDDmyh5JlwTGAo+BwSeQAhYLpyBGSsjvgZYRPhZy8Gxm7nJf/wKTufjb7+62tvdhlTqAPCos0SAFHhSC2vhI8tdlkZwpE+UmlpYfqKERpk6LzHUM7PEAaw98l4KPHPuBz2tBRhpVD3zdi7H9R89k5C31Dcg3RxZ/e/nuq7Ye+E4B32Knc4VTHXMEjQwxVMqwcqh4FNU1MXm0JA/k+h4trAJ01PT1Gw9kj3oAmB5ibP9np1NzF0/yzQyLmPnv73582d6N7GdDux7ghn/iF25o7sFBncwwqNKTlL0OpSJvKReas6aqAxgxZx4ZfqAnUVVNgYUC/O0wqBlJFPrW3YHjp9PzF08OyAiLzPvq4q1XnRxBNEdKwmA0Jxx+GQrsXjBxPgynI2iMbJQS8FyMKsHEIeAjySlAHAN8TGec0HCTuNXtVcQZzV9cld7H2IGjJ9PzFnj7p4ZZsi5cutUCCKoOmLyEpfrCGRFkYuOnkTGHRBql6oyHyEkkJCwbwq4HpDjHGMPH5Rw+GkR5FoQyg1HzgAJiZ+zAkeOZufP8AlLMEZnfXbnd1kUI0hpDhBDKJMDiv9QHCtYYKkncLuz0iTbkaGQq+AqHYEiw9Art06mNA01jYFtGr9rS1tvc2tvaZmtts//NrrnN8bJD3f3xqdScSr+gXNOUwnP/vv3kecfLdtur9p5X7b3NbY7mNhWvtuY2e3Obgrf25va+5ra+ljZbS6vdk2tutTW3eHCtfc1tPS/bul61dcOnV9t7XrZ2N7f1tLR3N7d1Nre299kVUkSBD8VpStQ4BYcigipjd+49OX7yi+OnLhw98d2RE1c9uU+PX/kr3OET9UfP/rB4zZ7opMXewSVBllnrt3z20acXD5+6evjUpYPHLx46fuXQsatwPX4Z/fWHjtXj7aVDxy8dPnbZ1X12+dBnlwZ2x747dOziwWPfHD727afHLx4+/u3Bo19/evzCkRP/PnT03OFjZ180d9KHQJHV6Ywc6la4MCEcgQc/OXzSOj0zLjE3JrEkOrH8L3HT50S7cZDXtOlzopLmmuNnB08tD7BUBEbMiUyYPzVp7tSk8qnTy6YlzZ46vXxq4hxw3DN3amIF3s6eNn129PRykXL5tMQhOYg7LXFWdOLs2OnlMYll06zFMYnFMYkFUbGZ1hl5dx4+7exTydgHnyHDaRsHbEwlgzkXJWMcGtu5+8Bk37CJ3qbxPlPG+U7z5Mb6TH2N8xRrwOdjfae95TttXED8hMDkiQGZEwPSxvsnjvOLHus7daxv1Di/qZCCT8w43+ixvtPGwjVmrE8seqaN9cW3nml+Xe4+0eN8Ysf5xI/3sU7wsY73jh3nHTPBJ3q895T/GR/iEzjl1p1f23tgPRAuL6FPTvFzsIRQxFbs0NiFb6+tWvvOirXvLVu3pWpdjWdXXbnOvataV+051msS5K8q19dUrq+tXPd+1ZrdVWvrqtZtw9Sqq9ZvqVpXvXRdzdK1tUvX1eLD2qp1WzHA1pHkCHHXbqtcs7NqzZ6la/YuXb2natWupWt2LVuzc+nqbUuWv7tyfc1vT1912Qg+ZsMzxGhlHvKgPlSHVgwmXZxylGt8aFHPP3AV64lk1kbbn/TLtyP00JYVuGqgN1FqAIIG+636UJtHIag5cFGdnIiR+9R4XwyDQ8MnvIeqFYxKeK7y8WG+rgFKVdCTZ9i5yyEx6UTyKtUVShmWDMNMNLf0QF+MI3bZHY+BCKRRk2QcNkUjiSiVUqGBIU2onOlPUJV1uR1JplAn1AL5ygbUWvhhkKAYY8cLKj9IPyH6iAChmAIPcuLhOxWjs65YVs4QPCMCYgj59AuKeABfiTcGSnCrG81xiZkuGpC4jknEGWEOxTh+8tRo/pLn/cgXDwbxayjykGmDCJKpjX7CCK40PHstgvhJFGJEl1HnkAkadmEEUCSanKtYvINfmYH041v5eEgenrCnOE6vEUHIHv+cReEYVXHgyRFw+oE+8ORh/+YfaXwXtLrk77a0LmGGcCu5DtIl2yihJPIhywxfzcw3CVE9GggcI+YWRjTXMQSyXxf070YQd1FRwYnxARgJH8xHgxJDyxygWxGn+kluhML8L+2qk8bbINvzAAAAAElFTkSuQmCC;" parent="HGULL_6P600kTCqMz5Pa-37" vertex="1">
          <mxGeometry x="15.833333333333332" width="101.19999999999999" height="137.14285714285714" as="geometry" />
        </mxCell>
        <mxCell id="HGULL_6P600kTCqMz5Pa-9" value="" style="shape=image;verticalLabelPosition=bottom;labelBackgroundColor=default;verticalAlign=top;aspect=fixed;imageAspect=0;image=https://cdn.icon-icons.com/icons2/2699/PNG/512/zabbix_logo_icon_167937.png;" parent="HGULL_6P600kTCqMz5Pa-37" vertex="1">
          <mxGeometry y="112.28070175438596" width="36.57142857142857" height="36.57142857142857" as="geometry" />
        </mxCell>
        <mxCell id="HGULL_6P600kTCqMz5Pa-8" value="" style="rounded=0;whiteSpace=wrap;html=1;fillColor=none;" parent="HGULL_6P600kTCqMz5Pa-37" vertex="1">
          <mxGeometry x="-19.5" y="-3.1818181818181817" width="149.5" height="192.97448165869218" as="geometry" />
        </mxCell>
        <mxCell id="HGULL_6P600kTCqMz5Pa-31" value="&lt;b style=&quot;&quot;&gt;&lt;font style=&quot;font-size: 22px;&quot;&gt;Agent Zabbix&lt;/font&gt;&lt;/b&gt;" style="text;html=1;align=center;verticalAlign=middle;whiteSpace=wrap;rounded=0;" parent="HGULL_6P600kTCqMz5Pa-37" vertex="1">
          <mxGeometry x="-99.75333333333333" y="159.792663476874" width="310" height="30" as="geometry" />
        </mxCell>
        <mxCell id="HGULL_6P600kTCqMz5Pa-36" value="&lt;font size=&quot;1&quot; style=&quot;&quot;&gt;&lt;b style=&quot;font-size: 24px;&quot;&gt;Serveur DNS&lt;/b&gt;&lt;/font&gt;" style="rounded=0;whiteSpace=wrap;html=1;" parent="HGULL_6P600kTCqMz5Pa-6" vertex="1">
          <mxGeometry x="-3.6666666666666288" y="-40.002663476874" width="149.5" height="60" as="geometry" />
        </mxCell>
        <mxCell id="HGULL_6P600kTCqMz5Pa-18" value="" style="endArrow=classic;html=1;rounded=0;entryX=0.107;entryY=0.549;entryDx=0;entryDy=0;entryPerimeter=0;strokeWidth=2;" parent="1" edge="1">
          <mxGeometry width="50" height="50" relative="1" as="geometry">
            <mxPoint x="-400" y="520" as="sourcePoint" />
            <mxPoint x="-230.11918000000014" y="520.06107" as="targetPoint" />
          </mxGeometry>
        </mxCell>
        <mxCell id="HGULL_6P600kTCqMz5Pa-20" value="" style="endArrow=classic;startArrow=classic;html=1;rounded=0;strokeWidth=2;exitX=0.422;exitY=0.139;exitDx=0;exitDy=0;exitPerimeter=0;" parent="1" source="HGULL_6P600kTCqMz5Pa-74" edge="1">
          <mxGeometry width="50" height="50" relative="1" as="geometry">
            <mxPoint x="478" y="721.62" as="sourcePoint" />
            <mxPoint x="478.4" y="550" as="targetPoint" />
          </mxGeometry>
        </mxCell>
        <mxCell id="HGULL_6P600kTCqMz5Pa-21" value="" style="shape=image;verticalLabelPosition=bottom;labelBackgroundColor=default;verticalAlign=top;aspect=fixed;imageAspect=0;image=https://assets.zabbix.com/img/5.2/screenshots/1-monitoring-dasboards.png;" parent="1" vertex="1">
          <mxGeometry x="-220" y="400" width="309.37" height="190" as="geometry" />
        </mxCell>
        <mxCell id="HGULL_6P600kTCqMz5Pa-22" value="" style="sketch=0;outlineConnect=0;fontColor=#232F3E;gradientColor=none;fillColor=#DD344C;strokeColor=none;dashed=0;verticalLabelPosition=bottom;verticalAlign=top;align=center;html=1;fontSize=12;fontStyle=0;aspect=fixed;pointerEvents=1;shape=mxgraph.aws4.network_firewall_endpoints;" parent="1" vertex="1">
          <mxGeometry x="803" y="452" width="90.98" height="90.98" as="geometry" />
        </mxCell>
        <mxCell id="HGULL_6P600kTCqMz5Pa-23" value="" style="points=[[0.35,0,0],[0.98,0.51,0],[1,0.71,0],[0.67,1,0],[0,0.795,0],[0,0.65,0]];verticalLabelPosition=bottom;sketch=0;html=1;verticalAlign=top;aspect=fixed;align=center;pointerEvents=1;shape=mxgraph.cisco19.user;fillColor=#000066;strokeColor=none;" parent="1" vertex="1">
          <mxGeometry x="-520" y="434.51" width="90" height="90" as="geometry" />
        </mxCell>
        <mxCell id="HGULL_6P600kTCqMz5Pa-25" value="" style="sketch=0;outlineConnect=0;fontColor=#232F3E;gradientColor=none;fillColor=#DD344C;strokeColor=none;dashed=0;verticalLabelPosition=bottom;verticalAlign=top;align=center;html=1;fontSize=12;fontStyle=0;aspect=fixed;pointerEvents=1;shape=mxgraph.aws4.network_firewall_endpoints;" parent="1" vertex="1">
          <mxGeometry x="213.51" y="434.51" width="90.98" height="90.98" as="geometry" />
        </mxCell>
        <mxCell id="HGULL_6P600kTCqMz5Pa-26" value="&lt;font size=&quot;1&quot; style=&quot;&quot;&gt;&lt;b style=&quot;font-size: 25px;&quot;&gt;Administrateur système&lt;/b&gt;&lt;/font&gt;" style="text;html=1;align=center;verticalAlign=middle;whiteSpace=wrap;rounded=0;" parent="1" vertex="1">
          <mxGeometry x="-542.5" y="570" width="135" height="30" as="geometry" />
        </mxCell>
        <mxCell id="HGULL_6P600kTCqMz5Pa-27" value="&lt;font size=&quot;1&quot; style=&quot;&quot;&gt;&lt;b style=&quot;font-size: 25px;&quot;&gt;Interface web zabbix&lt;/b&gt;&lt;/font&gt;" style="text;html=1;align=center;verticalAlign=middle;whiteSpace=wrap;rounded=0;" parent="1" vertex="1">
          <mxGeometry x="-195.32" y="600" width="260" height="30" as="geometry" />
        </mxCell>
        <mxCell id="HGULL_6P600kTCqMz5Pa-28" value="&lt;font size=&quot;1&quot; style=&quot;&quot;&gt;&lt;b style=&quot;font-size: 25px;&quot;&gt;Firewall (HTTP/HTTPS)&lt;/b&gt;&lt;/font&gt;" style="text;html=1;align=center;verticalAlign=middle;whiteSpace=wrap;rounded=0;" parent="1" vertex="1">
          <mxGeometry x="104" y="536" width="310" height="30" as="geometry" />
        </mxCell>
        <mxCell id="HGULL_6P600kTCqMz5Pa-29" value="&lt;font style=&quot;font-size: 25px;&quot;&gt;&lt;b style=&quot;&quot;&gt;Firewall&amp;nbsp;&lt;/b&gt;&lt;/font&gt;&lt;div style=&quot;font-size: 25px;&quot;&gt;&lt;font style=&quot;font-size: 25px;&quot;&gt;&lt;b style=&quot;&quot;&gt;(Ports :&lt;/b&gt;&lt;span style=&quot;color: rgb(34, 34, 34); white-space-collapse: preserve;&quot;&gt;&lt;b style=&quot;&quot;&gt;&lt;font style=&quot;font-size: 25px;&quot; face=&quot;Helvetica&quot;&gt;10051/TCP , 10050/TCP&lt;/font&gt;&lt;/b&gt;&lt;/span&gt;&lt;b style=&quot;&quot;&gt;)&lt;/b&gt;&lt;/font&gt;&lt;/div&gt;" style="text;html=1;align=center;verticalAlign=middle;whiteSpace=wrap;rounded=0;" parent="1" vertex="1">
          <mxGeometry x="607.12" y="340" width="433.76" height="30" as="geometry" />
        </mxCell>
        <mxCell id="HGULL_6P600kTCqMz5Pa-30" value="&lt;b style=&quot;&quot;&gt;&lt;font style=&quot;font-size: 25px;&quot;&gt;Serveur Zabbix&lt;/font&gt;&lt;/b&gt;" style="text;html=1;align=center;verticalAlign=middle;whiteSpace=wrap;rounded=0;" parent="1" vertex="1">
          <mxGeometry x="324.22999999999996" y="340" width="310" height="30" as="geometry" />
        </mxCell>
        <mxCell id="HGULL_6P600kTCqMz5Pa-34" value="" style="endArrow=classic;startArrow=classic;html=1;rounded=0;strokeWidth=2;exitX=0;exitY=0.5;exitDx=0;exitDy=0;edgeStyle=orthogonalEdgeStyle;" parent="1" source="HGULL_6P600kTCqMz5Pa-3" edge="1">
          <mxGeometry width="50" height="50" relative="1" as="geometry">
            <mxPoint x="-60" y="631.62" as="sourcePoint" />
            <mxPoint x="-60" y="650" as="targetPoint" />
          </mxGeometry>
        </mxCell>
        <mxCell id="HGULL_6P600kTCqMz5Pa-35" value="" style="endArrow=classic;startArrow=none;html=1;rounded=0;strokeWidth=2;endFill=1;startFill=0;" parent="1" edge="1">
          <mxGeometry width="50" height="50" relative="1" as="geometry">
            <mxPoint x="790" y="475" as="sourcePoint" />
            <mxPoint x="548" y="475.3" as="targetPoint" />
          </mxGeometry>
        </mxCell>
        <mxCell id="HGULL_6P600kTCqMz5Pa-42" value="" style="group" parent="1" vertex="1" connectable="0">
          <mxGeometry x="1230" y="380" width="226.08" height="200" as="geometry" />
        </mxCell>
        <mxCell id="HGULL_6P600kTCqMz5Pa-43" value="" style="group" parent="HGULL_6P600kTCqMz5Pa-42" vertex="1" connectable="0">
          <mxGeometry x="15.833333333333332" y="10.207336523125996" width="210.24666666666667" height="189.792663476874" as="geometry" />
        </mxCell>
        <mxCell id="HGULL_6P600kTCqMz5Pa-44" value="" style="shape=image;verticalLabelPosition=bottom;labelBackgroundColor=default;verticalAlign=top;aspect=fixed;imageAspect=0;image=data:image/png,iVBORw0KGgoAAAANSUhEUgAAAGsAAACRCAIAAABL1NEkAAAgAElEQVR4Ae19h3cUx7I3f9A7n4lCOe+uhEBpJYRyRFkgEFkiZ3BAEmAQwdjga8Bgkkm2r7ExQQib4EDGxteAhEE57u7M9DtV1d0zu9pF0Tb3nU+nNdsz06H619XV1dVhxrB/+k9jTGWawjSVMY0xhTE7YzZ4iPca0KeiUwzB4KmG7p+mf8w/TQDgIBDU0A8gKgSOwIjCOJjmABAR3P+PoKHmNI1pGlNVwYacvwwhGATQVKZKNuRhkEOdAv7tN/88D4rWqCJGCIDKmZDaNQQA7gRGxDDQ3uFPcCjd/VPXNwNB4jDkQcCFZKFKbdnAoCgqCWjOfG8gD+qUudYw3QuSne9GVv+IkUCH5KIADzmN8IUAxJRwzzlQ/EqOlA8MhIqI8h1GHhnNemwnHtSzkD7y6MVCEe/yVhCrpzo0HyVH5USMACK95WJPI986ewQl+MsxFoARESpjDuBqTeWFoBxGD8QhIYi0CaIlH4BnFP7cpjvQQ/keEFGwO+KqjyBKAwQBPmRcXbKqGufokZJuRFCveudUSccgvuCtR4cPghqolUUavMc5syHfUUbQ7G0asxOI8EwSAMqS3u6RWA1DOqReNORMDRFcEFSxJknlcmkvBiK4OJLJILGS4mF4+tXLINMACiCoimp4L4LooPav1zGlZaBZYw6N9WqgtiuyDMP2eEKQtFq66qzvRBYvNqhyo1KZwymDRBp5EHFUeIuQr1w8QPZfiCDAoQE1duFQDCPre4KPBJCU/C4ED3jLgRswnKcAvONAeQeUv1akQGbaX4eghIg0WgfvxYDF8I/KoHthkCCc3nd6Kqmn506Jewo04HNIhbcYWZc8ZVn9+r3yF8lBkQP/lVS7PKchgoRP19Ncw/2N94iaojJyvF6xcRj5QLDnqBJmlINcsMl24C4j3syRVlUKSymmJep/p4faMQ2Z8aoqTFGYQ2F2FRz00dienBvTKOHpAUECwBVCTeOVrKA1BVTVHjtr6VCbXvX++nvz/UdNdx48v/Pg+d2HjeAePAdHHnricsUAeniXtw8b76C7+6jx7qMmdJisc7B7jxrvwVsIfO8xeH79o/n5q86Wrr5uh2JHZVoBaYPaoqaJEbYY4LiWccj3r0XQCUeCz451qyhYpy+ae2/8+OTMlz8c+uzijr2n3t326abqTzZt+eTt2kNv1x7aXH0QXM3BTdWfbK4BT38H4WsObq49tHmrq9tUe2hT7cFNtQc3bz38NrrNWw+7BHu79tA7tYff3frpOzXg3tt69J2awzv2nv7X0Qunv2q4euPen+29vSpxIDRtRVX6WdCGDJlLBGcE6aWxBfLg1Hgddq3PrjlItPQ62GcnLxaVrQwMS53gY/UOSvYKmjEpIGliQNKkQHAThX9iQJJX0AwXNylwBgWbFOjmLSQlA/SL65RUQNIk/+mTA1J8AtMn+6VO8E6a6JM00TfBLzRpRkb5vy/d/rPN3qdBS3ZoILJBVAnbz2vllQtQHm+NCNLYwyAsdPgUFcWKg3H4OnrY8VNX0rMXB4WlB4Vn+YdmTPRPmhSUPDk0dXJo6qTglEnBKV7BKV4hKV4hqXANTpkUlOzJeQUlewUOz83wCpzuHZTsE5TmE5Dp7Z/pE5jtH5zjH5IdEJYZYsmKSyr77PMrjc02mxCEiupQHHbNoYwKfIwxI4I0CLe7qMeoIYJIdoBTHYw9e9F98MiFjJwllimFQWHZpimFyVlLyxZsmb/8/UWr6hatqluwcufClTsXrqqDK3lW1cGtO7doZd3ilXVLVtYtXuHeLcG3Hq47F63YXrlqx5KVu5Ys27tk2b5FVR/Mmb8jOX1ZqCU/KDw7KDwru2DF/kNf/d7YSZqtCrzoQFutk5DyyGMDvRgMgorGbCqzYwfHnjZ1fHbiUnZeVWBoRmBYduz08vlVtYePX7pw6eer1+9d++HhtR8e1v/w4Bq6+h8e1H/P/fTE7bXhxsOGGxDRjcNXFKD/9drN+/U3f6m/9XP9jXv1kO/jK9cffX3xl4NHv1m+dkdkzMwgc3pAWFp2QeX+Q+f/bLPbVBgkQ0MmW8No8KELgjTJYxwtcg0eEdRsKvvqws3S2Rv9g9NDTHmWqcWLV2y/UH/XxgBgbuwwilE+YMBX5O9/Ra3CGGnwfhXahM0OGoGN2ocDx8a9Crt978nCZW9HxOQGmDL8QmdkFSz5rv5OVx+o3SpIdUXYHgbisYHeGxEk67ADolAhMDKNgbAVs9ZOx/t1R8PNM8MsBd4BqfMrt1/6/lEvDgBBfGJ3h8SROQQnNoBWukW1VxqApIdnNnjc9JCoXdkcrFthfQpz2DWbXbMpTHEw1quyJ40dRXPWWqKL/MPSplqL127e3dyh2EGiqxpRNdo8iMjp5CGOcIFxOPYk7GlT55baQ+HmwuCwmZZpxWe//qXFxnqYYoN+Zthq9QggBIYCSx9UDvyrSK1dYZqdsQ4bu3rjj/yyTQHhWRExJQuqql+2AbjYxGTrGIjHBnpv5EHBekYQ4ZmisT4VK/bug6bV6z4ICM4LMRWUzn3n5t0X3Yx1s04bcIFDTrbhnJAuaZADRwSTkSIXP1QcOTKfa3YV+ZHYsLGFLVqxN3RKUUhkYV7xqucvbWBBhEKRAWUUxiWeEeRNmEbBdmiQGrv982+VK96fHJQTbClYvXHf/V9f9THWx/oc0NWQXYQXEHUvTh8oseLPufykZhpei2BD+JUpcmVPwZGcSibDdhtbtfkjc2yJvzk/KWPh06ZuGE4hgkJsDyErt0HdIQhZADmSNqwxuL3946PFK7ZNCM4JjMzf8N5Hj5+8wKExACE4wejBBAypQBJOf6TaIk+4BBvkLaZmTJWypNgOxrpVtnbLBxHWEl9Tflzy3GeNXaBVU5t3omT4N24R5Dq7oRScjW7/+HDRim3jg3MCAMF9j580yR7YCXAj+EQbpeUaiJoSCdBhlkES6ZwP3CmEYPVei7XEx1QQN6PiWWMXtWEcHg8zR5doo4YglkT2r9LjhKUc9AhGBRMZ7wdcwXWNKJFy68FS0Ru9gALBDyzWUh9ToROCqMvoQUfgG10EByi2lPgGBKHDGXlXgwgQL4s2jZIFWnG1RHAe50FRWyPATY86agjqSaLPLad4fih5dhgeqDbEhOqlH4Jb9kVYy3xNRXEzjAhCRi40D+929BDsD8+AFOnNrl/7dt81Cd51eivjuspkVQMla+2WDyMSynzNbz6Czp13P/RkOWVbE6zDg/avgcE/oa7PM4LWWb7mYsGDkC8Nj5Bz+1E6xAejx4OGjEXRqUlSX6HgaMGBVzmJynthEX4AMeo2mGi/Mk1RMdhD9RAPuiIo9dBRaMhDR3C5J23GhZeISprCJ+DsOENm12B2QJiaUBi5hWaQDwWCBtVStAZVYz0KW7flwwjrLF9TCfJgJwzeoSOGgeA/xIPLt40LznbRBwE8dyWGaQl9YsI4MUW2Bvex3Cbl/iFPwEVE8KdOCOqt+E1GUAp6kkjGhgX4kvARdS8Dyy7UXR24B84QUrATgYgVJt4qqoEHAcGK501dwHxvKg/ioh9sTBoN30WfQQMpN3wqQRRlHhAvCCBjCT4W+eBLqVuiNQlbMWoz5qK4ZCOCVJ8G4T1c73DkYP9WjANNWiguWAxB4V2JGMS7AiXuxe+gADQGBvOBCjIVUEVjIeRIIgWHOwLBUl9zYbyOIK+FUehHnOdJhFSC9MHQYqDVMC52JwfRaq6gHQxmlPtsWnNLT0ubrbVDae1UWjrsLR19LR29LZ093MGtraXd3truaG23Nbf3Nnd0D8v1NHf0vWrv7eoD05E0UlJVKLwn+SAiARFMqXje1IkW6jcPQTlH1Wljdx8///jIuboPj9d9+Pmu/ad3HTiz6+MzdQc+rztwqu7AyboDJ9CdhNv9GGD/6Tpwn3tyOz/6vJ87tfMjcHUfndhz4HjdB4cOfnrq+o2fHTiScyhQi2TXRNvM3oiEEuDBNxlBB1gJWQ9jv73s3nfky7CYnPCYgvDYktCY4uDo4rC40pC4kpC44pC4wpC4AnSFIXFFobHFobGloTFloTGzXuNCYmaFRLu4spBocGHRhZaYHFNUUnR8+sa3t4GBn8GMCcxlotKE42IdwWeNnZoKXYlB+R6u/BPxRkcO0nK5PsZu3nuyYuP2/5lk8TelBUfm+ltyvMMyJ4dl+FiywEVk+ESk+0Sk+0Zk+FoyfS1ZfuZsP3POsF2AOSMgfEawOdEveGrZnMqObtWBa/dAiVdhXqwLLAt7IhKKfS0F8SlznzV2aDDP9OYhiMtoYPKmo7vvm+8acgsqrEmF0fEF8UlliakVcTNmx6fMjkuZFZdaFpdaGp9aGp9SGp9SFp8yy5pcbk2ebU0pS0gp9ezKElM8uNSyxNSy+OTi4tnL/nX4TK8DzOWwMAW6EY1bWKt3I4L5bzSCqOLbGLMpir35VeutW3ev1f989eqd+msP6hseX7n28ErDg8sN9y833LtyHdzV6/euNty/2vDgasPD+oYH9Q13r13/2bP75dp1967++t2r1x9euvbwxo+//+d5B/TL2J3BIjhFtWvAg2sAwSJfy9+KoNBOReeMqjC0e7BRL986LjgrIHKms40ap5U1m6o6QM7Qrhm0/MEMKAJMXTWsoELNQz6UwytD1z9otQY1GOQ41JIpL8YUVYO1HYx1aWxNzW5LYpGPjiDOy2LRhCgb0a9bOUgIGoshtZkHi1bUAoJTXBCErk/RbKoG/aEGe+R0+Lmf6BTPpaoolDKDosyVjUE8oaqifgGDg7UWJq5VRYUlPl0aW12z20wIps592tgOtOnEjQg7ijxsBPOMPIjEyzV6qqI4dCKhkES0JB2yFkiiB+A0wDB4BIHbKSr2HZCvqBG0XmAr3mtOKPGxFManznuKPQmWnPJ/YxAUYy19f6bGmM2m2B04CgW8yEgDTdmwVpdM/M5ouoA7wK2mYPeLi4nsTFMUxaFSC8B1Kl0KW1O9z2Kd5WMujk9Z8PR5l4Zr/UcNPw9jksG0YiceJIIU0LVg2QCBBJqtGOMJkcjfCFshSEUhMz0ynhO39gNUhY7XDptDNJum2VVaY4klUFSyUe+3WMt9TaXxKYuePu8GXheJjAIHjiKCMF+k8lVlfPZIrvMXFGOPBF0IDmRls8WBrDTcOHuAPz3/IVCaWOQLSyw5c+ELYeXfHxE/GxFciDwIyb1xPAhEqXZ0BCLQCCXDO06yDgTxuJT8glFfz2xu36JujAZbTRHwQUBUmsG65WDr3iMES+JT3mAEgWixRktxqD099q4uR1u7va3D0dGldXSzti4VndLepbR3OTrIdTo60HV2qcNzHd1qe7fS2mXv6HH02g37MhBBWBbnYOtgzUKpr6nImjL/6fNOxFmXvHq1Dtc3in0xb5xPG5sPHjm9re5fW+sO1e48XFP36bY9x2p2HZWutu5obd2RreCObtt5dOvOo7XDd0dqdh6q2fGvI8e/+uX+f2B1DyiDIFFoP2KvwtZv2RVpLfIz51thVEfaDCf1tRJisIiOGoK0uv/35837D52MmZ4bM6MwNrksNqU8OmXutOS501IqpqbMm5ZSMS25Ijq5Iia5ImbGvFhw88Elz48xuhnzYgbr5sbOmB07vWR6Wtk71XsdGq60JTGrqqqqAYLVOyKt+X7mPGvKnGeNrRqYwQzcOligPIYbKoL3Fy2vHR+cFSg0ak4tyiM7Yw+eNFa/v2+cd7h3cJx3SOLk0CSv0OQJwTMmhaZOCk2bFJrmFZrmFZI2GZ13cJp3cDpcQ1K9Q5OlmxySPEjnHTLDN2SGT1CCT1DsvEXrYEILhyXQSp0R9DfnJaTOedbY9s8juHB5DUfw3Q8e/9YkEXTgStbG5q6T5y/mFC3IKlyUUVCZVlCVWrA8tWBFauHK1MJVqYWr0gpXpRWsSkeXkb86M391RsHKjMJlGUVVw3CZhVVZhUuzC6pKylfu3vcZDYqhG0EENVw5Sjz4X4AgDXgVxtq77HcfPr3ccOdi/d1v6+9fbHh06fvfvml49M01cN9ee/jttYcXrz28WP/wO3CPvqt/eKnhwaXr94fnvmu4f+X7hw9+e9nRDTYrnQdRK3oD5eB9tzyIGh1fQqQqmt3OenrUnl7W0weuu49123TXY2O95PpY78hcj41121kXLkXvc4BhhkaOyIOwtw7nSdz0xU4DTI8iblAvhiwH3SIIWcF5RHbQAB0OFTaeOE8vORHDmxlNEOmaBT0e0hWTkPogH37jimXVAZ0yIPiG6YMeeRD0QRXOhNDQMCJnOAEQrjJzcwxZ8MRVIu2EscsNzdy7uaLabmcORXOAQQvGyGhMU6BC38wxiUcEFQ32/aliiYKCfaLz4AOMNziMdYgrtzIINKUJ0cnTL5aMDh6F2R1an6rBuFhx9MHATuQqEXyjxsUeEYRd+qqigGGEekJkPRrk4hgPjQhkV6UrsSQ1YrnIxhhgCH4+uoOhHdYjEqFosI56zZYP3yjbjEcE0YxAthYohJN0QzFpkIv8Xpd4vKk7GxUI4QGufABOTVe123X7oMZnmtZUo33Q/HfbB7F3RW7CcnId6/aPzgg+AX2QgMBW64AWpym4O0a8oNdGwSZSpNYGdxRmGFfaKa4vaUKJixWkgZ3DxUZd8dfYqIluiQQvKh8yuhTq1o/3Fq6oHR+SExhVgDbqRhmPpJXCFLui9tnUnl6NqzK9qM30sa5+rrOPddLDXtZtcF09bAium3X3sD4b6C5cAIK8ANMCt/JX7zLDTFNBfOq8Z42wZgGtW8Dbxmodtn8Mz9bzFLQRxJs/3Vm4onZcaG5gVOGGLfseP2kkKpB0sHT22m2/P208/9Wl0+cuf36+4dS5hpNnr588//3J89dPnG848cW1E1/Uo7sG/vMNJ85fh1fnrkMw7r4/cea17uz1E2cb0F3D6/fHTzd8+c2tuw+eES/iyAR25CvEg1t2WazFvhawzTxv6qbNnYPSAAYHKiGInSGxU79oLgguWFE7LiTPHYKwAqipue1fn57yDowa7xM1zjt6nHfsWO+4t7xjx/rGjfWLG+sXM9Y/GpxfzDhwseP84sb5xY31jTW4OAjsE/8WuLi3fMCvO198y8PHjPOJGecd/f8mRoaYpq/btJ0WdyKOGig3jHVrbDUi6GcusqYs+GsQ5Go8AdUPP2dpdvOnO4igKw/Supluld269/v6d3eP9Z4yOTjJz5TlZ8r2Cc/yCs3wDs/0NmV6m9K9zWnepjRvU7oPuEyf8CxvU+ZkU8Zkczp3pnS4hYduXcZkkwhpTvMxpfqFzQgMm+4TMLWsvLKrF2bZkQdhroH2k6zesttiLfEzFzsjyLdguCnwEB+NIfZTYE8rzdy6JuDEgz/eWbCiZlyIGwTtjPUy9qJdPfP1jazCqpTcyqSsqoTMyoTMquk5yxJzlibkVCXkLEnIWZwIbsn07Mrp2VXTs5clZlcl5lYm5C0Gl7vYCm6J0SXkVpITDykMXKfnLEzJmZ+cMWvWnGWfHDrV54ChMQokTdNUWvWx+r3XIDgKonCMMEcy7EFd4ZNTCoTjzR/vzF/uBkGQg7RuSmXPX7R/+XXDqTOXT5y+euxzcCfOXjtxtv74uavHz105fu7yiXOXT5y9cvLs1ZNnr5080wDXc1dOnLuEDt9SGH69cgLeXj2BcY+fu3z83CXpTpy9dOrcleOnL35z6cavvzeBIi6VJk11qKgPvrfHMw+OBoJyvseDGOTKyusRBH1EsTMYGHBWhjusHAXngajnk+zME5WmMfliII+LdghtlcFMnVzswbVwnDOkddRr3ttriS/10IpHCUFIhkh3w4JuEBwbkhsgtBlOAiBoY6oNlDCabhfoyAGySNswryTCYB6G56/HUSREVEu+g9Mg7LBwEHaw41oTWoFpQJD3xXjANcnB0UAQDGpCeEBJ+v0Zi0OtGBCcUrD+vQ8eP3kuEMRDAOlcbrE2HPQGkhFkXKAbopzavEDQhbNcbgEpMVpxGejR+FnqpDr5SHQ/HpzvshJ9VFTCMTqCDuTEISIIvQ/HGKcfeFkFU+NbNDf0x8wQRvc6sbyx8gTaoDpQjUv5A6sUcOZDg+l0hJEQZGDdcuZBuZYfCO1X1uE8GEOrDIBvcI94/zSMxbj5E/QkY4NzAqYUbEAehPrX+RBgEpzHZ3Nw3MWXKpBJhnp/HXnKkrLpnz0+MdLQ3w9HLQB2eGqZEUFcR71WysHU+Tgmoc3no4cg02B20HBOo2shjBTrCDrLQRyTwKIFmmTHg0tgth2dgiclOfDAHzj2h07uEkALToBsxCQan3omEWDM35U2AS8xqOyHOUtTKyYEfc1F1tQFT5934DIoyHR0OBBXfcAZQHhihlv6eGaUpScESagbG5rwy2MKuSkQh898gRKFgZLoKAFrwso/CaLhnTv6+FBYtGyDQoHWNNxXB3vcEcH5uHZLPwDBXYJDfjYGpthUG+oihuwN6eilY+w1COolNcQdwCuSxilcOApDoSXkJFlJpPJ0RUoiinhMCBoFo+At1E/RPrgHxsXmQmvqX4UgzW/gFIcQaYJe+DXS7BFBCmTsFI3RBuenRoxXUEege3Chp386QJ1L19Ifwd2IYIGVrx8cdR6kqibijMgJv5Fsjwi6IG2MMxg/HpdEhMBUAFi65aSIoVo4qdgJkR8RRLVaamQ63SqeVLEGxsWwjtqaKu2DgoNF2JH8juF0C17rn5YRgdch2D/moJ/QkkOQjtiXKAo/rQZvCUGDXNX1Sv5QLKczSCEkmiNYvcuSUOhrmWlNk6uARxdBxM6QuWu5h4KgMaxoTa7pudxDQwXTNl7tePYUrR6SqzcNETB9YyZAPODslgHINrOmus6SUOBryftrEaQ2Y6BV90rqtNf3JBBD9ox6N/ua6sbCgxpKO7Z7HKzLBn6DmY9bCmRL1slCn6BNguiUG9kH3SA4yMp1yczDLdhmsCI9EclpIlpv/nSXa9TO+qBI3CjXEURZtH5ES7C7bI4vv71WW/fxivU1lavfXbGuetOWnZcbfvyzracPd3ZJCSfwciJJPiQajLcCwZ3OPDhagxFe6DEiPcpakqE3a0kT8uD9+ctrxwZnu1oWBIT4K8HBRIzxocXBWBYXDMMBsy87lAtXfimpWB8zo9wcU2iKLjBH50+JL6yofOfUl9detNnoGGQ6lIwbrowJigZszF9WlmjFuyxWkIMJaRW0K0x2e8ZYw/Y7r/rgyZB+wClBgklDYzd/fDB/+VYDgk2SXIiq30hmFEXEB4hdnwJbtxx9jDW127+6/KB8yXaf8DyvkJneYYXeoUVeIfneoXn+5txZC9858/UPrT0w5YZnIdPqMDmfJAyBMltCloqAfupJ1lbvgb7YPDMhfd6zJr6vziBlhg0djzgQghwBieBDA4IfPn7yGgSp8ekIwroaUJ1tuPlN6WHatw135iypHeuT5GfKC4kqjrCWRyVVmOPKQqKKAix5vmFpeSUrfvjpSQ9YnskSiHuxqXYEXuIXgZRV6AbB/IQ0QhAm695UBHmtSAYUjQ8fwEp1MN9Bx+tgWlNbx5Yd/wqy5ASac7yCkkrnbzrz7a2mLu3eH+1p+ZXBkTl+oRlTYsoWLat51W7DES+czgg5IDpGAWtsLDoJYkwiePC/GkExakDbIAhBO9MePW1cs3mXT3BaaGRectb80/++3tTR18NYq1374tLt3JJVQabcEFNRWnZlU4sNDR8atmUAkCxlCKvBgKtzI0fZuRX/NyFITcS5FeMdmhkURYMjme//9nTl+ve9A1NCI3IrFr938+7zbtzj3cXYiw62aPmO8MiioNCi+MS5Ta/6BFiwNMuAIOzlpFW/kjf/D/AgNWHBdbjvDQst5tBUDTZeauzh742rN9b5BKYEm7MLZ629eO1Bax/M9nUo7PaDP2cvqA6LKA4JK50+Y+GLV7wV495XkMhYRarCelQ4INb5ky4E4X+zHORcIsxNoicx2O5UBmeOPn3R8m7NR8GmjMDwTL/Q1G17Tt5+8OJZa++d35tXbNw7NWGOf2iOeUpZ6ewNL1vtQi0SZnRIFVZm4ceC/q8hKHlAKsLY8CSCUHQwKPcq7PCxrxJTygPDM4Is2SFRM3NK1yxeszO7ZFVoVIG/Kdc3JCMxZf7+T77o6MalLsTJsgeB0UoPY30IJWb6f0gOyuGdgE00PAAB8NQcKmxA//1Z24GDX06zlgSYs/zNuWHRJRHx5aHTSoIiC/zCshPT59fsPPL0Rbcdh00YEzmaayLAynQS9n9HXwxka0aNOn897IbgK4+I8YxXWm/ppPUahjmKBksy+hT22x/tHx38Yoq10Dc8bTJ8AyHNOzTDKzjFmlZRvfPwTw+f6d/zkuKBEOQ4UpVgzh55cK/FWuRjnvkP64PQNWjsxu0HfFQ3hRDk6wd1+4hAkawGwu7E1QvkQepLQaehyfLmTvbu9o/Ll7yTW7Y6s2j1zFnriyo2bN93/PaDP/rkh4wlWxvhIxbHtDmQbjXqGh1BeWKPaB2C3BH8Dm1McuP2/XnLat8Kzg6Ykr+p+qNfn7ygCVynYwGQGmcERX8CJaSzSmD7EW0kw73B7PfG7oZbTy5cuVt/87cnTd0ddmii8pMYOkDEaAaxoHOe7uMVpjLWpbC11XstCcUwqkub1/iiiw5Pp08SScBHAKDT1zVkOoZxMS87H9X9cOt+xdKat4KyAqIKNm758NcnTXy+mJCRxRNFQB40jEx0BOksQjBt0VaePgfrtbNeBzoF4cPPsogJYKJNzwB8xnqRBBgCkka9ruYDS0KxjynPmipPjdI/2S3LPGzPYHnQpRUHTi1c987ex7816gjKMmDNYllpMIstRpYd6oIO+LFhNwr3EJVbSnFTsgbDPthmiHs1BadQRDLtwFCEWqJBusr2LCqQsR6Nrav9wGIt8g7Pi0+ZK1rxP4EgSa+bIAe3jg3JQQShJ6FWDABI5dkZQZe4vbkAABC0SURBVL6cSkeQPsvODS3IRrzAGmwFgNNCcEYUzkMgM7XgDm6Kxd2H/FNbhu6EJ8IDUwXiPMk6lIPeyIPQimGFMFo5MIZIfPi/g+VBQuDG7fvzl9WODckONLRiJEkgRL+8OMCDiKChvfEAkoeQdEBC0xSbqvTAEnxQdTBVsewGAxHnQvPHk/fpgDKaXMH3Imu4Qb+KPLiWehITyUFYR43HIQEbCu7G6MO9DA3BH27dn7esZmxwtj/0JPupJ0H+k30kr1kqAiFoZDQqGxJvaH84VYzHPEEPY3fYaAUArYLAHpxQkbkQ6/NujAPhCcHqPeb4Qh/zzMT0+WAfVGAe8B/rSW7//HjRyu1jQ3L8IvJWbdz16Fexdkv0sLJliL7Y0BaphIQbFNrIAaqq2aH9wrJJMIERU+L2Hs5Q3KQno0Nq4p/Yxx2CXQpb9W5deFyBrzk/KXPhs8YOFb7vwtf0GCkYLgu66YuNBYVk8Z53mvcePluxYe+ksJl+ETPnL91y58FT0UqpVYpxK49F6+CENDMmTH5RArRdg/ijtUOihcNKXlxAh0wsnurWUUpEFr3frUNjzd2sav32sJj8wMiitLyqppc91INjRjRYlPGH6TG2YudiiQSRm+DrLQ6V/edp+8b3DvqbioIiihNSF9TfeILfJ4EVRqi4CEgwrkhOPBT3VCdOLAgbGh24IgnWLuGqV1zUDVGoD8OFZcYUiIelYgi8iZTic0Bbg2Mqfnr4Z/G8DYGWLNO00tKKzS+a4QghrAuHQ7OhV5RzuL8uCFID4ixEhcTxmY0QbGlj23eeDrPMDjaV+ofl1e4+/ct/XnYwRw98iE0gNSxSFFVf4oXf28S9wogbTkvBghoiDrPh2gzAK6ZPEEEQcbQUrcvGHv3RXlN3LD5lnm9IelTc7FXr971sheBo8+hV0CoxLGKdIrkgSAYVJwRxQAyfKYOhvMKOnriclLokIDTXPyzHFF1UvefIr6/aW2yKjRS64V7hFFW0E+CXNoFNkPngSn2w0xHgKCjpCVSc+M49jLVVAKbTwR7+0bbv4PkgS7q/KT3QlD4jfcHHh79ux33wKJsp9ohqnYDsj6CQZXricOIuamGwzPCPps6PPvkiyJQeEJ4ZYMqKSixdsXnv42fd3fi1K9oUS30krXcj/+uvdtxNbdfgKFJubyEEsT1LZKHQoobgC8SIeB9+ltMmjjHtZazNwX7+raV2z7FJwVY/c4q/OSXKOnP9ux8AhTTTKrsjJ2Ya5o1bBLHx6AlCU8FzSGwOpnQ71Ef/eXng8PmImDy/0LRAc06UdU5+2YZlq3esXr9jzfqdazbsXLuxbs0G8JB/7ca617t1m3av3bhr2drtlWu2rd68a/XG7Ws3bV+/ceeG9bvWb6xbs2n76s1bV2/asWbjrrUb69Zv2LF+w/trN+5cvXHXqs07VmyuXbbpvWWba5Zvfn/Z5p0r39k3b+X7ObPWTksu97Ok+ZmToxLza+o+efy0hQ5dBmkpOyWdS/TSDtXngqBM2yUdWhtkh+3QTO22O359+nLnvs/ik2f7Bqf7h80MMM20xJVGWItdXGRCCXf9XsmQkdaSKQllEdZZpviyMOssc+KsyOmlkdbCKGvJNOusKfHFkQkFlsT8iISiCGvpFGtJVHzR1PjCKZBgqSWhKGJ6gSUxz5JQEJFQGpEw2xJfHhY9OyCiwCcsyzc8LdI6s3b3wV8eg5VMHFs9qrqM88ll1NVxbYz6OgOQKg4GaL68r0ex//Giveb9Qxm5y6OiF4RFzfExF0w0504w5UwIzx4fnj3BlA1+cOAfjw89XHMmmGZONBd5Rc6aFDVnfETJpMjCiaacSWG5XqF5k0KzJ4Rnjjeljw/PmhCWOzE0Z1Jolldo5sSwrPFhORPCsyaGZ04Kz5gUluMVWjA5pGhCQKF/eHloVEVE3LzE9EWbag/c//1PhE9R4AOyNo31aRpudhlZ1yeRMfKgfEg6giuLY6cMGzhVWHSg2Bh7/rL7s5NXK5ftmT2vZkZOpTVrflxGRWz63Jj0ubHCxaTPGcjNi89cYkmYGzCtzDuy1CeycMqMufEZ8+NS58XNqLCmzYtJK49OmxWTOicmpSI2pSI+ZU58yuzYlHJ4kloenVIam1Yamzo7NnluXPL8uKQFGbmrS+a8s3T17g8OnG3p4p/PVkAQgSwCiQQ7oF0klSz7kD39EOS4ET9iclILA7bUcIKRPoQK3yXsc8D24a5e1trFmru0Vx3qy3aF3KsO9VUH98uHbjwdrK2X7T5wPjmn0jssM3xa/umvbv72tKOlnbV3sOY27c82+4t2259tystW7VWr2tyitLTaX7U6XrY5/my3vezobenu+7Otp/FVT3O72trOOrtgt3JPH5zJQkMiXJhIuj+qO7BSbchIeYrgjKCOmxNswO/ocPsidIM0tqfPGYOVCfs442Jz8NOoGC0trq8MD+G4CcY+Pnw+M2+Rb3ByWETat9/dam3rhbXoqF5DAOpDacjCD0fBUy9g+6EN9gdoDhgO4gmwNGgBJkOY6FhJfjYrnmPhvol5Qmig584I6qNVgZkY1hGCtCGJmjPqN2DBk4qujDMkDxmtDnx6Nj1v4eSg5NDI9G8u32rr7IVBCTIP9m4CEJk0nzUGU4uACn/pzijMaRwHapB+eoGkeSB8Bn7fD0EexUCp9EoPhKGCg4keHXAJZ1TJsYPz0Och9396OjVvgVdQclhU5oXLt1o6ewAKGBCTgQZGGkLAkD5CB+eKIbOEjGuedHCGOLJFUE6/UuEYlabsgqDMwrmSBAUcE44yUUISWk7duAQd+NaA4EKvoLTQKdmIYDdNDhgR5MKfj3/p9Bp8xjMhpsVNVGS+ct2UAnSLkbRkXV6YYf8YEZT2dxrxSFAGTFzCNGBINwE4gkfOpOUt8QrMCp2Sd+Hy7ZZOQhA4irZK6cZWyA1wELJUjneor6Alxf2vNGDl57nQovdR50FqmDSsIhCdOdFN8UfhkQHBSq/A3NDI/AuXf2rp7EaBxhEURi7MjuoLWreCH0Z3umKvA81CrM528VC3R7M7owKgk32QeFBmySsNRZ7kMk6+jpx8oz8ams+AYJVX4MywyMILl35uRTkIKKEwJCEo5CDvOYg38YQtDhhRLPiLWrvoR6D56n9ON/rj4fhcWjFJCaJEtmVqzrqsFphifhLB4RIlEDyblrvMK6AgLKL4wqVf2jp6IT2BoF5vQozRLmuacZZ1LimmDtmJNOON9A8HMdc4RgTlO4kj0eY8Z8tlsV4o5+5FJjJYDyF44MiZtNylkxHBby793NbZjQhyWaxn5oyglDLG6pX4SA+Q4nQzWNoGE84ZQSdK+dwYWiQxKae31BEPvrfxSIzQB0+nI4LhEUXfXPqprbMLNRkujtGmJWggtKAhUAs1oiPrXmIr8tWJN3TIzk1bBB3arzsEeXvkizKwzRqplBTINjQiHI0IevsXGBBU8Xv2YFJBra8/gthYJVcCnlzBwm7Euek4CRnKk8geGl79Q48R2BgVKwomSROxnKrR2DCcqBOhB/vLETxyJiN3mY9ffpi58Jvvfm7t6MFEaTsJJkW5S6LgNUIgn3MqXO890CET4jJTrySBiDDmyh5JlwTGAo+BwSeQAhYLpyBGSsjvgZYRPhZy8Gxm7nJf/wKTufjb7+62tvdhlTqAPCos0SAFHhSC2vhI8tdlkZwpE+UmlpYfqKERpk6LzHUM7PEAaw98l4KPHPuBz2tBRhpVD3zdi7H9R89k5C31Dcg3RxZ/e/nuq7Ye+E4B32Knc4VTHXMEjQwxVMqwcqh4FNU1MXm0JA/k+h4trAJ01PT1Gw9kj3oAmB5ibP9np1NzF0/yzQyLmPnv73582d6N7GdDux7ghn/iF25o7sFBncwwqNKTlL0OpSJvKReas6aqAxgxZx4ZfqAnUVVNgYUC/O0wqBlJFPrW3YHjp9PzF08OyAiLzPvq4q1XnRxBNEdKwmA0Jxx+GQrsXjBxPgynI2iMbJQS8FyMKsHEIeAjySlAHAN8TGec0HCTuNXtVcQZzV9cld7H2IGjJ9PzFnj7p4ZZsi5cutUCCKoOmLyEpfrCGRFkYuOnkTGHRBql6oyHyEkkJCwbwq4HpDjHGMPH5Rw+GkR5FoQyg1HzgAJiZ+zAkeOZufP8AlLMEZnfXbnd1kUI0hpDhBDKJMDiv9QHCtYYKkncLuz0iTbkaGQq+AqHYEiw9Art06mNA01jYFtGr9rS1tvc2tvaZmtts//NrrnN8bJD3f3xqdScSr+gXNOUwnP/vv3kecfLdtur9p5X7b3NbY7mNhWvtuY2e3Obgrf25va+5ra+ljZbS6vdk2tutTW3eHCtfc1tPS/bul61dcOnV9t7XrZ2N7f1tLR3N7d1Nre299kVUkSBD8VpStQ4BYcigipjd+49OX7yi+OnLhw98d2RE1c9uU+PX/kr3OET9UfP/rB4zZ7opMXewSVBllnrt3z20acXD5+6evjUpYPHLx46fuXQsatwPX4Z/fWHjtXj7aVDxy8dPnbZ1X12+dBnlwZ2x747dOziwWPfHD727afHLx4+/u3Bo19/evzCkRP/PnT03OFjZ180d9KHQJHV6Ywc6la4MCEcgQc/OXzSOj0zLjE3JrEkOrH8L3HT50S7cZDXtOlzopLmmuNnB08tD7BUBEbMiUyYPzVp7tSk8qnTy6YlzZ46vXxq4hxw3DN3amIF3s6eNn129PRykXL5tMQhOYg7LXFWdOLs2OnlMYll06zFMYnFMYkFUbGZ1hl5dx4+7exTydgHnyHDaRsHbEwlgzkXJWMcGtu5+8Bk37CJ3qbxPlPG+U7z5Mb6TH2N8xRrwOdjfae95TttXED8hMDkiQGZEwPSxvsnjvOLHus7daxv1Di/qZCCT8w43+ixvtPGwjVmrE8seqaN9cW3nml+Xe4+0eN8Ysf5xI/3sU7wsY73jh3nHTPBJ3q895T/GR/iEzjl1p1f23tgPRAuL6FPTvFzsIRQxFbs0NiFb6+tWvvOirXvLVu3pWpdjWdXXbnOvataV+051msS5K8q19dUrq+tXPd+1ZrdVWvrqtZtw9Sqq9ZvqVpXvXRdzdK1tUvX1eLD2qp1WzHA1pHkCHHXbqtcs7NqzZ6la/YuXb2natWupWt2LVuzc+nqbUuWv7tyfc1vT1912Qg+ZsMzxGhlHvKgPlSHVgwmXZxylGt8aFHPP3AV64lk1kbbn/TLtyP00JYVuGqgN1FqAIIG+636UJtHIag5cFGdnIiR+9R4XwyDQ8MnvIeqFYxKeK7y8WG+rgFKVdCTZ9i5yyEx6UTyKtUVShmWDMNMNLf0QF+MI3bZHY+BCKRRk2QcNkUjiSiVUqGBIU2onOlPUJV1uR1JplAn1AL5ygbUWvhhkKAYY8cLKj9IPyH6iAChmAIPcuLhOxWjs65YVs4QPCMCYgj59AuKeABfiTcGSnCrG81xiZkuGpC4jknEGWEOxTh+8tRo/pLn/cgXDwbxayjykGmDCJKpjX7CCK40PHstgvhJFGJEl1HnkAkadmEEUCSanKtYvINfmYH041v5eEgenrCnOE6vEUHIHv+cReEYVXHgyRFw+oE+8ORh/+YfaXwXtLrk77a0LmGGcCu5DtIl2yihJPIhywxfzcw3CVE9GggcI+YWRjTXMQSyXxf070YQd1FRwYnxARgJH8xHgxJDyxygWxGn+kluhML8L+2qk8bbINvzAAAAAElFTkSuQmCC;" parent="HGULL_6P600kTCqMz5Pa-43" vertex="1">
          <mxGeometry x="15.833333333333332" width="101.19999999999999" height="137.14285714285714" as="geometry" />
        </mxCell>
        <mxCell id="HGULL_6P600kTCqMz5Pa-45" value="" style="shape=image;verticalLabelPosition=bottom;labelBackgroundColor=default;verticalAlign=top;aspect=fixed;imageAspect=0;image=https://cdn.icon-icons.com/icons2/2699/PNG/512/zabbix_logo_icon_167937.png;" parent="HGULL_6P600kTCqMz5Pa-43" vertex="1">
          <mxGeometry y="112.28070175438596" width="36.57142857142857" height="36.57142857142857" as="geometry" />
        </mxCell>
        <mxCell id="HGULL_6P600kTCqMz5Pa-46" value="" style="rounded=0;whiteSpace=wrap;html=1;fillColor=none;" parent="HGULL_6P600kTCqMz5Pa-43" vertex="1">
          <mxGeometry x="-19.5" y="-3.1818181818181817" width="149.5" height="192.97448165869218" as="geometry" />
        </mxCell>
        <mxCell id="HGULL_6P600kTCqMz5Pa-47" value="&lt;b style=&quot;&quot;&gt;&lt;font style=&quot;font-size: 22px;&quot;&gt;Agent Zabbix&lt;/font&gt;&lt;/b&gt;" style="text;html=1;align=center;verticalAlign=middle;whiteSpace=wrap;rounded=0;" parent="HGULL_6P600kTCqMz5Pa-43" vertex="1">
          <mxGeometry x="-99.75333333333333" y="159.792663476874" width="310" height="30" as="geometry" />
        </mxCell>
        <mxCell id="HGULL_6P600kTCqMz5Pa-48" value="&lt;font size=&quot;1&quot; style=&quot;&quot;&gt;&lt;b style=&quot;font-size: 24px;&quot;&gt;Serveur DNS&lt;/b&gt;&lt;/font&gt;" style="rounded=0;whiteSpace=wrap;html=1;" parent="HGULL_6P600kTCqMz5Pa-42" vertex="1">
          <mxGeometry x="-3.6666666666666288" y="-40.002663476874" width="149.5" height="60" as="geometry" />
        </mxCell>
        <mxCell id="HGULL_6P600kTCqMz5Pa-49" value="" style="group" parent="1" vertex="1" connectable="0">
          <mxGeometry x="1230" y="650" width="226.08" height="200" as="geometry" />
        </mxCell>
        <mxCell id="HGULL_6P600kTCqMz5Pa-50" value="" style="group" parent="HGULL_6P600kTCqMz5Pa-49" vertex="1" connectable="0">
          <mxGeometry x="15.833333333333332" y="10.207336523125996" width="210.24666666666667" height="189.792663476874" as="geometry" />
        </mxCell>
        <mxCell id="HGULL_6P600kTCqMz5Pa-51" value="" style="shape=image;verticalLabelPosition=bottom;labelBackgroundColor=default;verticalAlign=top;aspect=fixed;imageAspect=0;image=data:image/png,iVBORw0KGgoAAAANSUhEUgAAAGsAAACRCAIAAABL1NEkAAAgAElEQVR4Ae19h3cUx7I3f9A7n4lCOe+uhEBpJYRyRFkgEFkiZ3BAEmAQwdjga8Bgkkm2r7ExQQib4EDGxteAhEE57u7M9DtV1d0zu9pF0Tb3nU+nNdsz06H619XV1dVhxrB/+k9jTGWawjSVMY0xhTE7YzZ4iPca0KeiUwzB4KmG7p+mf8w/TQDgIBDU0A8gKgSOwIjCOJjmABAR3P+PoKHmNI1pGlNVwYacvwwhGATQVKZKNuRhkEOdAv7tN/88D4rWqCJGCIDKmZDaNQQA7gRGxDDQ3uFPcCjd/VPXNwNB4jDkQcCFZKFKbdnAoCgqCWjOfG8gD+qUudYw3QuSne9GVv+IkUCH5KIADzmN8IUAxJRwzzlQ/EqOlA8MhIqI8h1GHhnNemwnHtSzkD7y6MVCEe/yVhCrpzo0HyVH5USMACK95WJPI986ewQl+MsxFoARESpjDuBqTeWFoBxGD8QhIYi0CaIlH4BnFP7cpjvQQ/keEFGwO+KqjyBKAwQBPmRcXbKqGufokZJuRFCveudUSccgvuCtR4cPghqolUUavMc5syHfUUbQ7G0asxOI8EwSAMqS3u6RWA1DOqReNORMDRFcEFSxJknlcmkvBiK4OJLJILGS4mF4+tXLINMACiCoimp4L4LooPav1zGlZaBZYw6N9WqgtiuyDMP2eEKQtFq66qzvRBYvNqhyo1KZwymDRBp5EHFUeIuQr1w8QPZfiCDAoQE1duFQDCPre4KPBJCU/C4ED3jLgRswnKcAvONAeQeUv1akQGbaX4eghIg0WgfvxYDF8I/KoHthkCCc3nd6Kqmn506Jewo04HNIhbcYWZc8ZVn9+r3yF8lBkQP/lVS7PKchgoRP19Ncw/2N94iaojJyvF6xcRj5QLDnqBJmlINcsMl24C4j3syRVlUKSymmJep/p4faMQ2Z8aoqTFGYQ2F2FRz00dienBvTKOHpAUECwBVCTeOVrKA1BVTVHjtr6VCbXvX++nvz/UdNdx48v/Pg+d2HjeAePAdHHnricsUAeniXtw8b76C7+6jx7qMmdJisc7B7jxrvwVsIfO8xeH79o/n5q86Wrr5uh2JHZVoBaYPaoqaJEbYY4LiWccj3r0XQCUeCz451qyhYpy+ae2/8+OTMlz8c+uzijr2n3t326abqTzZt+eTt2kNv1x7aXH0QXM3BTdWfbK4BT38H4WsObq49tHmrq9tUe2hT7cFNtQc3bz38NrrNWw+7BHu79tA7tYff3frpOzXg3tt69J2awzv2nv7X0Qunv2q4euPen+29vSpxIDRtRVX6WdCGDJlLBGcE6aWxBfLg1Hgddq3PrjlItPQ62GcnLxaVrQwMS53gY/UOSvYKmjEpIGliQNKkQHAThX9iQJJX0AwXNylwBgWbFOjmLSQlA/SL65RUQNIk/+mTA1J8AtMn+6VO8E6a6JM00TfBLzRpRkb5vy/d/rPN3qdBS3ZoILJBVAnbz2vllQtQHm+NCNLYwyAsdPgUFcWKg3H4OnrY8VNX0rMXB4WlB4Vn+YdmTPRPmhSUPDk0dXJo6qTglEnBKV7BKV4hKV4hqXANTpkUlOzJeQUlewUOz83wCpzuHZTsE5TmE5Dp7Z/pE5jtH5zjH5IdEJYZYsmKSyr77PMrjc02mxCEiupQHHbNoYwKfIwxI4I0CLe7qMeoIYJIdoBTHYw9e9F98MiFjJwllimFQWHZpimFyVlLyxZsmb/8/UWr6hatqluwcufClTsXrqqDK3lW1cGtO7doZd3ilXVLVtYtXuHeLcG3Hq47F63YXrlqx5KVu5Ys27tk2b5FVR/Mmb8jOX1ZqCU/KDw7KDwru2DF/kNf/d7YSZqtCrzoQFutk5DyyGMDvRgMgorGbCqzYwfHnjZ1fHbiUnZeVWBoRmBYduz08vlVtYePX7pw6eer1+9d++HhtR8e1v/w4Bq6+h8e1H/P/fTE7bXhxsOGGxDRjcNXFKD/9drN+/U3f6m/9XP9jXv1kO/jK9cffX3xl4NHv1m+dkdkzMwgc3pAWFp2QeX+Q+f/bLPbVBgkQ0MmW8No8KELgjTJYxwtcg0eEdRsKvvqws3S2Rv9g9NDTHmWqcWLV2y/UH/XxgBgbuwwilE+YMBX5O9/Ra3CGGnwfhXahM0OGoGN2ocDx8a9Crt978nCZW9HxOQGmDL8QmdkFSz5rv5OVx+o3SpIdUXYHgbisYHeGxEk67ADolAhMDKNgbAVs9ZOx/t1R8PNM8MsBd4BqfMrt1/6/lEvDgBBfGJ3h8SROQQnNoBWukW1VxqApIdnNnjc9JCoXdkcrFthfQpz2DWbXbMpTHEw1quyJ40dRXPWWqKL/MPSplqL127e3dyh2EGiqxpRNdo8iMjp5CGOcIFxOPYk7GlT55baQ+HmwuCwmZZpxWe//qXFxnqYYoN+Zthq9QggBIYCSx9UDvyrSK1dYZqdsQ4bu3rjj/yyTQHhWRExJQuqql+2AbjYxGTrGIjHBnpv5EHBekYQ4ZmisT4VK/bug6bV6z4ICM4LMRWUzn3n5t0X3Yx1s04bcIFDTrbhnJAuaZADRwSTkSIXP1QcOTKfa3YV+ZHYsLGFLVqxN3RKUUhkYV7xqucvbWBBhEKRAWUUxiWeEeRNmEbBdmiQGrv982+VK96fHJQTbClYvXHf/V9f9THWx/oc0NWQXYQXEHUvTh8oseLPufykZhpei2BD+JUpcmVPwZGcSibDdhtbtfkjc2yJvzk/KWPh06ZuGE4hgkJsDyErt0HdIQhZADmSNqwxuL3946PFK7ZNCM4JjMzf8N5Hj5+8wKExACE4wejBBAypQBJOf6TaIk+4BBvkLaZmTJWypNgOxrpVtnbLBxHWEl9Tflzy3GeNXaBVU5t3omT4N24R5Dq7oRScjW7/+HDRim3jg3MCAMF9j580yR7YCXAj+EQbpeUaiJoSCdBhlkES6ZwP3CmEYPVei7XEx1QQN6PiWWMXtWEcHg8zR5doo4YglkT2r9LjhKUc9AhGBRMZ7wdcwXWNKJFy68FS0Ru9gALBDyzWUh9ToROCqMvoQUfgG10EByi2lPgGBKHDGXlXgwgQL4s2jZIFWnG1RHAe50FRWyPATY86agjqSaLPLad4fih5dhgeqDbEhOqlH4Jb9kVYy3xNRXEzjAhCRi40D+929BDsD8+AFOnNrl/7dt81Cd51eivjuspkVQMla+2WDyMSynzNbz6Czp13P/RkOWVbE6zDg/avgcE/oa7PM4LWWb7mYsGDkC8Nj5Bz+1E6xAejx4OGjEXRqUlSX6HgaMGBVzmJynthEX4AMeo2mGi/Mk1RMdhD9RAPuiIo9dBRaMhDR3C5J23GhZeISprCJ+DsOENm12B2QJiaUBi5hWaQDwWCBtVStAZVYz0KW7flwwjrLF9TCfJgJwzeoSOGgeA/xIPLt40LznbRBwE8dyWGaQl9YsI4MUW2Bvex3Cbl/iFPwEVE8KdOCOqt+E1GUAp6kkjGhgX4kvARdS8Dyy7UXR24B84QUrATgYgVJt4qqoEHAcGK501dwHxvKg/ioh9sTBoN30WfQQMpN3wqQRRlHhAvCCBjCT4W+eBLqVuiNQlbMWoz5qK4ZCOCVJ8G4T1c73DkYP9WjANNWiguWAxB4V2JGMS7AiXuxe+gADQGBvOBCjIVUEVjIeRIIgWHOwLBUl9zYbyOIK+FUehHnOdJhFSC9MHQYqDVMC52JwfRaq6gHQxmlPtsWnNLT0ubrbVDae1UWjrsLR19LR29LZ093MGtraXd3truaG23Nbf3Nnd0D8v1NHf0vWrv7eoD05E0UlJVKLwn+SAiARFMqXje1IkW6jcPQTlH1Wljdx8///jIuboPj9d9+Pmu/ad3HTiz6+MzdQc+rztwqu7AyboDJ9CdhNv9GGD/6Tpwn3tyOz/6vJ87tfMjcHUfndhz4HjdB4cOfnrq+o2fHTiScyhQi2TXRNvM3oiEEuDBNxlBB1gJWQ9jv73s3nfky7CYnPCYgvDYktCY4uDo4rC40pC4kpC44pC4wpC4AnSFIXFFobHFobGloTFloTGzXuNCYmaFRLu4spBocGHRhZaYHFNUUnR8+sa3t4GBn8GMCcxlotKE42IdwWeNnZoKXYlB+R6u/BPxRkcO0nK5PsZu3nuyYuP2/5lk8TelBUfm+ltyvMMyJ4dl+FiywEVk+ESk+0Sk+0Zk+FoyfS1ZfuZsP3POsF2AOSMgfEawOdEveGrZnMqObtWBa/dAiVdhXqwLLAt7IhKKfS0F8SlznzV2aDDP9OYhiMtoYPKmo7vvm+8acgsqrEmF0fEF8UlliakVcTNmx6fMjkuZFZdaFpdaGp9aGp9SGp9SFp8yy5pcbk2ebU0pS0gp9ezKElM8uNSyxNSy+OTi4tnL/nX4TK8DzOWwMAW6EY1bWKt3I4L5bzSCqOLbGLMpir35VeutW3ev1f989eqd+msP6hseX7n28ErDg8sN9y833LtyHdzV6/euNty/2vDgasPD+oYH9Q13r13/2bP75dp1967++t2r1x9euvbwxo+//+d5B/TL2J3BIjhFtWvAg2sAwSJfy9+KoNBOReeMqjC0e7BRL986LjgrIHKms40ap5U1m6o6QM7Qrhm0/MEMKAJMXTWsoELNQz6UwytD1z9otQY1GOQ41JIpL8YUVYO1HYx1aWxNzW5LYpGPjiDOy2LRhCgb0a9bOUgIGoshtZkHi1bUAoJTXBCErk/RbKoG/aEGe+R0+Lmf6BTPpaoolDKDosyVjUE8oaqifgGDg7UWJq5VRYUlPl0aW12z20wIps592tgOtOnEjQg7ijxsBPOMPIjEyzV6qqI4dCKhkES0JB2yFkiiB+A0wDB4BIHbKSr2HZCvqBG0XmAr3mtOKPGxFManznuKPQmWnPJ/YxAUYy19f6bGmM2m2B04CgW8yEgDTdmwVpdM/M5ouoA7wK2mYPeLi4nsTFMUxaFSC8B1Kl0KW1O9z2Kd5WMujk9Z8PR5l4Zr/UcNPw9jksG0YiceJIIU0LVg2QCBBJqtGOMJkcjfCFshSEUhMz0ynhO39gNUhY7XDptDNJum2VVaY4klUFSyUe+3WMt9TaXxKYuePu8GXheJjAIHjiKCMF+k8lVlfPZIrvMXFGOPBF0IDmRls8WBrDTcOHuAPz3/IVCaWOQLSyw5c+ELYeXfHxE/GxFciDwIyb1xPAhEqXZ0BCLQCCXDO06yDgTxuJT8glFfz2xu36JujAZbTRHwQUBUmsG65WDr3iMES+JT3mAEgWixRktxqD099q4uR1u7va3D0dGldXSzti4VndLepbR3OTrIdTo60HV2qcNzHd1qe7fS2mXv6HH02g37MhBBWBbnYOtgzUKpr6nImjL/6fNOxFmXvHq1Dtc3in0xb5xPG5sPHjm9re5fW+sO1e48XFP36bY9x2p2HZWutu5obd2RreCObtt5dOvOo7XDd0dqdh6q2fGvI8e/+uX+f2B1DyiDIFFoP2KvwtZv2RVpLfIz51thVEfaDCf1tRJisIiOGoK0uv/35837D52MmZ4bM6MwNrksNqU8OmXutOS501IqpqbMm5ZSMS25Ijq5Iia5ImbGvFhw88Elz48xuhnzYgbr5sbOmB07vWR6Wtk71XsdGq60JTGrqqqqAYLVOyKt+X7mPGvKnGeNrRqYwQzcOligPIYbKoL3Fy2vHR+cFSg0ak4tyiM7Yw+eNFa/v2+cd7h3cJx3SOLk0CSv0OQJwTMmhaZOCk2bFJrmFZrmFZI2GZ13cJp3cDpcQ1K9Q5OlmxySPEjnHTLDN2SGT1CCT1DsvEXrYEILhyXQSp0R9DfnJaTOedbY9s8juHB5DUfw3Q8e/9YkEXTgStbG5q6T5y/mFC3IKlyUUVCZVlCVWrA8tWBFauHK1MJVqYWr0gpXpRWsSkeXkb86M391RsHKjMJlGUVVw3CZhVVZhUuzC6pKylfu3vcZDYqhG0EENVw5Sjz4X4AgDXgVxtq77HcfPr3ccOdi/d1v6+9fbHh06fvfvml49M01cN9ee/jttYcXrz28WP/wO3CPvqt/eKnhwaXr94fnvmu4f+X7hw9+e9nRDTYrnQdRK3oD5eB9tzyIGh1fQqQqmt3OenrUnl7W0weuu49123TXY2O95PpY78hcj41121kXLkXvc4BhhkaOyIOwtw7nSdz0xU4DTI8iblAvhiwH3SIIWcF5RHbQAB0OFTaeOE8vORHDmxlNEOmaBT0e0hWTkPogH37jimXVAZ0yIPiG6YMeeRD0QRXOhNDQMCJnOAEQrjJzcwxZ8MRVIu2EscsNzdy7uaLabmcORXOAQQvGyGhMU6BC38wxiUcEFQ32/aliiYKCfaLz4AOMNziMdYgrtzIINKUJ0cnTL5aMDh6F2R1an6rBuFhx9MHATuQqEXyjxsUeEYRd+qqigGGEekJkPRrk4hgPjQhkV6UrsSQ1YrnIxhhgCH4+uoOhHdYjEqFosI56zZYP3yjbjEcE0YxAthYohJN0QzFpkIv8Xpd4vKk7GxUI4QGufABOTVe123X7oMZnmtZUo33Q/HfbB7F3RW7CcnId6/aPzgg+AX2QgMBW64AWpym4O0a8oNdGwSZSpNYGdxRmGFfaKa4vaUKJixWkgZ3DxUZd8dfYqIluiQQvKh8yuhTq1o/3Fq6oHR+SExhVgDbqRhmPpJXCFLui9tnUnl6NqzK9qM30sa5+rrOPddLDXtZtcF09bAium3X3sD4b6C5cAIK8ANMCt/JX7zLDTFNBfOq8Z42wZgGtW8Dbxmodtn8Mz9bzFLQRxJs/3Vm4onZcaG5gVOGGLfseP2kkKpB0sHT22m2/P208/9Wl0+cuf36+4dS5hpNnr588//3J89dPnG848cW1E1/Uo7sG/vMNJ85fh1fnrkMw7r4/cea17uz1E2cb0F3D6/fHTzd8+c2tuw+eES/iyAR25CvEg1t2WazFvhawzTxv6qbNnYPSAAYHKiGInSGxU79oLgguWFE7LiTPHYKwAqipue1fn57yDowa7xM1zjt6nHfsWO+4t7xjx/rGjfWLG+sXM9Y/GpxfzDhwseP84sb5xY31jTW4OAjsE/8WuLi3fMCvO198y8PHjPOJGecd/f8mRoaYpq/btJ0WdyKOGig3jHVrbDUi6GcusqYs+GsQ5Go8AdUPP2dpdvOnO4igKw/Supluld269/v6d3eP9Z4yOTjJz5TlZ8r2Cc/yCs3wDs/0NmV6m9K9zWnepjRvU7oPuEyf8CxvU+ZkU8Zkczp3pnS4hYduXcZkkwhpTvMxpfqFzQgMm+4TMLWsvLKrF2bZkQdhroH2k6zesttiLfEzFzsjyLdguCnwEB+NIfZTYE8rzdy6JuDEgz/eWbCiZlyIGwTtjPUy9qJdPfP1jazCqpTcyqSsqoTMyoTMquk5yxJzlibkVCXkLEnIWZwIbsn07Mrp2VXTs5clZlcl5lYm5C0Gl7vYCm6J0SXkVpITDykMXKfnLEzJmZ+cMWvWnGWfHDrV54ChMQokTdNUWvWx+r3XIDgKonCMMEcy7EFd4ZNTCoTjzR/vzF/uBkGQg7RuSmXPX7R/+XXDqTOXT5y+euxzcCfOXjtxtv74uavHz105fu7yiXOXT5y9cvLs1ZNnr5080wDXc1dOnLuEDt9SGH69cgLeXj2BcY+fu3z83CXpTpy9dOrcleOnL35z6cavvzeBIi6VJk11qKgPvrfHMw+OBoJyvseDGOTKyusRBH1EsTMYGHBWhjusHAXngajnk+zME5WmMfliII+LdghtlcFMnVzswbVwnDOkddRr3ttriS/10IpHCUFIhkh3w4JuEBwbkhsgtBlOAiBoY6oNlDCabhfoyAGySNswryTCYB6G56/HUSREVEu+g9Mg7LBwEHaw41oTWoFpQJD3xXjANcnB0UAQDGpCeEBJ+v0Zi0OtGBCcUrD+vQ8eP3kuEMRDAOlcbrE2HPQGkhFkXKAbopzavEDQhbNcbgEpMVpxGejR+FnqpDr5SHQ/HpzvshJ9VFTCMTqCDuTEISIIvQ/HGKcfeFkFU+NbNDf0x8wQRvc6sbyx8gTaoDpQjUv5A6sUcOZDg+l0hJEQZGDdcuZBuZYfCO1X1uE8GEOrDIBvcI94/zSMxbj5E/QkY4NzAqYUbEAehPrX+RBgEpzHZ3Nw3MWXKpBJhnp/HXnKkrLpnz0+MdLQ3w9HLQB2eGqZEUFcR71WysHU+Tgmoc3no4cg02B20HBOo2shjBTrCDrLQRyTwKIFmmTHg0tgth2dgiclOfDAHzj2h07uEkALToBsxCQan3omEWDM35U2AS8xqOyHOUtTKyYEfc1F1tQFT5934DIoyHR0OBBXfcAZQHhihlv6eGaUpScESagbG5rwy2MKuSkQh898gRKFgZLoKAFrwso/CaLhnTv6+FBYtGyDQoHWNNxXB3vcEcH5uHZLPwDBXYJDfjYGpthUG+oihuwN6eilY+w1COolNcQdwCuSxilcOApDoSXkJFlJpPJ0RUoiinhMCBoFo+At1E/RPrgHxsXmQmvqX4UgzW/gFIcQaYJe+DXS7BFBCmTsFI3RBuenRoxXUEege3Chp386QJ1L19Ifwd2IYIGVrx8cdR6kqibijMgJv5Fsjwi6IG2MMxg/HpdEhMBUAFi65aSIoVo4qdgJkR8RRLVaamQ63SqeVLEGxsWwjtqaKu2DgoNF2JH8juF0C17rn5YRgdch2D/moJ/QkkOQjtiXKAo/rQZvCUGDXNX1Sv5QLKczSCEkmiNYvcuSUOhrmWlNk6uARxdBxM6QuWu5h4KgMaxoTa7pudxDQwXTNl7tePYUrR6SqzcNETB9YyZAPODslgHINrOmus6SUOBryftrEaQ2Y6BV90rqtNf3JBBD9ox6N/ua6sbCgxpKO7Z7HKzLBn6DmY9bCmRL1slCn6BNguiUG9kH3SA4yMp1yczDLdhmsCI9EclpIlpv/nSXa9TO+qBI3CjXEURZtH5ES7C7bI4vv71WW/fxivU1lavfXbGuetOWnZcbfvyzracPd3ZJCSfwciJJPiQajLcCwZ3OPDhagxFe6DEiPcpakqE3a0kT8uD9+ctrxwZnu1oWBIT4K8HBRIzxocXBWBYXDMMBsy87lAtXfimpWB8zo9wcU2iKLjBH50+JL6yofOfUl9detNnoGGQ6lIwbrowJigZszF9WlmjFuyxWkIMJaRW0K0x2e8ZYw/Y7r/rgyZB+wClBgklDYzd/fDB/+VYDgk2SXIiq30hmFEXEB4hdnwJbtxx9jDW127+6/KB8yXaf8DyvkJneYYXeoUVeIfneoXn+5txZC9858/UPrT0w5YZnIdPqMDmfJAyBMltCloqAfupJ1lbvgb7YPDMhfd6zJr6vziBlhg0djzgQghwBieBDA4IfPn7yGgSp8ekIwroaUJ1tuPlN6WHatw135iypHeuT5GfKC4kqjrCWRyVVmOPKQqKKAix5vmFpeSUrfvjpSQ9YnskSiHuxqXYEXuIXgZRV6AbB/IQ0QhAm695UBHmtSAYUjQ8fwEp1MN9Bx+tgWlNbx5Yd/wqy5ASac7yCkkrnbzrz7a2mLu3eH+1p+ZXBkTl+oRlTYsoWLat51W7DES+czgg5IDpGAWtsLDoJYkwiePC/GkExakDbIAhBO9MePW1cs3mXT3BaaGRectb80/++3tTR18NYq1374tLt3JJVQabcEFNRWnZlU4sNDR8atmUAkCxlCKvBgKtzI0fZuRX/NyFITcS5FeMdmhkURYMjme//9nTl+ve9A1NCI3IrFr938+7zbtzj3cXYiw62aPmO8MiioNCi+MS5Ta/6BFiwNMuAIOzlpFW/kjf/D/AgNWHBdbjvDQst5tBUDTZeauzh742rN9b5BKYEm7MLZ629eO1Bax/M9nUo7PaDP2cvqA6LKA4JK50+Y+GLV7wV495XkMhYRarCelQ4INb5ky4E4X+zHORcIsxNoicx2O5UBmeOPn3R8m7NR8GmjMDwTL/Q1G17Tt5+8OJZa++d35tXbNw7NWGOf2iOeUpZ6ewNL1vtQi0SZnRIFVZm4ceC/q8hKHlAKsLY8CSCUHQwKPcq7PCxrxJTygPDM4Is2SFRM3NK1yxeszO7ZFVoVIG/Kdc3JCMxZf7+T77o6MalLsTJsgeB0UoPY30IJWb6f0gOyuGdgE00PAAB8NQcKmxA//1Z24GDX06zlgSYs/zNuWHRJRHx5aHTSoIiC/zCshPT59fsPPL0Rbcdh00YEzmaayLAynQS9n9HXwxka0aNOn897IbgK4+I8YxXWm/ppPUahjmKBksy+hT22x/tHx38Yoq10Dc8bTJ8AyHNOzTDKzjFmlZRvfPwTw+f6d/zkuKBEOQ4UpVgzh55cK/FWuRjnvkP64PQNWjsxu0HfFQ3hRDk6wd1+4hAkawGwu7E1QvkQepLQaehyfLmTvbu9o/Ll7yTW7Y6s2j1zFnriyo2bN93/PaDP/rkh4wlWxvhIxbHtDmQbjXqGh1BeWKPaB2C3BH8Dm1McuP2/XnLat8Kzg6Ykr+p+qNfn7ygCVynYwGQGmcERX8CJaSzSmD7EW0kw73B7PfG7oZbTy5cuVt/87cnTd0ddmii8pMYOkDEaAaxoHOe7uMVpjLWpbC11XstCcUwqkub1/iiiw5Pp08SScBHAKDT1zVkOoZxMS87H9X9cOt+xdKat4KyAqIKNm758NcnTXy+mJCRxRNFQB40jEx0BOksQjBt0VaePgfrtbNeBzoF4cPPsogJYKJNzwB8xnqRBBgCkka9ruYDS0KxjynPmipPjdI/2S3LPGzPYHnQpRUHTi1c987ex7816gjKMmDNYllpMIstRpYd6oIO+LFhNwr3EJVbSnFTsgbDPthmiHs1BadQRDLtwFCEWqJBusr2LCqQsR6Nrav9wGIt8g7Pi0+ZK1rxP4EgSa+bIAe3jg3JQQShJ6FWDABI5dkZQZe4vbkAABC0SURBVL6cSkeQPsvODS3IRrzAGmwFgNNCcEYUzkMgM7XgDm6Kxd2H/FNbhu6EJ8IDUwXiPMk6lIPeyIPQimGFMFo5MIZIfPi/g+VBQuDG7fvzl9WODckONLRiJEkgRL+8OMCDiKChvfEAkoeQdEBC0xSbqvTAEnxQdTBVsewGAxHnQvPHk/fpgDKaXMH3Imu4Qb+KPLiWehITyUFYR43HIQEbCu7G6MO9DA3BH27dn7esZmxwtj/0JPupJ0H+k30kr1kqAiFoZDQqGxJvaH84VYzHPEEPY3fYaAUArYLAHpxQkbkQ6/NujAPhCcHqPeb4Qh/zzMT0+WAfVGAe8B/rSW7//HjRyu1jQ3L8IvJWbdz16Fexdkv0sLJliL7Y0BaphIQbFNrIAaqq2aH9wrJJMIERU+L2Hs5Q3KQno0Nq4p/Yxx2CXQpb9W5deFyBrzk/KXPhs8YOFb7vwtf0GCkYLgu66YuNBYVk8Z53mvcePluxYe+ksJl+ETPnL91y58FT0UqpVYpxK49F6+CENDMmTH5RArRdg/ijtUOihcNKXlxAh0wsnurWUUpEFr3frUNjzd2sav32sJj8wMiitLyqppc91INjRjRYlPGH6TG2YudiiQSRm+DrLQ6V/edp+8b3DvqbioIiihNSF9TfeILfJ4EVRqi4CEgwrkhOPBT3VCdOLAgbGh24IgnWLuGqV1zUDVGoD8OFZcYUiIelYgi8iZTic0Bbg2Mqfnr4Z/G8DYGWLNO00tKKzS+a4QghrAuHQ7OhV5RzuL8uCFID4ixEhcTxmY0QbGlj23eeDrPMDjaV+ofl1e4+/ct/XnYwRw98iE0gNSxSFFVf4oXf28S9wogbTkvBghoiDrPh2gzAK6ZPEEEQcbQUrcvGHv3RXlN3LD5lnm9IelTc7FXr971sheBo8+hV0CoxLGKdIrkgSAYVJwRxQAyfKYOhvMKOnriclLokIDTXPyzHFF1UvefIr6/aW2yKjRS64V7hFFW0E+CXNoFNkPngSn2w0xHgKCjpCVSc+M49jLVVAKbTwR7+0bbv4PkgS7q/KT3QlD4jfcHHh79ux33wKJsp9ohqnYDsj6CQZXricOIuamGwzPCPps6PPvkiyJQeEJ4ZYMqKSixdsXnv42fd3fi1K9oUS30krXcj/+uvdtxNbdfgKFJubyEEsT1LZKHQoobgC8SIeB9+ltMmjjHtZazNwX7+raV2z7FJwVY/c4q/OSXKOnP9ux8AhTTTKrsjJ2Ya5o1bBLHx6AlCU8FzSGwOpnQ71Ef/eXng8PmImDy/0LRAc06UdU5+2YZlq3esXr9jzfqdazbsXLuxbs0G8JB/7ca617t1m3av3bhr2drtlWu2rd68a/XG7Ws3bV+/ceeG9bvWb6xbs2n76s1bV2/asWbjrrUb69Zv2LF+w/trN+5cvXHXqs07VmyuXbbpvWWba5Zvfn/Z5p0r39k3b+X7ObPWTksu97Ok+ZmToxLza+o+efy0hQ5dBmkpOyWdS/TSDtXngqBM2yUdWhtkh+3QTO22O359+nLnvs/ik2f7Bqf7h80MMM20xJVGWItdXGRCCXf9XsmQkdaSKQllEdZZpviyMOssc+KsyOmlkdbCKGvJNOusKfHFkQkFlsT8iISiCGvpFGtJVHzR1PjCKZBgqSWhKGJ6gSUxz5JQEJFQGpEw2xJfHhY9OyCiwCcsyzc8LdI6s3b3wV8eg5VMHFs9qrqM88ll1NVxbYz6OgOQKg4GaL68r0ex//Giveb9Qxm5y6OiF4RFzfExF0w0504w5UwIzx4fnj3BlA1+cOAfjw89XHMmmGZONBd5Rc6aFDVnfETJpMjCiaacSWG5XqF5k0KzJ4Rnjjeljw/PmhCWOzE0Z1Jolldo5sSwrPFhORPCsyaGZ04Kz5gUluMVWjA5pGhCQKF/eHloVEVE3LzE9EWbag/c//1PhE9R4AOyNo31aRpudhlZ1yeRMfKgfEg6giuLY6cMGzhVWHSg2Bh7/rL7s5NXK5ftmT2vZkZOpTVrflxGRWz63Jj0ubHCxaTPGcjNi89cYkmYGzCtzDuy1CeycMqMufEZ8+NS58XNqLCmzYtJK49OmxWTOicmpSI2pSI+ZU58yuzYlHJ4kloenVIam1Yamzo7NnluXPL8uKQFGbmrS+a8s3T17g8OnG3p4p/PVkAQgSwCiQQ7oF0klSz7kD39EOS4ET9iclILA7bUcIKRPoQK3yXsc8D24a5e1trFmru0Vx3qy3aF3KsO9VUH98uHbjwdrK2X7T5wPjmn0jssM3xa/umvbv72tKOlnbV3sOY27c82+4t2259tystW7VWr2tyitLTaX7U6XrY5/my3vezobenu+7Otp/FVT3O72trOOrtgt3JPH5zJQkMiXJhIuj+qO7BSbchIeYrgjKCOmxNswO/ocPsidIM0tqfPGYOVCfs442Jz8NOoGC0trq8MD+G4CcY+Pnw+M2+Rb3ByWETat9/dam3rhbXoqF5DAOpDacjCD0fBUy9g+6EN9gdoDhgO4gmwNGgBJkOY6FhJfjYrnmPhvol5Qmig584I6qNVgZkY1hGCtCGJmjPqN2DBk4qujDMkDxmtDnx6Nj1v4eSg5NDI9G8u32rr7IVBCTIP9m4CEJk0nzUGU4uACn/pzijMaRwHapB+eoGkeSB8Bn7fD0EexUCp9EoPhKGCg4keHXAJZ1TJsYPz0Och9396OjVvgVdQclhU5oXLt1o6ewAKGBCTgQZGGkLAkD5CB+eKIbOEjGuedHCGOLJFUE6/UuEYlabsgqDMwrmSBAUcE44yUUISWk7duAQd+NaA4EKvoLTQKdmIYDdNDhgR5MKfj3/p9Bp8xjMhpsVNVGS+ct2UAnSLkbRkXV6YYf8YEZT2dxrxSFAGTFzCNGBINwE4gkfOpOUt8QrMCp2Sd+Hy7ZZOQhA4irZK6cZWyA1wELJUjneor6Alxf2vNGDl57nQovdR50FqmDSsIhCdOdFN8UfhkQHBSq/A3NDI/AuXf2rp7EaBxhEURi7MjuoLWreCH0Z3umKvA81CrM528VC3R7M7owKgk32QeFBmySsNRZ7kMk6+jpx8oz8ams+AYJVX4MywyMILl35uRTkIKKEwJCEo5CDvOYg38YQtDhhRLPiLWrvoR6D56n9ON/rj4fhcWjFJCaJEtmVqzrqsFphifhLB4RIlEDyblrvMK6AgLKL4wqVf2jp6IT2BoF5vQozRLmuacZZ1LimmDtmJNOON9A8HMdc4RgTlO4kj0eY8Z8tlsV4o5+5FJjJYDyF44MiZtNylkxHBby793NbZjQhyWaxn5oyglDLG6pX4SA+Q4nQzWNoGE84ZQSdK+dwYWiQxKae31BEPvrfxSIzQB0+nI4LhEUXfXPqprbMLNRkujtGmJWggtKAhUAs1oiPrXmIr8tWJN3TIzk1bBB3arzsEeXvkizKwzRqplBTINjQiHI0IevsXGBBU8Xv2YFJBra8/gthYJVcCnlzBwm7Euek4CRnKk8geGl79Q48R2BgVKwomSROxnKrR2DCcqBOhB/vLETxyJiN3mY9ffpi58Jvvfm7t6MFEaTsJJkW5S6LgNUIgn3MqXO890CET4jJTrySBiDDmyh5JlwTGAo+BwSeQAhYLpyBGSsjvgZYRPhZy8Gxm7nJf/wKTufjb7+62tvdhlTqAPCos0SAFHhSC2vhI8tdlkZwpE+UmlpYfqKERpk6LzHUM7PEAaw98l4KPHPuBz2tBRhpVD3zdi7H9R89k5C31Dcg3RxZ/e/nuq7Ye+E4B32Knc4VTHXMEjQwxVMqwcqh4FNU1MXm0JA/k+h4trAJ01PT1Gw9kj3oAmB5ibP9np1NzF0/yzQyLmPnv73582d6N7GdDux7ghn/iF25o7sFBncwwqNKTlL0OpSJvKReas6aqAxgxZx4ZfqAnUVVNgYUC/O0wqBlJFPrW3YHjp9PzF08OyAiLzPvq4q1XnRxBNEdKwmA0Jxx+GQrsXjBxPgynI2iMbJQS8FyMKsHEIeAjySlAHAN8TGec0HCTuNXtVcQZzV9cld7H2IGjJ9PzFnj7p4ZZsi5cutUCCKoOmLyEpfrCGRFkYuOnkTGHRBql6oyHyEkkJCwbwq4HpDjHGMPH5Rw+GkR5FoQyg1HzgAJiZ+zAkeOZufP8AlLMEZnfXbnd1kUI0hpDhBDKJMDiv9QHCtYYKkncLuz0iTbkaGQq+AqHYEiw9Art06mNA01jYFtGr9rS1tvc2tvaZmtts//NrrnN8bJD3f3xqdScSr+gXNOUwnP/vv3kecfLdtur9p5X7b3NbY7mNhWvtuY2e3Obgrf25va+5ra+ljZbS6vdk2tutTW3eHCtfc1tPS/bul61dcOnV9t7XrZ2N7f1tLR3N7d1Nre299kVUkSBD8VpStQ4BYcigipjd+49OX7yi+OnLhw98d2RE1c9uU+PX/kr3OET9UfP/rB4zZ7opMXewSVBllnrt3z20acXD5+6evjUpYPHLx46fuXQsatwPX4Z/fWHjtXj7aVDxy8dPnbZ1X12+dBnlwZ2x747dOziwWPfHD727afHLx4+/u3Bo19/evzCkRP/PnT03OFjZ180d9KHQJHV6Ywc6la4MCEcgQc/OXzSOj0zLjE3JrEkOrH8L3HT50S7cZDXtOlzopLmmuNnB08tD7BUBEbMiUyYPzVp7tSk8qnTy6YlzZ46vXxq4hxw3DN3amIF3s6eNn129PRykXL5tMQhOYg7LXFWdOLs2OnlMYll06zFMYnFMYkFUbGZ1hl5dx4+7exTydgHnyHDaRsHbEwlgzkXJWMcGtu5+8Bk37CJ3qbxPlPG+U7z5Mb6TH2N8xRrwOdjfae95TttXED8hMDkiQGZEwPSxvsnjvOLHus7daxv1Di/qZCCT8w43+ixvtPGwjVmrE8seqaN9cW3nml+Xe4+0eN8Ysf5xI/3sU7wsY73jh3nHTPBJ3q895T/GR/iEzjl1p1f23tgPRAuL6FPTvFzsIRQxFbs0NiFb6+tWvvOirXvLVu3pWpdjWdXXbnOvataV+051msS5K8q19dUrq+tXPd+1ZrdVWvrqtZtw9Sqq9ZvqVpXvXRdzdK1tUvX1eLD2qp1WzHA1pHkCHHXbqtcs7NqzZ6la/YuXb2natWupWt2LVuzc+nqbUuWv7tyfc1vT1912Qg+ZsMzxGhlHvKgPlSHVgwmXZxylGt8aFHPP3AV64lk1kbbn/TLtyP00JYVuGqgN1FqAIIG+636UJtHIag5cFGdnIiR+9R4XwyDQ8MnvIeqFYxKeK7y8WG+rgFKVdCTZ9i5yyEx6UTyKtUVShmWDMNMNLf0QF+MI3bZHY+BCKRRk2QcNkUjiSiVUqGBIU2onOlPUJV1uR1JplAn1AL5ygbUWvhhkKAYY8cLKj9IPyH6iAChmAIPcuLhOxWjs65YVs4QPCMCYgj59AuKeABfiTcGSnCrG81xiZkuGpC4jknEGWEOxTh+8tRo/pLn/cgXDwbxayjykGmDCJKpjX7CCK40PHstgvhJFGJEl1HnkAkadmEEUCSanKtYvINfmYH041v5eEgenrCnOE6vEUHIHv+cReEYVXHgyRFw+oE+8ORh/+YfaXwXtLrk77a0LmGGcCu5DtIl2yihJPIhywxfzcw3CVE9GggcI+YWRjTXMQSyXxf070YQd1FRwYnxARgJH8xHgxJDyxygWxGn+kluhML8L+2qk8bbINvzAAAAAElFTkSuQmCC;" parent="HGULL_6P600kTCqMz5Pa-50" vertex="1">
          <mxGeometry x="15.833333333333332" width="101.19999999999999" height="137.14285714285714" as="geometry" />
        </mxCell>
        <mxCell id="HGULL_6P600kTCqMz5Pa-52" value="" style="shape=image;verticalLabelPosition=bottom;labelBackgroundColor=default;verticalAlign=top;aspect=fixed;imageAspect=0;image=https://cdn.icon-icons.com/icons2/2699/PNG/512/zabbix_logo_icon_167937.png;" parent="HGULL_6P600kTCqMz5Pa-50" vertex="1">
          <mxGeometry y="112.28070175438596" width="36.57142857142857" height="36.57142857142857" as="geometry" />
        </mxCell>
        <mxCell id="HGULL_6P600kTCqMz5Pa-53" value="" style="rounded=0;whiteSpace=wrap;html=1;fillColor=none;" parent="HGULL_6P600kTCqMz5Pa-50" vertex="1">
          <mxGeometry x="-19.5" y="-3.1818181818181817" width="149.5" height="192.97448165869218" as="geometry" />
        </mxCell>
        <mxCell id="HGULL_6P600kTCqMz5Pa-54" value="&lt;b style=&quot;&quot;&gt;&lt;font style=&quot;font-size: 22px;&quot;&gt;Agent Zabbix&lt;/font&gt;&lt;/b&gt;" style="text;html=1;align=center;verticalAlign=middle;whiteSpace=wrap;rounded=0;" parent="HGULL_6P600kTCqMz5Pa-50" vertex="1">
          <mxGeometry x="-99.75333333333333" y="159.792663476874" width="310" height="30" as="geometry" />
        </mxCell>
        <mxCell id="HGULL_6P600kTCqMz5Pa-55" value="&lt;font size=&quot;1&quot; style=&quot;&quot;&gt;&lt;b style=&quot;font-size: 24px;&quot;&gt;Serveur DNS&lt;/b&gt;&lt;/font&gt;" style="rounded=0;whiteSpace=wrap;html=1;" parent="HGULL_6P600kTCqMz5Pa-49" vertex="1">
          <mxGeometry x="-3.6666666666666288" y="-40.002663476874" width="149.5" height="60" as="geometry" />
        </mxCell>
        <mxCell id="HGULL_6P600kTCqMz5Pa-57" value="" style="endArrow=none;startArrow=classic;html=1;rounded=0;endFill=0;strokeWidth=2;" parent="1" edge="1">
          <mxGeometry width="50" height="50" relative="1" as="geometry">
            <mxPoint x="902" y="479.02" as="sourcePoint" />
            <mxPoint x="1092" y="479" as="targetPoint" />
          </mxGeometry>
        </mxCell>
        <mxCell id="HGULL_6P600kTCqMz5Pa-58" value="" style="endArrow=none;html=1;rounded=0;" parent="1" edge="1">
          <mxGeometry width="50" height="50" relative="1" as="geometry">
            <mxPoint x="690" y="651.62" as="sourcePoint" />
            <mxPoint x="690" y="651.62" as="targetPoint" />
          </mxGeometry>
        </mxCell>
        <mxCell id="HGULL_6P600kTCqMz5Pa-62" value="" style="group" parent="1" vertex="1" connectable="0">
          <mxGeometry x="1040" y="175.34" width="266" height="607.66" as="geometry" />
        </mxCell>
        <mxCell id="HGULL_6P600kTCqMz5Pa-60" value="" style="strokeWidth=2;html=1;shape=mxgraph.flowchart.annotation_2;align=left;labelPosition=right;pointerEvents=1;" parent="HGULL_6P600kTCqMz5Pa-62" vertex="1">
          <mxGeometry width="180" height="607.66" as="geometry" />
        </mxCell>
        <mxCell id="HGULL_6P600kTCqMz5Pa-61" value="" style="endArrow=none;html=1;rounded=0;strokeWidth=2;" parent="HGULL_6P600kTCqMz5Pa-62" edge="1">
          <mxGeometry width="50" height="50" relative="1" as="geometry">
            <mxPoint x="90" y="303.91999999999996" as="sourcePoint" />
            <mxPoint x="180" y="303.65999999999997" as="targetPoint" />
          </mxGeometry>
        </mxCell>
        <mxCell id="HGULL_6P600kTCqMz5Pa-63" value="&lt;b style=&quot;&quot;&gt;&lt;font style=&quot;font-size: 25px;&quot;&gt;Base de donnée Zabbix&lt;/font&gt;&lt;/b&gt;" style="text;html=1;align=center;verticalAlign=middle;whiteSpace=wrap;rounded=0;" parent="1" vertex="1">
          <mxGeometry x="281.34999999999997" y="910" width="395.77" height="30" as="geometry" />
        </mxCell>
        <mxCell id="HGULL_6P600kTCqMz5Pa-66" value="" style="endArrow=classic;startArrow=classic;html=1;rounded=0;strokeWidth=2;" parent="1" edge="1">
          <mxGeometry width="50" height="50" relative="1" as="geometry">
            <mxPoint x="420" y="479" as="sourcePoint" />
            <mxPoint x="304.49" y="479.39" as="targetPoint" />
          </mxGeometry>
        </mxCell>
        <mxCell id="HGULL_6P600kTCqMz5Pa-67" value="" style="endArrow=classic;startArrow=classic;html=1;rounded=0;strokeWidth=2;" parent="1" edge="1">
          <mxGeometry width="50" height="50" relative="1" as="geometry">
            <mxPoint x="204.88" y="479.09" as="sourcePoint" />
            <mxPoint x="89.37" y="479.47999999999996" as="targetPoint" />
          </mxGeometry>
        </mxCell>
        <mxCell id="HGULL_6P600kTCqMz5Pa-68" value="&lt;font style=&quot;font-size: 28px;&quot;&gt;Visualisation&lt;/font&gt;" style="text;whiteSpace=wrap;html=1;" parent="1" vertex="1">
          <mxGeometry x="-400" y="460" width="260" height="40" as="geometry" />
        </mxCell>
        <mxCell id="HGULL_6P600kTCqMz5Pa-73" value="&lt;font style=&quot;font-size: 28px;&quot;&gt;Requêtes SQL&lt;/font&gt;" style="text;whiteSpace=wrap;html=1;" parent="1" vertex="1">
          <mxGeometry x="64.68" y="794.56" width="270" height="40" as="geometry" />
        </mxCell>
        <mxCell id="HGULL_6P600kTCqMz5Pa-74" value="&lt;font style=&quot;font-size: 25px;&quot;&gt;Stockage/Récupération des données&lt;/font&gt;" style="text;whiteSpace=wrap;html=1;" parent="1" vertex="1">
          <mxGeometry x="300" y="740" width="420" height="40" as="geometry" />
        </mxCell>
        <mxCell id="GfFB6BPrrnnfpoXVdRxI-1" value="" style="endArrow=classic;html=1;rounded=0;strokeWidth=2;" edge="1" parent="1">
          <mxGeometry width="50" height="50" relative="1" as="geometry">
            <mxPoint x="567" y="506.62" as="sourcePoint" />
            <mxPoint x="787" y="507" as="targetPoint" />
          </mxGeometry>
        </mxCell>
        <mxCell id="GfFB6BPrrnnfpoXVdRxI-2" value="" style="endArrow=classic;html=1;rounded=0;strokeWidth=2;" edge="1" parent="1">
          <mxGeometry width="50" height="50" relative="1" as="geometry">
            <mxPoint x="910" y="514.95" as="sourcePoint" />
            <mxPoint x="1130" y="515.33" as="targetPoint" />
          </mxGeometry>
        </mxCell>
        <mxCell id="GfFB6BPrrnnfpoXVdRxI-3" value="&lt;font style=&quot;font-size: 28px;&quot;&gt;Demande de collecte des métriques&lt;/font&gt;" style="text;whiteSpace=wrap;html=1;align=center;" vertex="1" parent="1">
          <mxGeometry x="588.69" y="536" width="496" height="40" as="geometry" />
        </mxCell>
        <mxCell id="HGULL_6P600kTCqMz5Pa-72" value="&lt;font style=&quot;font-size: 28px;&quot;&gt;Transmission des métriques&lt;/font&gt;" style="text;whiteSpace=wrap;html=1;align=center;" parent="1" vertex="1">
          <mxGeometry x="576" y="414" width="496" height="40" as="geometry" />
        </mxCell>
        <mxCell id="GfFB6BPrrnnfpoXVdRxI-5" value="&lt;font style=&quot;font-size: 28px;&quot;&gt;Collecte des métriques&lt;/font&gt;" style="text;whiteSpace=wrap;html=1;align=center;" vertex="1" parent="1">
          <mxGeometry x="1060" y="890" width="496" height="40" as="geometry" />
        </mxCell>
      </root>
    </mxGraphModel>
  </diagram>
</mxfile>
